<?xml version="1.0" encoding="UTF-8" standalone="no"?><!DOCTYPE svg PUBLIC "-//W3C//DTD SVG 1.1//EN" "http://www.w3.org/Graphics/SVG/1.1/DTD/svg11.dtd"><svg width="100%" height="100%" viewBox="0 0 25 19" version="1.1" xmlns="http://www.w3.org/2000/svg" xmlns:xlink="http://www.w3.org/1999/xlink" xml:space="preserve" xmlns:serif="http://www.serif.com/" style="fill-rule:evenodd;clip-rule:evenodd;stroke-linejoin:round;stroke-miterlimit:2;"><g><path d="M1.536,0.003c7.003,-0.004 14.005,-0.004 21.006,-0c0.483,0 0.873,0.197 1.17,0.589c0.185,0.236 0.288,0.514 0.308,0.833l0,0.187c-0.031,0.238 -0.094,0.443 -0.19,0.616c-0.127,0.23 -0.307,0.418 -0.54,0.563c-0.176,0.111 -0.363,0.177 -0.563,0.2c-0.169,0.02 -0.351,0.024 -0.548,0.014c-6.877,-0.006 -13.754,-0.006 -20.631,0c-0.328,0.001 -0.624,-0.086 -0.888,-0.26c-0.246,-0.165 -0.426,-0.384 -0.54,-0.657c-0.06,-0.141 -0.1,-0.306 -0.12,-0.493l-0,-0.176c0.025,-0.213 0.073,-0.395 0.144,-0.545c0.108,-0.248 0.282,-0.454 0.522,-0.616c0.261,-0.17 0.551,-0.255 0.87,-0.255Z" style="fill-rule:nonzero;"/><path d="M1.536,7.509c6.873,0.01 13.746,0.01 20.619,0c0.207,-0.009 0.391,-0.005 0.552,0.012c0.29,0.026 0.551,0.14 0.783,0.343c0.32,0.279 0.496,0.635 0.53,1.067l0,0.188c-0.031,0.237 -0.094,0.443 -0.19,0.616c-0.127,0.23 -0.307,0.417 -0.54,0.563c-0.176,0.11 -0.363,0.176 -0.563,0.199c-0.169,0.02 -0.351,0.025 -0.548,0.015c-6.877,-0.007 -13.754,-0.007 -20.631,-0c-0.328,-0 -0.624,-0.087 -0.888,-0.261c-0.246,-0.165 -0.426,-0.384 -0.54,-0.657c-0.06,-0.141 -0.1,-0.305 -0.12,-0.493l-0,-0.176c0.024,-0.209 0.072,-0.391 0.144,-0.545c0.11,-0.25 0.284,-0.456 0.522,-0.616c0.261,-0.17 0.551,-0.255 0.87,-0.255Z" style="fill-rule:nonzero;"/><path d="M1.536,15.015c6.873,0.01 13.746,0.01 20.619,0c0.207,-0.009 0.391,-0.005 0.552,0.012c0.29,0.026 0.551,0.14 0.783,0.343c0.32,0.28 0.496,0.636 0.53,1.067l0,0.188c-0.031,0.238 -0.094,0.443 -0.19,0.616c-0.127,0.23 -0.307,0.418 -0.54,0.563c-0.176,0.11 -0.363,0.177 -0.563,0.199c-0.169,0.02 -0.351,0.025 -0.548,0.015c-6.877,-0.006 -13.754,-0.006 -20.631,-0c-0.328,0 -0.624,-0.087 -0.888,-0.261c-0.246,-0.165 -0.426,-0.384 -0.54,-0.657c-0.06,-0.141 -0.1,-0.305 -0.12,-0.492l-0,-0.176c0.024,-0.21 0.072,-0.392 0.144,-0.546c0.11,-0.25 0.284,-0.455 0.522,-0.615c0.261,-0.171 0.551,-0.256 0.87,-0.256Z" style="fill-rule:nonzero;"/></g></svg>