<?xml version="1.0" encoding="UTF-8" standalone="no"?><!DOCTYPE svg PUBLIC "-//W3C//DTD SVG 1.1//EN" "http://www.w3.org/Graphics/SVG/1.1/DTD/svg11.dtd"><svg width="100%" height="100%" viewBox="0 0 39 39" version="1.1" xmlns="http://www.w3.org/2000/svg" xmlns:xlink="http://www.w3.org/1999/xlink" xml:space="preserve" xmlns:serif="http://www.serif.com/" style="fill-rule:evenodd;clip-rule:evenodd;stroke-linejoin:round;stroke-miterlimit:2;"><circle cx="19.492" cy="19.492" r="19.492" style="fill:#d6a57d;"/><path d="M19.492,19.304c0.362,0 0.672,-0.128 0.928,-0.384c0.256,-0.256 0.384,-0.566 0.384,-0.928c0,-0.363 -0.128,-0.672 -0.384,-0.928c-0.256,-0.256 -0.566,-0.385 -0.928,-0.385c-0.363,0 -0.672,0.129 -0.928,0.385c-0.256,0.256 -0.385,0.565 -0.385,0.928c0,0.362 0.129,0.672 0.385,0.928c0.256,0.256 0.565,0.384 0.928,0.384Zm-0,6.207c1.662,-1.513 2.891,-2.885 3.684,-4.116c0.794,-1.231 1.191,-2.316 1.191,-3.253c-0,-1.475 -0.472,-2.681 -1.416,-3.619c-0.943,-0.937 -2.097,-1.406 -3.459,-1.406c-1.363,-0 -2.516,0.469 -3.459,1.406c-0.944,0.938 -1.416,2.144 -1.416,3.619c-0,0.937 0.406,2.022 1.219,3.253c0.812,1.231 2.031,2.603 3.656,4.116Zm-0,1.481c-2.013,-1.713 -3.516,-3.303 -4.509,-4.772c-0.994,-1.469 -1.491,-2.828 -1.491,-4.078c-0,-1.875 0.603,-3.369 1.809,-4.481c1.207,-1.113 2.603,-1.669 4.191,-1.669c1.587,-0 2.984,0.556 4.191,1.669c1.206,1.112 1.809,2.606 1.809,4.481c-0,1.25 -0.497,2.609 -1.491,4.078c-0.993,1.469 -2.497,3.059 -4.509,4.772Z" style="fill:#fff;fill-rule:nonzero;"/></svg>