<?xml version="1.0" encoding="UTF-8" standalone="no"?><!DOCTYPE svg PUBLIC "-//W3C//DTD SVG 1.1//EN" "http://www.w3.org/Graphics/SVG/1.1/DTD/svg11.dtd"><svg width="100%" height="100%" viewBox="0 0 30 31" version="1.1" xmlns="http://www.w3.org/2000/svg" xmlns:xlink="http://www.w3.org/1999/xlink" xml:space="preserve" xmlns:serif="http://www.serif.com/" style="fill-rule:evenodd;clip-rule:evenodd;stroke-linejoin:round;stroke-miterlimit:2;"><g><path d="M1.233,0l27.56,0c0.231,0.032 0.424,0.096 0.579,0.194c0.194,0.118 0.345,0.274 0.455,0.47c0.119,0.235 0.174,0.493 0.165,0.773c0.003,0.416 0.003,0.831 -0,1.247c-0.003,0.34 -0.135,0.629 -0.396,0.865c-0.283,0.273 -0.639,0.395 -1.069,0.365c-0.04,-0.002 -0.061,0.017 -0.061,0.058l0,22.106c0,0.031 0.016,0.045 0.047,0.043c0.274,-0.02 0.526,0.025 0.757,0.137c0.204,0.099 0.373,0.248 0.505,0.447c0.147,0.225 0.219,0.465 0.217,0.723c0.011,0.469 0.011,0.939 -0,1.408c-0.006,0.249 -0.09,0.473 -0.253,0.671c-0.234,0.312 -0.557,0.49 -0.968,0.531l-27.545,0c-0.411,-0.036 -0.736,-0.218 -0.976,-0.546c-0.154,-0.211 -0.233,-0.44 -0.238,-0.686c-0.009,-0.484 -0.009,-0.968 0,-1.452c0.007,-0.372 0.165,-0.684 0.473,-0.935c0.262,-0.22 0.586,-0.318 0.971,-0.294c0.052,0.002 0.078,-0.023 0.078,-0.075c0.021,-3.277 0.022,-6.568 0.003,-9.872c-0.006,-0.177 0.034,-0.317 0.121,-0.422c0.123,-0.153 0.282,-0.192 0.477,-0.117c0.187,0.067 0.281,0.203 0.282,0.407c0.008,0.914 0.009,1.82 0.004,2.719c-0,0.025 0.013,0.038 0.039,0.038l6.983,0c0.078,0 0.117,-0.039 0.117,-0.117c0.003,-0.86 0.003,-1.721 0,-2.581c-0.007,-0.119 0.021,-0.222 0.085,-0.312c0.114,-0.161 0.267,-0.218 0.458,-0.172c0.152,0.033 0.254,0.122 0.305,0.267c0.022,0.096 0.033,0.207 0.032,0.334c-0.014,3.285 -0.014,6.571 0,9.856c0,0.03 0.015,0.044 0.044,0.044l2.993,0c0.048,0 0.073,-0.024 0.073,-0.073c0.005,-7.295 0.005,-14.579 -0,-21.854c-0,-0.085 0.004,-0.157 0.013,-0.216c0.011,-0.042 -0.005,-0.063 -0.048,-0.063c-1.022,-0.002 -2.034,-0.001 -3.036,0.004c-0.026,-0 -0.039,0.013 -0.039,0.038c-0.011,3.326 -0.011,6.632 0,9.917c0.015,0.14 -0.011,0.261 -0.076,0.363c-0.08,0.122 -0.192,0.186 -0.338,0.191c-0.166,0.005 -0.296,-0.058 -0.389,-0.191c-0.054,-0.101 -0.079,-0.222 -0.077,-0.363c0.017,-0.86 0.017,-1.72 0,-2.581c0,-0.039 -0.019,-0.059 -0.058,-0.059l-7.063,0c-0.015,0 -0.022,0.007 -0.022,0.021c0.014,0.91 0.014,1.822 0,2.737c0.001,0.186 -0.083,0.317 -0.252,0.392c-0.198,0.087 -0.367,0.053 -0.507,-0.103c-0.101,-0.111 -0.143,-0.246 -0.124,-0.407c0.002,-0.019 0.003,-0.039 0.003,-0.058c0.002,-3.285 0.001,-6.561 -0.003,-9.829c-0,-0.05 -0.025,-0.074 -0.075,-0.074c-0.516,0.014 -0.914,-0.163 -1.194,-0.529c-0.16,-0.207 -0.244,-0.44 -0.253,-0.701c-0.016,-0.489 -0.016,-0.978 0,-1.467c0.002,-0.265 0.096,-0.508 0.282,-0.729c0.245,-0.291 0.558,-0.454 0.939,-0.488Zm27.78,2.878c0.069,-0.096 0.102,-0.21 0.099,-0.341c-0.01,-0.401 -0.01,-0.802 -0,-1.202c0.004,-0.145 -0.051,-0.266 -0.165,-0.363c-0.079,-0.061 -0.175,-0.092 -0.29,-0.092c-9.084,0.012 -18.168,0.012 -27.252,0c-0.146,0 -0.267,0.035 -0.363,0.106c-0.1,0.09 -0.15,0.196 -0.15,0.319c0.001,0.469 0.002,0.927 0.004,1.376c-0,0.019 0.003,0.038 0.009,0.056c0.054,0.17 0.168,0.268 0.34,0.294c0.019,0.004 0.038,0.005 0.058,0.005c9.133,0.02 18.275,0.02 27.427,0c0.119,-0.008 0.213,-0.06 0.283,-0.158Zm-25.466,1.064c0,-0.014 -0.011,-0.025 -0.025,-0.025l-1.079,-0c-0.014,-0 -0.026,0.011 -0.026,0.025l0,6.388c0,0.014 0.012,0.025 0.026,0.025l1.079,0c0.014,0 0.025,-0.011 0.025,-0.025l0,-6.388Zm4.003,0.018c0,-0.024 -0.019,-0.044 -0.044,-0.044l-3.035,0c-0.024,0 -0.044,0.02 -0.044,0.044l-0,6.352c-0,0.024 0.02,0.044 0.044,0.044l3.035,-0c0.025,-0 0.044,-0.02 0.044,-0.044l0,-6.352Zm2.01,-0.015c-0,-0.016 -0.013,-0.028 -0.028,-0.028l-1.073,-0c-0.015,-0 -0.028,0.012 -0.028,0.028l0,6.383c0,0.016 0.013,0.028 0.028,0.028l1.073,0c0.015,0 0.028,-0.012 0.028,-0.028l-0,-6.383Zm6.014,0.029c-0,-0.032 -0.026,-0.058 -0.058,-0.058l-1.029,0c-0.031,0 -0.057,0.026 -0.057,0.058l-0,22.091c-0,0.031 0.026,0.057 0.057,0.057l1.029,0c0.032,0 0.058,-0.026 0.058,-0.057l-0,-22.091Zm3.989,-0.02c0,-0.021 -0.017,-0.038 -0.037,-0.038l-3.034,0c-0.021,0 -0.038,0.017 -0.038,0.038l-0,22.131c-0,0.02 0.017,0.037 0.038,0.037l3.034,0c0.02,0 0.037,-0.017 0.037,-0.037l0,-22.131Zm2.01,-0.001c0,-0.02 -0.016,-0.037 -0.036,-0.037l-1.057,0c-0.02,0 -0.037,0.017 -0.037,0.037l0,22.133c0,0.02 0.017,0.036 0.037,0.036l1.057,0c0.02,0 0.036,-0.016 0.036,-0.036l0,-22.133Zm4.004,0.016c-0,-0.029 -0.024,-0.053 -0.053,-0.053l-3.018,0c-0.029,0 -0.053,0.024 -0.053,0.053l0,22.1c0,0.029 0.024,0.053 0.053,0.053l3.018,0c0.029,0 0.053,-0.024 0.053,-0.053l-0,-22.1Zm2.009,-0.013c0,-0.022 -0.017,-0.039 -0.039,-0.039l-1.051,-0c-0.022,-0 -0.04,0.017 -0.04,0.039l0,22.126c0,0.022 0.018,0.04 0.04,0.04l1.051,-0c0.022,-0 0.039,-0.018 0.039,-0.04l0,-22.126Zm-24.05,15.739c-0.013,-0.01 -0.038,-0.014 -0.077,-0.012c-0.354,0.017 -0.685,0.016 -0.994,-0.003c-0.032,-0.001 -0.048,0.015 -0.048,0.047l0,6.337c0,0.039 0.02,0.058 0.059,0.058c0.377,0.002 0.723,0.001 1.036,-0.003c0.023,-0.001 0.035,-0.012 0.035,-0.035l-0,-6.347c-0,-0.015 -0.004,-0.029 -0.011,-0.042Zm4.015,0.031c-0,-0.024 -0.02,-0.043 -0.043,-0.043l-3.037,-0c-0.024,-0 -0.044,0.019 -0.044,0.043l0,6.353c0,0.024 0.02,0.043 0.044,0.043l3.037,0c0.023,0 0.043,-0.019 0.043,-0.043l-0,-6.353Zm2.009,-0.019c-0,-0.014 -0.011,-0.025 -0.025,-0.025l-1.079,0c-0.014,0 -0.025,0.011 -0.025,0.025l0,6.39c0,0.014 0.011,0.025 0.025,0.025l1.079,-0c0.014,-0 0.025,-0.011 0.025,-0.025l-0,-6.39Zm19.394,7.394c-0.099,-0.066 -0.218,-0.099 -0.356,-0.099c-9.078,0.014 -18.157,0.014 -27.237,0c-0.138,-0.008 -0.254,0.032 -0.348,0.121c-0.085,0.096 -0.125,0.213 -0.121,0.349c0.013,0.424 0.013,0.85 0,1.276c0.002,0.161 0.081,0.282 0.238,0.363c0.06,0.032 0.124,0.047 0.191,0.047c9.101,-0.007 18.203,-0.007 27.307,0c0.202,0 0.35,-0.08 0.444,-0.241c0.026,-0.047 0.04,-0.098 0.04,-0.152c0.013,-0.491 0.013,-0.951 -0,-1.381c-0.012,-0.121 -0.065,-0.215 -0.158,-0.283Z" style="fill:#d6a57d;fill-rule:nonzero;"/><path d="M3.547,4.239c0,-0.178 -0.144,-0.322 -0.322,-0.322l-0.485,-0c-0.178,-0 -0.323,0.144 -0.323,0.322l0,5.794c0,0.178 0.145,0.322 0.323,0.322l0.485,0c0.178,0 0.322,-0.144 0.322,-0.322l0,-5.794Z" style="fill:#d6a57d;fill-opacity:0;"/><path d="M7.55,4.479c0,-0.311 -0.252,-0.563 -0.562,-0.563l-1.999,0c-0.31,0 -0.562,0.252 -0.562,0.563l-0,5.314c-0,0.311 0.252,0.563 0.562,0.563l1.999,-0c0.31,-0 0.562,-0.252 0.562,-0.563l0,-5.314Z" style="fill:#d6a57d;fill-opacity:0;"/><path d="M9.56,4.277c-0,-0.199 -0.162,-0.36 -0.36,-0.36l-0.409,-0c-0.199,-0 -0.36,0.161 -0.36,0.36l0,5.719c0,0.199 0.161,0.36 0.36,0.36l0.409,0c0.198,0 0.36,-0.161 0.36,-0.36l-0,-5.719Z" style="fill:#d6a57d;fill-opacity:0;"/><path d="M15.574,4.488c-0,-0.316 -0.256,-0.572 -0.572,-0.572c-0.316,0 -0.572,0.256 -0.572,0.572l-0,21.062c-0,0.316 0.256,0.572 0.572,0.572c0.316,0 0.572,-0.256 0.572,-0.572l-0,-21.062Z" style="fill:#d6a57d;fill-opacity:0;"/><path d="M19.563,4.396c0,-0.265 -0.215,-0.48 -0.48,-0.48l-2.149,0c-0.265,0 -0.48,0.215 -0.48,0.48l-0,21.246c-0,0.265 0.215,0.48 0.48,0.48l2.149,0c0.265,0 0.48,-0.215 0.48,-0.48l0,-21.246Z" style="fill:#d6a57d;fill-opacity:0;"/><path d="M21.573,4.381c0,-0.256 -0.208,-0.465 -0.465,-0.465l-0.2,0c-0.256,0 -0.465,0.209 -0.465,0.465l0,21.276c0,0.257 0.209,0.465 0.465,0.465l0.2,0c0.257,0 0.465,-0.208 0.465,-0.465l0,-21.276Z" style="fill:#d6a57d;fill-opacity:0;"/><path d="M25.577,4.591c-0,-0.372 -0.302,-0.675 -0.675,-0.675l-1.774,0c-0.372,0 -0.675,0.303 -0.675,0.675l0,20.856c0,0.373 0.303,0.675 0.675,0.675l1.774,0c0.373,0 0.675,-0.302 0.675,-0.675l-0,-20.856Z" style="fill:#d6a57d;fill-opacity:0;"/><path d="M27.586,4.419c0,-0.277 -0.225,-0.502 -0.502,-0.502l-0.125,-0c-0.277,-0 -0.503,0.225 -0.503,0.502l0,21.2c0,0.278 0.226,0.503 0.503,0.503l0.125,-0c0.277,-0 0.502,-0.225 0.502,-0.503l0,-21.2Z" style="fill:#d6a57d;fill-opacity:0;"/><path d="M5.864,12.247c0.479,0.006 0.89,0.156 1.236,0.451c0.418,0.346 0.647,0.797 0.686,1.353c0.038,0.537 -0.12,0.99 -0.473,1.361c-0.077,0.082 -0.12,0.167 -0.129,0.253c0.007,0.268 0.007,0.537 0,0.806c-0.005,0.23 -0.065,0.449 -0.179,0.657c-0.113,0.198 -0.269,0.355 -0.47,0.469c-0.235,0.137 -0.493,0.192 -0.773,0.165c-0.38,-0.03 -0.685,-0.2 -0.913,-0.51c-0.192,-0.259 -0.279,-0.573 -0.261,-0.942c0.005,-0.183 0.001,-0.414 -0.014,-0.694c0.001,-0.047 -0.015,-0.089 -0.048,-0.124c-0.314,-0.328 -0.494,-0.711 -0.539,-1.147c-0.044,-0.421 0.044,-0.812 0.264,-1.174c0.146,-0.246 0.336,-0.446 0.572,-0.601c0.314,-0.216 0.661,-0.324 1.041,-0.323Zm0.634,1.097c-0.181,-0.147 -0.397,-0.22 -0.648,-0.217c-0.236,0.001 -0.445,0.081 -0.628,0.238c-0.25,0.217 -0.372,0.488 -0.366,0.815c0.002,0.242 0.08,0.452 0.234,0.63c0.086,0.099 0.174,0.184 0.263,0.253c0.016,0.012 0.029,0.027 0.038,0.044c0.049,0.103 0.07,0.235 0.063,0.396c-0.018,0.399 -0.014,0.732 0.011,1.001c0.007,0.118 0.056,0.213 0.15,0.285c0.13,0.1 0.266,0.125 0.407,0.075c0.173,-0.055 0.267,-0.176 0.282,-0.363c0.03,-0.347 0.03,-0.694 0,-1.042c-0.006,-0.207 0.064,-0.372 0.209,-0.495c0.215,-0.176 0.341,-0.387 0.378,-0.634c0.06,-0.401 -0.071,-0.729 -0.393,-0.986Z" style="fill:#d6a57d;fill-rule:nonzero;"/><path d="M7.551,20.238c-0,-0.307 -0.249,-0.555 -0.555,-0.555l-2.014,-0c-0.306,-0 -0.555,0.248 -0.555,0.555l0,5.329c0,0.307 0.249,0.555 0.555,0.555l2.014,0c0.306,0 0.555,-0.248 0.555,-0.555l-0,-5.329Z" style="fill:#d6a57d;fill-opacity:0;"/><path d="M9.56,19.997c-0,-0.174 -0.141,-0.315 -0.315,-0.315l-0.499,0c-0.174,0 -0.315,0.141 -0.315,0.315l0,5.81c0,0.174 0.141,0.315 0.315,0.315l0.499,-0c0.174,-0 0.315,-0.141 0.315,-0.315l-0,-5.81Z" style="fill:#d6a57d;fill-opacity:0;"/></g></svg>