<?xml version="1.0" encoding="UTF-8" standalone="no"?><!DOCTYPE svg PUBLIC "-//W3C//DTD SVG 1.1//EN" "http://www.w3.org/Graphics/SVG/1.1/DTD/svg11.dtd"><svg width="100%" height="100%" viewBox="0 0 30 31" version="1.1" xmlns="http://www.w3.org/2000/svg" xmlns:xlink="http://www.w3.org/1999/xlink" xml:space="preserve" xmlns:serif="http://www.serif.com/" style="fill-rule:evenodd;clip-rule:evenodd;stroke-linejoin:round;stroke-miterlimit:2;"><g><path d="M0.941,-0c9.351,0.003 18.714,0.003 28.087,-0c0.346,-0 0.611,0.133 0.795,0.4c0.133,0.194 0.191,0.422 0.174,0.683c-0.019,6.555 -0.019,13.111 0,19.667c0.001,0.341 -0.129,0.604 -0.391,0.788c-0.202,0.139 -0.432,0.2 -0.691,0.182c-2.079,-0.018 -4.15,-0.016 -6.214,0.004c-0.033,-0 -0.043,0.014 -0.03,0.044c0.791,1.83 1.586,3.639 2.385,5.426c0.113,0.254 0.214,0.497 0.303,0.731c0.094,0.301 0.094,0.602 0,0.905c-0.091,0.296 -0.251,0.545 -0.481,0.748c-0.325,0.301 -0.718,0.439 -1.179,0.412c-0.353,-0.021 -0.66,-0.145 -0.922,-0.372c-0.209,-0.171 -0.362,-0.369 -0.456,-0.594c-1.047,-2.402 -2.09,-4.806 -3.131,-7.211c-0.027,-0.062 -0.074,-0.093 -0.141,-0.093c-1.702,-0.006 -3.381,-0.002 -5.038,0.011c-0.022,0.001 -0.033,0.012 -0.035,0.033c-0.013,0.251 -0.016,0.536 -0.009,0.856c0.001,0.048 0.025,0.076 0.073,0.085c0.372,0.075 0.699,0.268 0.98,0.578c0.329,0.351 0.494,0.783 0.497,1.297c0.018,1.627 0.018,3.254 0,4.881c-0.001,0.145 -0.051,0.267 -0.149,0.367c-0.095,0.106 -0.212,0.161 -0.351,0.166c-4.138,0.017 -8.275,0.017 -12.412,-0c-0.211,-0.001 -0.37,-0.097 -0.477,-0.288c-0.037,-0.066 -0.056,-0.137 -0.056,-0.213c-0.011,-1.654 -0.011,-3.308 -0,-4.961c0.004,-0.581 0.234,-1.062 0.691,-1.443c0.242,-0.207 0.515,-0.339 0.818,-0.396c0.028,-0.006 0.042,-0.024 0.042,-0.052c0.003,-0.322 0.001,-0.615 -0.004,-0.879c0,-0.028 -0.014,-0.042 -0.043,-0.042c-0.863,-0.012 -1.703,-0.012 -2.522,-0c-0.231,0.003 -0.434,-0.047 -0.61,-0.15c-0.29,-0.175 -0.435,-0.422 -0.437,-0.743c-0.008,-6.512 -0.009,-13.088 -0.004,-19.728c0,-0.22 0.037,-0.415 0.11,-0.586c0.162,-0.308 0.417,-0.478 0.763,-0.51c0.022,-0.002 0.043,-0.003 0.065,-0.003Zm8.286,9.316c0.943,0.091 1.818,0.427 2.626,1.007c0.39,0.259 0.748,0.606 1.075,1.042c0.708,0.943 1.054,2.02 1.038,3.228c-0.002,0.969 -0.003,1.952 -0.004,2.951c-0,0.026 0.012,0.039 0.038,0.039l14.915,-0c0.032,-0 0.048,-0.017 0.048,-0.049l0,-16.451c0,-0.033 -0.016,-0.049 -0.048,-0.049l-27.829,0c-0.032,0 -0.048,0.016 -0.048,0.049l-0,16.451c-0,0.032 0.016,0.049 0.048,0.049l2.489,-0c0.032,-0 0.048,-0.017 0.048,-0.049c0.006,-0.991 0.006,-1.982 0,-2.973c-0.006,-0.945 0.222,-1.828 0.683,-2.647c0.458,-0.823 1.099,-1.464 1.923,-1.923c0.916,-0.51 1.894,-0.736 2.934,-0.68c0.021,0.001 0.042,0.002 0.064,0.005Zm2.416,2.122c-0.355,-0.322 -0.766,-0.579 -1.232,-0.772c-0.496,-0.206 -1.023,-0.312 -1.58,-0.319c-0.024,-0 -0.036,0.012 -0.036,0.036c-0.013,0.873 -0.013,1.738 -0,2.594c0.007,0.475 0.207,0.845 0.602,1.111c0.26,0.181 0.544,0.304 0.853,0.369c0.021,0.004 0.042,0.007 0.064,0.007c0.793,0.019 1.648,0.024 2.565,0.015c0.033,-0.001 0.049,-0.018 0.049,-0.05c-0.004,-0.282 -0.035,-0.566 -0.093,-0.854c-0.174,-0.852 -0.571,-1.565 -1.192,-2.137Zm-5.89,0.21c-0.342,0.355 -0.609,0.772 -0.801,1.252c-0.195,0.49 -0.292,1.003 -0.29,1.54c-0,0.027 0.013,0.04 0.039,0.04c0.526,0.005 1.04,0.005 1.54,-0c0.574,-0.006 1.033,-0.215 1.378,-0.627c0.164,-0.193 0.219,-0.388 0.166,-0.587c-0.006,-0.02 -0.009,-0.041 -0.009,-0.063c-0.018,-0.863 -0.023,-1.742 -0.016,-2.634c0.001,-0.065 -0.033,-0.088 -0.1,-0.069c-0.745,0.21 -1.38,0.592 -1.907,1.148Zm3.029,3.345c-0.162,-0.118 -0.295,-0.246 -0.399,-0.385c-0.03,-0.037 -0.061,-0.037 -0.092,-0c-0.302,0.37 -0.711,0.635 -1.225,0.793c-0.271,0.078 -0.573,0.116 -0.905,0.113c-0.485,-0.005 -0.97,-0.005 -1.455,0c-0.032,0 -0.048,0.016 -0.048,0.049c0.002,0.533 0.002,1.056 -0,1.567c-0.004,0.901 0.229,1.703 0.698,2.404c0.29,0.426 0.645,0.771 1.067,1.034c0.876,0.548 1.844,0.765 2.905,0.651c0.734,-0.08 1.401,-0.334 2,-0.764c0.424,-0.299 0.763,-0.671 1.018,-1.115c0.391,-0.683 0.587,-1.436 0.586,-2.258c0.002,-0.517 0,-1.021 -0.004,-1.514c-0,-0.037 -0.019,-0.055 -0.056,-0.055c-0.977,0.008 -1.899,0.004 -2.768,-0.014c-0.022,-0.001 -0.043,-0.002 -0.065,-0.005c-0.452,-0.053 -0.871,-0.22 -1.257,-0.501Zm-5.203,3.636c-0.79,-0.014 -1.594,-0.018 -2.413,-0.012c-0.085,0 -0.128,0.043 -0.128,0.129l-0,1.81c-0,0.086 0.043,0.129 0.129,0.129l2.327,0c0.085,0 0.129,-0.042 0.129,-0.128c0.006,-0.646 0.003,-1.278 -0.011,-1.896c-0.001,-0.021 -0.012,-0.032 -0.033,-0.032Zm10.383,2.011c-0,0.03 0.015,0.045 0.045,0.045l14.909,0c0.029,0 0.043,-0.014 0.043,-0.042c0.005,-0.63 0.006,-1.29 0.004,-1.98c-0,-0.028 -0.015,-0.042 -0.043,-0.042c-4.896,-0.005 -9.865,-0.006 -14.907,-0.004c-0.029,-0 -0.043,0.014 -0.043,0.043c-0.003,0.639 -0.005,1.299 -0.008,1.98Zm-3.547,2.005c0.823,-0.007 1.641,-0.007 2.457,-0c0.029,0 0.044,-0.014 0.044,-0.044c-0.003,-0.791 -0.001,-1.589 0.004,-2.393c0,-0.03 -0.01,-0.034 -0.031,-0.013c-0.242,0.241 -0.49,0.481 -0.745,0.721c-0.54,0.506 -1.123,0.86 -1.749,1.062c-0.033,0.011 -0.049,0.033 -0.049,0.067l0,0.531c0,0.046 0.023,0.069 0.069,0.069Zm-3.265,-0.671c-0.959,-0.343 -1.776,-0.924 -2.45,-1.744c-0.026,-0.032 -0.038,-0.027 -0.038,0.013c-0.005,0.748 -0.007,1.51 -0.004,2.285c0,0.086 0.043,0.129 0.129,0.129l2.327,0c0.086,0 0.129,-0.043 0.129,-0.129l0,-0.422c0,-0.066 -0.031,-0.11 -0.093,-0.132Zm16.315,6.86c0.145,0.115 0.309,0.148 0.492,0.097c0.126,-0.028 0.232,-0.1 0.319,-0.214c0.14,-0.179 0.161,-0.378 0.065,-0.598c-0.931,-2.126 -1.864,-4.244 -2.8,-6.354c-0.014,-0.03 -0.037,-0.045 -0.069,-0.045c-0.43,-0.002 -0.806,-0.001 -1.128,0.004c-0.039,0 -0.051,0.018 -0.036,0.054c0.989,2.258 1.96,4.497 2.914,6.717c0.06,0.145 0.14,0.259 0.243,0.339Zm-15.142,-6.606c-0.027,-0.001 -0.041,0.012 -0.042,0.039c-0.009,0.233 -0.01,0.492 -0.003,0.778c0.003,0.158 -0.03,0.296 -0.101,0.416c-0.019,0.029 -0.016,0.056 0.008,0.081c0.198,0.202 0.39,0.391 0.575,0.568c0.031,0.029 0.06,0.028 0.088,-0.002c0.198,-0.216 0.381,-0.396 0.55,-0.542c0.034,-0.029 0.039,-0.063 0.017,-0.102c-0.081,-0.148 -0.115,-0.326 -0.103,-0.532c0.013,-0.242 0.01,-0.469 -0.009,-0.683c-0.002,-0.021 -0.014,-0.032 -0.036,-0.03c-0.292,0.017 -0.607,0.02 -0.944,0.009Zm-2.538,4.99c0.207,0.044 0.34,0.162 0.398,0.353c0.007,0.021 0.011,0.042 0.012,0.063c0.017,0.315 0.021,0.735 0.012,1.263c-0,0.039 0.019,0.059 0.058,0.059c0.621,0.004 1.254,0.006 1.899,0.004c0.076,-0.001 0.114,-0.039 0.114,-0.114l-0,-3.722c-0,-0.029 -0.011,-0.053 -0.031,-0.073c-0.43,-0.398 -0.852,-0.818 -1.266,-1.259c-0.084,-0.078 -0.19,-0.117 -0.319,-0.117c-0.952,0.003 -1.89,0.008 -2.812,0.016c-0.022,0 -0.043,0.003 -0.064,0.008c-0.184,0.041 -0.339,0.137 -0.466,0.287c-0.143,0.174 -0.214,0.378 -0.214,0.61c0.004,1.422 0.004,2.858 0,4.307c0,0.038 0.019,0.057 0.056,0.057l1.957,-0c0.037,-0 0.056,-0.019 0.056,-0.057c-0.008,-0.382 -0.008,-0.773 -0,-1.172c0.004,-0.216 0.097,-0.371 0.278,-0.464c0.101,-0.058 0.212,-0.074 0.332,-0.049Zm6.206,0c0.207,0.037 0.34,0.155 0.398,0.353c0.006,0.021 0.01,0.042 0.011,0.063c0.017,0.315 0.021,0.735 0.013,1.263c-0.001,0.039 0.019,0.059 0.058,0.059c0.626,0.004 1.278,0.006 1.957,0.004c0.037,-0 0.055,-0.019 0.055,-0.057c-0.003,-1.358 -0.003,-2.723 0,-4.097c0.007,-0.138 0.002,-0.273 -0.016,-0.404c-0.036,-0.268 -0.177,-0.472 -0.424,-0.61c-0.154,-0.08 -0.336,-0.119 -0.546,-0.117c-0.894,0.009 -1.787,0.009 -2.678,0c-0.052,0 -0.096,0.018 -0.132,0.055c-0.452,0.456 -0.899,0.9 -1.34,1.332c-0.023,0.023 -0.035,0.051 -0.035,0.084l-0,3.749c-0,0.043 0.021,0.065 0.065,0.065l1.939,-0c0.043,-0 0.064,-0.022 0.064,-0.065c0.009,-0.345 0.009,-0.69 0,-1.034c-0.011,-0.165 0.02,-0.307 0.093,-0.424c0.119,-0.19 0.291,-0.262 0.518,-0.219Z" style="fill:#d6a57d;fill-rule:nonzero;"/><path d="M25.856,4.654c-0,-0.285 -0.232,-0.516 -0.517,-0.516l-7.75,-0c-0.285,-0 -0.517,0.231 -0.517,0.516c0,0.285 0.232,0.517 0.517,0.517l7.75,-0c0.285,-0 0.517,-0.232 0.517,-0.517Z" style="fill:#d6a57d;"/><path d="M25.856,9.567c-0,-0.285 -0.232,-0.516 -0.517,-0.516l-7.75,-0c-0.285,-0 -0.517,0.231 -0.517,0.516c0,0.285 0.232,0.517 0.517,0.517l7.75,-0c0.285,-0 0.517,-0.232 0.517,-0.517Z" style="fill:#d6a57d;"/><path d="M25.856,14.48c-0,-0.285 -0.232,-0.517 -0.517,-0.517l-7.75,0c-0.285,0 -0.517,0.232 -0.517,0.517c0,0.285 0.232,0.516 0.517,0.516l7.75,0c0.285,0 0.517,-0.231 0.517,-0.516Z" style="fill:#d6a57d;"/></g></svg>