<?xml version="1.0" encoding="UTF-8" standalone="no"?><!DOCTYPE svg PUBLIC "-//W3C//DTD SVG 1.1//EN" "http://www.w3.org/Graphics/SVG/1.1/DTD/svg11.dtd"><svg width="100%" height="100%" viewBox="0 0 27 27" version="1.1" xmlns="http://www.w3.org/2000/svg" xmlns:xlink="http://www.w3.org/1999/xlink" xml:space="preserve" xmlns:serif="http://www.serif.com/" style="fill-rule:evenodd;clip-rule:evenodd;stroke-linejoin:round;stroke-miterlimit:2;"><path d="M10.887,7.138c-0.774,0.033 -1.306,0.131 -1.754,0.324c-0.419,0.181 -0.667,0.347 -0.976,0.653c-0.419,0.416 -0.68,0.883 -0.844,1.51c-0.145,0.553 -0.177,1.189 -0.177,3.495c-0.001,2.268 0.03,2.912 0.166,3.465c0.338,1.378 1.347,2.255 2.831,2.458c0.426,0.058 1.318,0.082 3.02,0.082c1.583,-0 2.495,-0.023 2.906,-0.071c0.84,-0.1 1.498,-0.39 2.015,-0.887c0.585,-0.563 0.894,-1.237 1.007,-2.197c0.045,-0.375 0.044,-5.382 -0,-5.735c-0.09,-0.718 -0.306,-1.309 -0.642,-1.762c-0.168,-0.225 -0.523,-0.566 -0.747,-0.717c-0.505,-0.341 -1.111,-0.53 -1.912,-0.596c-0.377,-0.032 -4.253,-0.048 -4.893,-0.022Zm5.075,1.133c0.668,0.099 1.043,0.266 1.404,0.625c0.234,0.233 0.365,0.44 0.479,0.758c0.193,0.541 0.21,0.827 0.21,3.478c0,1.527 -0.008,2.261 -0.029,2.508c-0.068,0.814 -0.23,1.253 -0.612,1.659c-0.394,0.421 -0.89,0.631 -1.657,0.702c-0.415,0.038 -3.847,0.056 -4.637,0.025c-0.357,-0.014 -0.731,-0.038 -0.831,-0.051c-0.444,-0.062 -0.874,-0.219 -1.14,-0.415c-0.168,-0.124 -0.434,-0.413 -0.534,-0.579c-0.196,-0.327 -0.314,-0.789 -0.353,-1.376c-0.071,-1.065 -0.048,-4.721 0.033,-5.325c0.084,-0.628 0.278,-1.049 0.646,-1.406c0.405,-0.392 0.935,-0.583 1.756,-0.633c0.177,-0.01 1.377,-0.016 2.667,-0.013c2.001,0.005 2.383,0.011 2.598,0.043Zm0.07,1.003c-0.266,0.133 -0.391,0.338 -0.392,0.644c-0.001,0.221 0.052,0.352 0.202,0.501c0.149,0.15 0.28,0.203 0.501,0.203c0.158,-0 0.209,-0.011 0.321,-0.066c0.238,-0.116 0.372,-0.321 0.39,-0.594c0.016,-0.241 -0.037,-0.383 -0.204,-0.55c-0.156,-0.155 -0.29,-0.21 -0.519,-0.21c-0.127,0 -0.183,0.014 -0.299,0.072Zm-3.441,0.811c-0.616,0.111 -1.162,0.401 -1.623,0.862c-0.609,0.609 -0.904,1.318 -0.904,2.173c0,0.515 0.097,0.94 0.312,1.367c0.656,1.304 2.101,1.973 3.507,1.623c0.552,-0.137 0.981,-0.376 1.395,-0.777c0.373,-0.362 0.624,-0.756 0.782,-1.228c0.113,-0.339 0.154,-0.603 0.154,-0.985c0,-0.38 -0.041,-0.646 -0.152,-0.977c-0.151,-0.452 -0.369,-0.809 -0.709,-1.16c-0.463,-0.479 -1.043,-0.789 -1.681,-0.9c-0.261,-0.045 -0.825,-0.044 -1.081,0.002Zm0.929,1.074c1.076,0.207 1.789,1.262 1.582,2.343c-0.126,0.655 -0.607,1.237 -1.222,1.474c-0.3,0.116 -0.474,0.144 -0.821,0.132c-0.246,-0.009 -0.343,-0.024 -0.504,-0.075c-0.712,-0.227 -1.229,-0.8 -1.376,-1.524c-0.057,-0.278 -0.035,-0.712 0.049,-0.975c0.223,-0.699 0.811,-1.233 1.512,-1.373c0.209,-0.041 0.57,-0.042 0.78,-0.002Z" style="fill:#fff;"/><path d="M13.125,0c7.244,0 13.125,5.881 13.125,13.125c-0,7.244 -5.881,13.125 -13.125,13.125c-7.244,0 -13.125,-5.881 -13.125,-13.125c-0,-7.244 5.881,-13.125 13.125,-13.125Zm-0,1.5c6.416,0 11.625,5.209 11.625,11.625c-0,6.416 -5.209,11.625 -11.625,11.625c-6.416,0 -11.625,-5.209 -11.625,-11.625c-0,-6.416 5.209,-11.625 11.625,-11.625Z" style="fill:#fff;"/></svg>