<?xml version="1.0" encoding="UTF-8" standalone="no"?><!DOCTYPE svg PUBLIC "-//W3C//DTD SVG 1.1//EN" "http://www.w3.org/Graphics/SVG/1.1/DTD/svg11.dtd"><svg width="100%" height="100%" viewBox="0 0 39 39" version="1.1" xmlns="http://www.w3.org/2000/svg" xmlns:xlink="http://www.w3.org/1999/xlink" xml:space="preserve" xmlns:serif="http://www.serif.com/" style="fill-rule:evenodd;clip-rule:evenodd;stroke-linejoin:round;stroke-miterlimit:2;"><circle cx="19.492" cy="19.492" r="19.492" style="fill:#d6a57d;"/><path d="M24.425,19.384c-0.055,-1.345 -0.55,-2.484 -1.483,-3.417c-0.933,-0.933 -2.072,-1.428 -3.417,-1.483l0,-1c0.8,0.022 1.553,0.191 2.259,0.508c0.705,0.317 1.325,0.742 1.858,1.275c0.533,0.533 0.958,1.153 1.275,1.858c0.317,0.706 0.486,1.459 0.508,2.259l-1,-0Zm-2.816,-0c-0.056,-0.556 -0.278,-1.025 -0.667,-1.409c-0.389,-0.383 -0.861,-0.602 -1.417,-0.658l0,-1c0.834,0.056 1.542,0.372 2.125,0.95c0.584,0.578 0.903,1.283 0.959,2.117l-1,-0Zm3.133,6.116c-1.356,0 -2.703,-0.333 -4.042,-1c-1.339,-0.666 -2.541,-1.533 -3.608,-2.6c-1.067,-1.066 -1.933,-2.269 -2.6,-3.608c-0.667,-1.339 -1,-2.686 -1,-4.042c-0,-0.211 0.072,-0.389 0.217,-0.533c0.144,-0.144 0.322,-0.217 0.533,-0.217l2.333,0c0.156,0 0.292,0.053 0.409,0.159c0.116,0.105 0.191,0.247 0.225,0.425l0.45,2.1c0.022,0.155 0.019,0.297 -0.009,0.425c-0.027,0.127 -0.086,0.236 -0.175,0.325l-1.666,1.683c0.622,1.033 1.319,1.933 2.091,2.7c0.773,0.767 1.648,1.417 2.625,1.95l1.584,-1.633c0.111,-0.123 0.239,-0.209 0.383,-0.259c0.144,-0.05 0.289,-0.058 0.433,-0.025l1.984,0.434c0.166,0.033 0.305,0.116 0.416,0.25c0.111,0.133 0.167,0.289 0.167,0.466l-0,2.25c-0,0.211 -0.072,0.389 -0.217,0.534c-0.144,0.144 -0.322,0.216 -0.533,0.216Zm-9.433,-7.8l1.35,-1.366l-0.384,-1.834l-1.783,0c-0,0.434 0.067,0.909 0.2,1.425c0.133,0.517 0.339,1.109 0.617,1.775Zm6.15,6.05c0.455,0.211 0.95,0.384 1.483,0.517c0.533,0.133 1.05,0.211 1.55,0.233l-0,-1.783l-1.717,-0.35l-1.316,1.383Z" style="fill:#fff;fill-rule:nonzero;"/></svg>