<?xml version="1.0" encoding="UTF-8" standalone="no"?><!DOCTYPE svg PUBLIC "-//W3C//DTD SVG 1.1//EN" "http://www.w3.org/Graphics/SVG/1.1/DTD/svg11.dtd"><svg width="100%" height="100%" viewBox="0 0 30 30" version="1.1" xmlns="http://www.w3.org/2000/svg" xmlns:xlink="http://www.w3.org/1999/xlink" xml:space="preserve" xmlns:serif="http://www.serif.com/" style="fill-rule:evenodd;clip-rule:evenodd;stroke-linejoin:round;stroke-miterlimit:2;"><g><path d="M14.519,0c0.421,-0 0.819,0.115 1.195,0.346c0.435,0.261 0.769,0.607 1,1.039c0.232,0.433 0.298,0.894 0.198,1.381c-0.186,0.906 -0.502,1.748 -0.949,2.525c-0.01,0.019 -0.017,0.038 -0.021,0.058c-0.01,0.057 -0.012,0.152 -0.006,0.285c0.033,0.791 -0.174,1.503 -0.619,2.136c-0.282,0.399 -0.632,0.718 -1.05,0.957c-0.66,0.394 -1.375,0.53 -2.144,0.408c-0.654,-0.103 -1.216,-0.367 -1.685,-0.79c-0.167,-0.144 -0.336,-0.322 -0.506,-0.536c-0.486,-0.64 -0.7,-1.365 -0.642,-2.175c0.01,-0.143 -0.002,-0.261 -0.035,-0.354c-0.289,-0.509 -0.459,-1.05 -0.51,-1.623c-0.034,-0.387 -0.007,-0.764 0.082,-1.132c0.068,-0.298 0.228,-0.573 0.482,-0.825c0.202,-0.205 0.422,-0.368 0.662,-0.49c0.601,-0.3 1.254,-0.456 1.961,-0.467c0.306,-0.005 0.65,0.022 1.031,0.082c0.054,0.01 0.095,-0.008 0.123,-0.055c0.064,-0.1 0.146,-0.197 0.247,-0.291c0.334,-0.319 0.73,-0.479 1.186,-0.479Zm-1.35,1.77c-0.713,-0.147 -1.373,-0.161 -1.98,-0.043c-0.26,0.059 -0.505,0.151 -0.735,0.277c-0.224,0.118 -0.411,0.274 -0.561,0.467c-0.081,0.093 -0.13,0.199 -0.148,0.319c-0.067,0.449 -0.056,0.877 0.033,1.283c0.014,0.069 0.034,0.071 0.059,0.005c0.031,-0.128 0.093,-0.262 0.188,-0.401c0.135,-0.197 0.311,-0.311 0.529,-0.343c0.134,-0.014 0.293,-0.021 0.479,-0.019c1.074,0.011 2.148,0.011 3.222,-0c0.26,-0.013 0.469,0.064 0.626,0.23c0.184,0.193 0.352,0.417 0.505,0.669c0.022,0.032 0.041,0.03 0.057,-0.005c0.286,-0.608 0.485,-1.228 0.596,-1.86c0.004,-0.02 0.005,-0.04 0.005,-0.061c-0.017,-0.355 -0.187,-0.683 -0.509,-0.984c-0.366,-0.343 -0.746,-0.482 -1.14,-0.417c-0.286,0.052 -0.505,0.253 -0.658,0.603c-0.11,0.242 -0.3,0.336 -0.568,0.28Zm1.012,2.491c-1.077,-0.014 -2.179,-0.018 -3.307,-0.012c-0.061,0 -0.106,0.028 -0.134,0.083c-0.167,0.329 -0.333,0.646 -0.497,0.951c-0.01,0.019 -0.016,0.038 -0.016,0.059c-0.006,0.153 -0.007,0.333 -0.003,0.541c0.013,0.675 0.268,1.245 0.766,1.708c0.438,0.414 0.956,0.628 1.553,0.642c0.657,0.016 1.227,-0.204 1.708,-0.658c0.499,-0.471 0.748,-1.039 0.747,-1.704c0,-0.015 -0.005,-0.026 -0.015,-0.034c-0.016,-0.014 -0.024,-0.031 -0.024,-0.051c-0.003,-0.143 -0.005,-0.286 -0.008,-0.429c0,-0.02 -0.006,-0.039 -0.018,-0.056c-0.236,-0.337 -0.468,-0.674 -0.698,-1.011c-0.013,-0.019 -0.031,-0.029 -0.054,-0.029Z" style="fill:#d6a57d;fill-rule:nonzero;"/><path d="M25.102,4.778c0.12,0.023 0.235,0.099 0.346,0.23c0.838,0.815 1.665,1.642 2.483,2.482c0.099,0.101 0.13,0.218 0.093,0.35c-0.041,0.227 -0.174,0.358 -0.401,0.393c-0.191,0.029 -0.363,-0.063 -0.517,-0.277c-0.029,-0.037 -0.061,-0.039 -0.095,-0.006c-0.352,0.348 -0.687,0.686 -1.005,1.012c-0.02,0.022 -0.02,0.043 0,0.064c1.243,1.326 2.489,2.633 3.738,3.919c0.096,0.099 0.162,0.199 0.198,0.299c0.031,0.151 -0.001,0.279 -0.097,0.385c-0.093,0.104 -0.196,0.162 -0.307,0.175c-0.164,0.006 -0.316,-0.065 -0.455,-0.214c-1.229,-1.302 -2.457,-2.589 -3.685,-3.861c-0.023,-0.025 -0.046,-0.026 -0.071,-0.002c-0.373,0.37 -0.726,0.725 -1.059,1.067c-0.015,0.015 -0.014,0.029 0.002,0.042c0.15,0.12 0.245,0.26 0.284,0.42c0.042,0.177 -0.02,0.325 -0.187,0.444c-0.176,0.133 -0.348,0.14 -0.516,0.021c-0.017,-0.012 -0.033,-0.025 -0.047,-0.039c-0.806,-0.825 -1.629,-1.646 -2.472,-2.465c-0.099,-0.097 -0.171,-0.191 -0.214,-0.284c-0.057,-0.211 0.009,-0.383 0.199,-0.517c0.123,-0.088 0.26,-0.103 0.412,-0.047c0.104,0.041 0.192,0.107 0.263,0.199c0.028,0.032 0.057,0.033 0.087,0.003c0.908,-0.908 1.824,-1.823 2.747,-2.747c0.055,-0.055 0.052,-0.107 -0.008,-0.155c-0.136,-0.1 -0.217,-0.212 -0.241,-0.335c-0.025,-0.161 0.017,-0.298 0.124,-0.412c0.112,-0.119 0.246,-0.167 0.401,-0.144Zm1.264,2.499c0.013,-0.012 0.013,-0.033 0,-0.045l-0.75,-0.751c-0.013,-0.012 -0.033,-0.012 -0.045,0l-2.811,2.811c-0.013,0.012 -0.013,0.033 -0,0.045l0.751,0.751c0.012,0.012 0.032,0.012 0.044,-0l2.811,-2.811Z" style="fill:#d6a57d;fill-rule:nonzero;"/><path d="M26.118,7.525c0.15,-0.149 0.15,-0.392 0,-0.541l-0.254,-0.255c-0.15,-0.149 -0.392,-0.149 -0.541,0l-2.315,2.315c-0.15,0.149 -0.15,0.392 -0,0.541l0.255,0.255c0.149,0.149 0.391,0.149 0.54,-0l2.315,-2.315Z" style="fill:#d6a57d;fill-opacity:0;"/><path d="M5.524,6.863c0.391,0.072 0.706,0.265 0.946,0.58c0.19,0.247 0.295,0.515 0.315,0.805c0.027,0.259 -0.005,0.507 -0.098,0.744c-0.126,0.341 -0.349,0.605 -0.669,0.793c-0.435,0.256 -0.914,0.293 -1.437,0.11c-0.024,-0.008 -0.046,-0.004 -0.065,0.014c-0.512,0.485 -1.036,0.965 -1.572,1.44c-0.193,0.172 -0.308,0.367 -0.346,0.588c-0.019,0.14 -0.024,0.312 -0.015,0.513c0.004,1.36 0.004,2.74 -0,4.142c-0,0.027 0.013,0.041 0.041,0.041c1.021,0.005 2.05,0.006 3.087,0.004c0.041,-0 0.062,-0.021 0.062,-0.062c-0.012,-1.183 -0.012,-2.366 -0,-3.549c0.008,-0.78 0.271,-1.477 0.79,-2.089c0.321,-0.389 0.702,-0.687 1.143,-0.895c0.392,-0.191 0.807,-0.305 1.246,-0.34c0.02,-0.002 0.041,-0.003 0.062,-0.003c2.4,-0.013 4.811,-0.014 7.233,-0.003c0.663,0.003 1.279,0.201 1.848,0.595c0.402,0.272 0.729,0.614 0.981,1.027c0.354,0.558 0.526,1.174 0.517,1.848c-0.006,0.457 -0.006,0.914 -0,1.37c0.004,0.162 -0.012,0.306 -0.051,0.432c-0.046,0.116 -0.139,0.193 -0.28,0.233c-0.101,0.03 -0.208,0.025 -0.319,-0.015c-0.191,-0.069 -0.285,-0.218 -0.284,-0.448c0.02,-0.632 0.015,-1.26 -0.016,-1.883c-0.016,-0.326 -0.114,-0.637 -0.295,-0.934c-0.206,-0.374 -0.487,-0.673 -0.844,-0.899c-0.368,-0.242 -0.773,-0.372 -1.214,-0.389c-0.413,-0.015 -0.843,-0.016 -1.29,-0.003c-0.032,-0 -0.054,0.015 -0.065,0.044c-0.276,0.71 -0.557,1.441 -0.843,2.194c-0.016,0.042 -0.02,0.086 -0.012,0.131c0.21,1.205 0.422,2.403 0.635,3.593c0.005,0.03 0.023,0.045 0.053,0.045l5.539,-0c0.026,-0 0.038,-0.013 0.037,-0.038c-0.016,-0.483 -0.013,-0.953 0.011,-1.41c0.012,-0.22 0.086,-0.427 0.222,-0.618c0.278,-0.407 0.666,-0.611 1.164,-0.611c1.348,-0.008 2.697,-0.008 4.046,-0c0.28,0.002 0.535,0.085 0.762,0.249c0.2,0.137 0.349,0.309 0.448,0.517c0.109,0.258 0.157,0.547 0.144,0.868c-0.014,0.337 -0.014,0.664 -0,0.982c-0,0.041 0.02,0.061 0.06,0.061c0.795,0.009 1.569,0.009 2.321,-0c0.131,-0.002 0.244,0.051 0.339,0.159c0.119,0.137 0.162,0.307 0.128,0.51c-0.034,0.205 -0.153,0.319 -0.358,0.342c-0.283,0.037 -0.641,0.042 -1.074,0.016c-0.073,-0.001 -0.109,0.034 -0.109,0.107c0.002,0.328 0.002,0.656 0,0.982c-0.001,0.162 -0.037,0.323 -0.109,0.483c-0.138,0.326 -0.367,0.564 -0.685,0.716c-0.111,0.053 -0.221,0.092 -0.328,0.117c-0.02,0.005 -0.04,0.007 -0.061,0.008c-1.137,0.018 -2.302,0.023 -3.493,0.015c-0.067,-0.001 -0.111,0.031 -0.133,0.093c-0.086,0.247 -0.193,0.497 -0.32,0.751c-0.017,0.032 -0.012,0.061 0.013,0.086c0.509,0.518 1.017,1.027 1.525,1.525c0.174,0.17 0.327,0.333 0.459,0.49c0.155,0.185 0.245,0.406 0.269,0.665c0.03,0.447 -0.121,0.834 -0.455,1.164c-0.696,0.69 -1.384,1.377 -2.063,2.062c-0.036,0.036 -0.08,0.08 -0.132,0.132c-0.24,0.266 -0.503,0.434 -0.79,0.502c-0.441,0.105 -0.836,0.032 -1.184,-0.219c-0.018,-0.012 -0.033,-0.025 -0.048,-0.04c-0.646,-0.629 -1.298,-1.275 -1.953,-1.938c-0.046,-0.047 -0.099,-0.055 -0.157,-0.025c-0.263,0.138 -0.512,0.242 -0.748,0.313c-0.033,0.01 -0.05,0.032 -0.05,0.067c-0.008,0.771 -0.008,1.531 0,2.278c0.004,0.286 -0.003,0.534 -0.019,0.743c-0.028,0.244 -0.121,0.462 -0.28,0.654c-0.23,0.289 -0.524,0.465 -0.884,0.527c-0.02,0.004 -0.041,0.006 -0.062,0.006c-1.122,0.002 -2.258,0.007 -3.408,0.015c-0.358,0.003 -0.668,-0.082 -0.93,-0.253c-0.402,-0.279 -0.605,-0.662 -0.611,-1.148c-0.01,-0.928 -0.01,-1.855 0,-2.782c0,-0.029 -0.014,-0.049 -0.041,-0.058c-0.277,-0.097 -0.546,-0.21 -0.808,-0.339c-0.026,-0.013 -0.048,-0.009 -0.068,0.011c-0.683,0.691 -1.341,1.344 -1.974,1.96c-0.015,0.015 -0.031,0.028 -0.048,0.04c-0.185,0.137 -0.383,0.22 -0.593,0.25c-0.464,0.062 -0.865,-0.077 -1.203,-0.416c-0.787,-0.804 -1.581,-1.598 -2.381,-2.381c-0.321,-0.314 -0.46,-0.7 -0.416,-1.156c0.026,-0.235 0.109,-0.443 0.251,-0.624c0.011,-0.017 0.024,-0.033 0.039,-0.047c0.636,-0.654 1.299,-1.322 1.989,-2.004c0.036,-0.036 0.043,-0.077 0.02,-0.122c-0.132,-0.264 -0.242,-0.525 -0.329,-0.785c-0.01,-0.029 -0.03,-0.044 -0.061,-0.044c-1.112,0.009 -2.226,0.009 -3.341,0c-0.274,-0.002 -0.522,-0.086 -0.743,-0.253c-0.345,-0.245 -0.543,-0.576 -0.592,-0.992c-0.002,-0.021 -0.003,-0.041 -0.003,-0.062c0.002,-0.358 0.001,-0.714 -0.004,-1.071c-0,-0.035 -0.018,-0.052 -0.053,-0.052c-0.458,0.015 -0.818,0.011 -1.079,-0.013c-0.121,-0.011 -0.213,-0.065 -0.277,-0.16c-0.092,-0.114 -0.118,-0.257 -0.078,-0.428c0.041,-0.201 0.16,-0.311 0.355,-0.33c0.388,-0.039 0.793,-0.042 1.215,-0.011c0.041,0.001 0.061,-0.019 0.061,-0.059l-0,-4.195c-0,-0.021 -0.001,-0.041 -0.003,-0.062c-0.036,-0.513 0.109,-0.976 0.435,-1.389c0.123,-0.155 0.278,-0.316 0.467,-0.482c0.436,-0.404 0.86,-0.805 1.273,-1.204c0.015,-0.015 0.017,-0.031 0.007,-0.049c-0.198,-0.34 -0.264,-0.698 -0.199,-1.074c0.072,-0.459 0.305,-0.817 0.7,-1.074c0.363,-0.236 0.762,-0.31 1.195,-0.222Zm0.337,1.563c-0,-0.359 -0.296,-0.655 -0.655,-0.655c-0.359,-0 -0.655,0.296 -0.655,0.655c-0,0.359 0.296,0.655 0.655,0.655c0.359,-0 0.655,-0.296 0.655,-0.655Zm5.592,2.246c-0.045,0 -0.059,0.021 -0.041,0.063c0.225,0.552 0.446,1.109 0.66,1.672c0.011,0.029 0.032,0.043 0.062,0.043l1.044,0c0.032,0 0.053,-0.014 0.065,-0.044c0.217,-0.561 0.44,-1.125 0.667,-1.691c0.01,-0.026 0.002,-0.039 -0.026,-0.039c-0.8,0.002 -1.61,0.001 -2.431,-0.004Zm-4.663,6c1.144,-0.001 2.299,-0.002 3.465,-0.004c0.105,-0 0.209,0.005 0.313,0.016c0.045,0.006 0.072,-0.014 0.08,-0.059c0.218,-1.195 0.432,-2.4 0.642,-3.616c0.004,-0.026 0.002,-0.051 -0.008,-0.076c-0.277,-0.722 -0.557,-1.443 -0.84,-2.163c-0.025,-0.062 -0.07,-0.093 -0.137,-0.094c-0.427,-0.018 -0.848,-0.017 -1.26,0.004c-0.599,0.029 -1.113,0.252 -1.541,0.669c-0.449,0.439 -0.71,0.967 -0.782,1.584c-0.012,0.1 -0.005,0.184 0.02,0.251c0.008,0.019 0.011,0.039 0.011,0.06l0,3.392c0,0.024 0.013,0.036 0.037,0.036Zm5.39,-3.324c-0.025,-0.001 -0.04,0.011 -0.045,0.036c-0.199,1.083 -0.397,2.144 -0.594,3.186c-0.008,0.044 0.01,0.066 0.055,0.066c0.708,0.006 1.392,0.002 2.051,-0.012c0.061,-0.001 0.086,-0.032 0.075,-0.092c-0.199,-1.048 -0.395,-2.097 -0.588,-3.147c-0.004,-0.025 -0.02,-0.037 -0.045,-0.037c-0.297,0.007 -0.6,0.007 -0.909,0Zm13.875,1.667c-0.088,-0.081 -0.198,-0.121 -0.33,-0.121c-1.328,-0.005 -2.656,-0.005 -3.984,-0c-0.205,0 -0.344,0.084 -0.417,0.253c-0.032,0.106 -0.044,0.234 -0.035,0.385c0.021,0.355 0.017,0.7 -0.01,1.035c-0.002,0.047 0.02,0.07 0.066,0.07l4.804,-0c0.039,-0 0.058,-0.019 0.058,-0.058l0,-1.156c0,-0.181 -0.051,-0.317 -0.152,-0.408Zm-6.318,6.536c-0.13,-0.13 -0.185,-0.266 -0.163,-0.411c0.009,-0.09 0.044,-0.168 0.105,-0.234c0.721,-0.787 1.206,-1.66 1.455,-2.62c0.06,-0.232 0.12,-0.477 0.179,-0.733c0.008,-0.032 -0.004,-0.047 -0.037,-0.043c-0.132,0.009 -0.288,0.014 -0.469,0.014c-4.025,-0.003 -8.068,-0.004 -12.13,-0.004c-0.031,0 -0.042,0.015 -0.033,0.044c0.035,0.132 0.073,0.29 0.113,0.477c0.194,0.964 0.617,1.839 1.268,2.623c0.782,0.94 1.739,1.596 2.872,1.968c0.535,0.192 1.107,0.305 1.716,0.339c1.247,0.068 2.395,-0.195 3.443,-0.79c0.136,-0.087 0.274,-0.124 0.416,-0.113c0.173,0.009 0.296,0.088 0.37,0.237c0.098,0.199 0.078,0.378 -0.062,0.538c-0.092,0.083 -0.2,0.157 -0.323,0.221c-1.055,0.551 -2.171,0.847 -3.346,0.887c-0.934,0.02 -1.832,-0.131 -2.693,-0.451c-0.901,-0.335 -1.696,-0.811 -2.385,-1.428c-0.727,-0.652 -1.298,-1.425 -1.711,-2.319c-0.272,-0.588 -0.463,-1.206 -0.573,-1.856c-0.014,-0.083 -0.009,-0.172 0.015,-0.264c0.016,-0.06 -0.006,-0.083 -0.067,-0.07c-0.042,0.006 -0.108,0.008 -0.197,0.008c-1.644,-0.005 -3.311,-0.005 -5.001,-0c-0.035,-0 -0.053,0.017 -0.053,0.052c-0.023,0.3 -0.024,0.64 -0.004,1.021c0.01,0.185 0.107,0.311 0.289,0.381c0.062,0.026 0.126,0.04 0.193,0.04c1.121,-0.002 2.232,-0.002 3.331,-0c0.24,0 0.444,0.077 0.611,0.229c0.112,0.094 0.194,0.21 0.245,0.346c0.091,0.242 0.177,0.475 0.258,0.699c0.007,0.019 0.016,0.038 0.027,0.056c0.143,0.244 0.177,0.51 0.101,0.798c-0.057,0.215 -0.184,0.401 -0.381,0.557c-0.016,0.012 -0.031,0.026 -0.046,0.041c-0.564,0.563 -1.135,1.134 -1.714,1.713c-0.121,0.121 -0.169,0.26 -0.143,0.416c0.024,0.105 0.08,0.2 0.167,0.284c0.758,0.736 1.505,1.483 2.241,2.241c0.084,0.103 0.175,0.178 0.272,0.226c0.141,0.069 0.275,0.06 0.401,-0.027c0.072,-0.045 0.16,-0.123 0.265,-0.234c0.556,-0.586 1.121,-1.153 1.693,-1.702c0.015,-0.014 0.029,-0.029 0.042,-0.045c0.204,-0.242 0.461,-0.34 0.771,-0.296c0.02,0.003 0.04,0.008 0.06,0.016c0.313,0.123 0.657,0.253 1.032,0.39c0.193,0.056 0.346,0.157 0.46,0.303c0.155,0.199 0.215,0.436 0.179,0.712c-0.003,0.021 -0.004,0.041 -0.004,0.062c-0.008,0.917 -0.003,1.83 0.015,2.739c0,0.021 0.003,0.041 0.008,0.061c0.062,0.231 0.215,0.346 0.459,0.344c1.095,-0.01 2.19,-0.01 3.284,-0c0.162,0.004 0.29,-0.034 0.385,-0.113c0.109,-0.102 0.162,-0.236 0.16,-0.401c-0.016,-0.985 -0.01,-1.971 0.015,-2.957c0.003,-0.246 0.111,-0.455 0.323,-0.626c0.099,-0.076 0.204,-0.131 0.315,-0.167c0.269,-0.087 0.512,-0.182 0.728,-0.284c0.133,-0.059 0.263,-0.094 0.393,-0.106c0.324,-0.021 0.6,0.087 0.829,0.324c0.63,0.653 1.266,1.284 1.907,1.892c0.015,0.015 0.031,0.027 0.05,0.037c0.174,0.102 0.341,0.093 0.5,-0.028c0.017,-0.012 0.032,-0.026 0.047,-0.041c0.744,-0.756 1.502,-1.514 2.273,-2.273c0.101,-0.085 0.177,-0.176 0.226,-0.272c0.071,-0.138 0.063,-0.273 -0.023,-0.405c-0.065,-0.085 -0.142,-0.173 -0.234,-0.264c-0.58,-0.582 -1.161,-1.163 -1.743,-1.743c-0.208,-0.202 -0.308,-0.434 -0.299,-0.697c0.013,-0.13 0.049,-0.259 0.109,-0.389c0.101,-0.219 0.194,-0.458 0.28,-0.716c0.082,-0.235 0.224,-0.42 0.424,-0.557c0.187,-0.1 0.393,-0.148 0.619,-0.143c1.084,0.02 2.168,0.02 3.252,-0c0.198,-0.002 0.339,-0.091 0.422,-0.267c0.014,-0.03 0.021,-0.061 0.02,-0.094c-0.02,-0.445 -0.029,-0.842 -0.026,-1.192c0,-0.021 -0.01,-0.031 -0.03,-0.031c-1.748,0.001 -3.499,-0.004 -5.253,-0.015c-0.021,-0 -0.03,0.01 -0.028,0.031c0.021,0.163 0.013,0.327 -0.023,0.494c-0.274,1.272 -0.846,2.417 -1.715,3.435c-0.108,0.127 -0.232,0.206 -0.37,0.238c-0.131,0.029 -0.249,-0.009 -0.354,-0.113Z" style="fill:#d6a57d;fill-rule:nonzero;"/><circle cx="5.206" cy="8.426" r="0.655" style="fill:#d6a57d;fill-opacity:0;"/></g></svg>