<?xml version="1.0" encoding="UTF-8" standalone="no"?><!DOCTYPE svg PUBLIC "-//W3C//DTD SVG 1.1//EN" "http://www.w3.org/Graphics/SVG/1.1/DTD/svg11.dtd"><svg width="100%" height="100%" viewBox="0 0 30 30" version="1.1" xmlns="http://www.w3.org/2000/svg" xmlns:xlink="http://www.w3.org/1999/xlink" xml:space="preserve" xmlns:serif="http://www.serif.com/" style="fill-rule:evenodd;clip-rule:evenodd;stroke-linejoin:round;stroke-miterlimit:2;"><g><path d="M10.503,0c1.891,0.008 3.644,0.482 5.259,1.421c0.969,0.552 1.842,1.266 2.618,2.142c0.985,1.113 1.701,2.395 2.146,3.846c0.018,0.057 0.057,0.086 0.117,0.087c0.93,0.016 1.834,0.163 2.71,0.44c1.147,0.363 2.187,0.924 3.12,1.685c0.556,0.45 1.054,0.957 1.494,1.523c0.416,0.522 0.77,1.086 1.063,1.692c0.603,1.248 0.926,2.601 0.97,4.057l0,0.235c-0.009,0.008 -0.013,0.046 -0.015,0.113c-0.039,1.485 -0.404,2.878 -1.095,4.179c-0.365,0.687 -0.812,1.329 -1.34,1.926c-0.945,1.042 -2.051,1.831 -3.318,2.366c-0.739,0.312 -1.515,0.53 -2.327,0.653c-0.069,0.011 -0.132,0.038 -0.188,0.08c-0.319,0.246 -0.67,0.497 -1.052,0.754c-0.874,0.583 -1.797,1.056 -2.768,1.421c-1.194,0.455 -2.453,0.729 -3.776,0.823c-1.079,0.077 -2.158,0.077 -3.237,0c-1.217,-0.079 -2.402,-0.325 -3.556,-0.735c-1.362,-0.5 -2.663,-1.22 -3.904,-2.161c-0.43,-0.327 -0.862,-0.651 -1.296,-0.974c-0.199,-0.156 -0.346,-0.352 -0.44,-0.586c-0.133,-0.315 -0.155,-0.637 -0.066,-0.967c0.074,-0.273 0.215,-0.507 0.425,-0.703c0.537,-0.508 1.08,-1.005 1.63,-1.491c0.772,-0.682 1.588,-1.252 2.449,-1.712c0.059,-0.031 0.058,-0.061 -0.003,-0.089c-1.264,-0.583 -2.374,-1.387 -3.329,-2.414c-0.525,-0.564 -0.981,-1.182 -1.37,-1.853c-0.903,-1.549 -1.373,-3.233 -1.409,-5.05c-0.002,-0.087 -0.007,-0.152 -0.015,-0.194l-0,-0.234c0.01,-0.004 0.015,-0.007 0.015,-0.011c0.012,-0.658 0.09,-1.327 0.234,-2.007c0.277,-1.306 0.795,-2.52 1.556,-3.644c0.282,-0.416 0.579,-0.797 0.894,-1.143c0.555,-0.619 1.168,-1.158 1.838,-1.618c1.205,-0.827 2.513,-1.378 3.926,-1.655c0.662,-0.138 1.342,-0.205 2.04,-0.202Zm4.486,2.135c-1.403,-0.753 -2.943,-1.133 -4.621,-1.139c-0.029,0 -0.043,0.015 -0.041,0.044c0.022,0.269 0.042,0.518 0.059,0.747c0.107,1.419 0.503,2.746 1.19,3.981c0.327,0.585 0.726,1.147 1.199,1.685c0.016,0.019 0.034,0.02 0.051,0.002c1.32,-1.32 2.646,-2.646 3.979,-3.979c0.026,-0.026 0.025,-0.052 -0.003,-0.077c-0.585,-0.508 -1.189,-0.929 -1.813,-1.264Zm-7.859,-0.512c-1.083,0.411 -2.064,1.007 -2.943,1.786c-0.019,0.017 -0.019,0.034 -0.001,0.052c2.09,2.089 4.182,4.182 6.278,6.277c0.026,0.027 0.052,0.027 0.078,0c0.504,-0.503 1.009,-1.009 1.517,-1.517c0.021,-0.02 0.022,-0.042 0.002,-0.064c-0.618,-0.702 -1.132,-1.449 -1.54,-2.242c-0.56,-1.09 -0.918,-2.246 -1.073,-3.469c-0.055,-0.445 -0.094,-0.894 -0.117,-1.347c-0.001,-0.019 -0.011,-0.027 -0.029,-0.024c-0.767,0.106 -1.49,0.289 -2.172,0.548Zm10.181,2.768c-0.187,0.186 -0.381,0.378 -0.582,0.575c-1.074,1.051 -2.139,2.115 -3.198,3.19c-0.019,0.02 -0.019,0.039 0.002,0.057c0.478,0.408 0.953,0.755 1.424,1.041c0.016,0.01 0.033,0.009 0.049,-0.002c1.339,-0.944 2.833,-1.515 4.483,-1.712c0.028,-0.004 0.038,-0.019 0.027,-0.046c-0.114,-0.333 -0.249,-0.667 -0.403,-1.001c-0.396,-0.854 -0.906,-1.629 -1.53,-2.325c-0.013,-0.015 -0.028,-0.017 -0.044,-0.006c-0.068,0.063 -0.144,0.14 -0.228,0.229Zm-7.683,5.933c-2.046,-2.04 -4.094,-4.088 -6.145,-6.146c-0.024,-0.023 -0.047,-0.022 -0.069,0.003c-0.863,0.981 -1.499,2.078 -1.905,3.29c-0.188,0.561 -0.327,1.166 -0.416,1.814c-0.003,0.02 0.006,0.031 0.026,0.032c0.531,0.022 1.056,0.07 1.576,0.146c1.312,0.191 2.538,0.616 3.677,1.274c0.622,0.356 1.218,0.788 1.788,1.296c0.031,0.027 0.061,0.026 0.091,-0.002c0.495,-0.497 0.998,-1 1.508,-1.51c0.02,-0.019 0.02,-0.039 0.003,-0.06c-0.059,-0.061 -0.104,-0.107 -0.134,-0.137Zm8.59,-1.481c-0.058,0.129 -0.093,0.237 -0.105,0.324c-0.003,0.019 0.004,0.034 0.02,0.046c0.769,0.542 1.547,1.088 2.334,1.638c0.022,0.015 0.044,0.015 0.067,0c0.786,-0.548 1.563,-1.092 2.331,-1.632c0.03,-0.021 0.038,-0.049 0.025,-0.083c-0.04,-0.107 -0.07,-0.195 -0.091,-0.265c-0.011,-0.04 -0.037,-0.065 -0.077,-0.076c-0.925,-0.258 -1.873,-0.353 -2.844,-0.284c-0.528,0.037 -1.06,0.13 -1.597,0.278c-0.029,0.008 -0.051,0.026 -0.063,0.054Zm-4.129,1.057c-0.502,-0.347 -0.92,-0.674 -1.255,-0.979c-0.024,-0.021 -0.047,-0.021 -0.069,0.002c-0.527,0.522 -1.037,1.035 -1.531,1.537c-0.016,0.017 -0.016,0.033 0,0.049c0.444,0.441 0.864,0.862 1.258,1.266c0.024,0.024 0.046,0.022 0.066,-0.006c0.46,-0.66 0.972,-1.252 1.537,-1.775c0.037,-0.034 0.035,-0.066 -0.006,-0.094Zm-0.267,1.938c0.188,0.078 0.345,0.162 0.471,0.251c0.121,0.084 0.198,0.205 0.232,0.363c0.004,0.019 0.01,0.038 0.017,0.056c0.271,0.659 0.54,1.329 0.81,2.009c0.021,0.055 0.06,0.093 0.115,0.115c0.65,0.26 1.295,0.519 1.935,0.778c0.025,0.01 0.049,0.008 0.072,-0.007c0.833,-0.559 1.653,-1.105 2.459,-1.637c0.041,-0.027 0.062,-0.066 0.062,-0.116l0,-1.844c0,-0.045 -0.018,-0.08 -0.055,-0.105c-0.928,-0.625 -1.843,-1.267 -2.746,-1.927c-0.142,-0.103 -0.203,-0.277 -0.184,-0.521c0,-0.008 -0.003,-0.01 -0.01,-0.006c-0.785,0.365 -1.489,0.824 -2.114,1.377c-0.402,0.357 -0.762,0.74 -1.078,1.151c-0.022,0.027 -0.017,0.049 0.014,0.063Zm8.718,2.902c0.278,0.184 0.578,0.385 0.899,0.603c0.024,0.017 0.049,0.019 0.076,0.007c0.485,-0.223 0.987,-0.455 1.506,-0.696c0.042,-0.02 0.07,-0.052 0.083,-0.097c0.286,-1.085 0.595,-2.163 0.926,-3.234c0.058,-0.187 0.201,-0.298 0.427,-0.331c0.036,-0.006 0.041,-0.022 0.014,-0.047c-0.718,-0.694 -1.54,-1.258 -2.467,-1.69c-0.018,-0.009 -0.025,-0.003 -0.022,0.017c0.051,0.218 -0.015,0.393 -0.196,0.524c-0.906,0.653 -1.819,1.292 -2.74,1.919c-0.027,0.019 -0.04,0.045 -0.04,0.077l-0,1.882c-0,0.027 0.011,0.048 0.033,0.063c0.482,0.326 0.983,0.66 1.501,1.003Zm-15.074,-1.983c-0.451,-0.399 -0.912,-0.742 -1.383,-1.027c-1.073,-0.65 -2.216,-1.07 -3.428,-1.26c-0.454,-0.071 -0.986,-0.124 -1.597,-0.158c-0.031,-0.002 -0.047,0.013 -0.047,0.045c0.002,1.617 0.359,3.115 1.073,4.493c0.368,0.711 0.813,1.358 1.337,1.942c0.021,0.024 0.043,0.025 0.066,0.002c1.362,-1.359 2.689,-2.688 3.98,-3.988c0.017,-0.016 0.017,-0.033 -0.001,-0.049Zm4.52,-0.075c-0.463,-0.464 -0.951,-0.951 -1.462,-1.462c-0.014,-0.014 -0.028,-0.014 -0.042,-0c-0.494,0.476 -0.994,0.972 -1.502,1.488c-0.046,0.046 -0.047,0.093 -0.004,0.142c0.888,1.011 1.561,2.137 2.019,3.379c0.006,0.018 0.019,0.026 0.039,0.022c0.007,-0.002 0.012,-0.018 0.014,-0.046c0.101,-1.19 0.418,-2.336 0.953,-3.436c0.016,-0.033 0.011,-0.061 -0.015,-0.087Zm14.153,2.128c0.777,0.517 1.553,1.034 2.326,1.549c0.048,0.032 0.098,0.035 0.149,0.009c0.122,-0.06 0.224,-0.113 0.307,-0.159c0.022,-0.012 0.031,-0.031 0.028,-0.055c-0.153,-1.457 -0.665,-2.82 -1.535,-4.091c-0.037,-0.054 -0.088,-0.08 -0.153,-0.08l-0.293,-0c-0.061,-0 -0.101,0.029 -0.118,0.089c-0.25,0.876 -0.5,1.753 -0.75,2.632c-0.013,0.045 0,0.08 0.039,0.106Zm-12.579,-1.986c-0.135,-0.077 -0.245,-0.129 -0.33,-0.155c-0.019,-0.006 -0.033,-0.001 -0.043,0.016c-0.705,1.191 -1.093,2.502 -1.163,3.931c-0.002,0.046 0.017,0.08 0.057,0.101c0.077,0.042 0.155,0.081 0.235,0.118c0.056,0.026 0.107,0.017 0.152,-0.027c0.626,-0.627 1.251,-1.253 1.876,-1.878c0.043,-0.042 0.054,-0.092 0.031,-0.148c-0.236,-0.606 -0.487,-1.235 -0.754,-1.889c-0.012,-0.03 -0.033,-0.053 -0.061,-0.069Zm-6.679,1.997c-0.891,0.888 -1.785,1.778 -2.684,2.669c-0.031,0.032 -0.03,0.062 0.004,0.092c0.92,0.809 1.938,1.415 3.052,1.817c0.018,0.007 0.035,0.016 0.052,0.026c0.084,0.046 0.183,0.045 0.298,-0.001c0.921,-0.377 1.888,-0.637 2.9,-0.781c0.032,-0.005 0.046,-0.023 0.042,-0.056c-0.138,-1.07 -0.45,-2.085 -0.936,-3.045c-0.376,-0.743 -0.835,-1.416 -1.376,-2.019c-0.021,-0.024 -0.044,-0.025 -0.067,-0.002c-0.431,0.443 -0.86,0.876 -1.285,1.3Zm15.924,1.304c-0.76,-0.511 -1.519,-1.018 -2.277,-1.52c-0.022,-0.015 -0.043,-0.015 -0.064,-0c-0.755,0.508 -1.539,1.033 -2.353,1.575c-0.02,0.012 -0.026,0.03 -0.02,0.052c0.261,0.91 0.519,1.816 0.774,2.716c0.007,0.024 0.024,0.036 0.05,0.036l3.117,0c0.061,0 0.1,-0.029 0.116,-0.087c0.247,-0.858 0.491,-1.713 0.733,-2.564c0.025,-0.088 -0.001,-0.157 -0.076,-0.208Zm-7.721,2.614c1.005,0.198 1.967,0.505 2.886,0.923c0.051,0.023 0.068,0.008 0.053,-0.046c-0.308,-1.059 -0.614,-2.128 -0.917,-3.206c-0.01,-0.034 -0.031,-0.057 -0.063,-0.07c-0.636,-0.261 -1.267,-0.512 -1.895,-0.755c-0.018,-0.007 -0.034,-0.003 -0.048,0.011c-0.714,0.717 -1.439,1.443 -2.177,2.176c-0.078,0.081 -0.162,0.138 -0.252,0.172c-0.151,0.057 -0.338,0.024 -0.561,-0.101c-0.047,-0.025 -0.065,-0.012 -0.056,0.041c0.03,0.17 0.055,0.346 0.075,0.529c0.005,0.05 0.033,0.074 0.083,0.073c0.987,-0.013 1.945,0.071 2.872,0.253Zm8.028,0.645c0.351,0.348 0.703,0.702 1.055,1.062c0.021,0.022 0.046,0.033 0.076,0.033c1.05,0.008 2.1,0.008 3.15,-0c0.161,-0.002 0.296,0.034 0.406,0.106c0.099,0.072 0.163,0.162 0.193,0.271c0.017,0.048 0.037,0.05 0.059,0.004c0.528,-1.041 0.831,-2.13 0.909,-3.267c0.005,-0.068 0.014,-0.151 0.029,-0.249c0.007,-0.033 -0.004,-0.042 -0.034,-0.027c-0.108,0.064 -0.213,0.112 -0.317,0.144c-0.14,0.048 -0.27,0.032 -0.392,-0.047c-0.923,-0.604 -1.841,-1.214 -2.754,-1.831c-0.024,-0.016 -0.05,-0.018 -0.076,-0.006c-0.483,0.22 -0.965,0.442 -1.447,0.666c-0.015,0.007 -0.025,0.019 -0.03,0.035c-0.285,0.986 -0.571,1.984 -0.857,2.997c-0.011,0.041 -0.002,0.078 0.03,0.109Zm-0.981,4.528c-0.662,-0.64 -1.309,-1.219 -1.942,-1.738c-0.359,-0.286 -0.728,-0.547 -1.106,-0.784c-2.1,-1.316 -4.399,-1.948 -6.895,-1.893c-1.959,0.048 -3.811,0.545 -5.556,1.491c-0.779,0.418 -1.502,0.911 -2.168,1.479c-0.606,0.521 -1.192,1.054 -1.759,1.599c-0.014,0.013 -0.026,0.028 -0.038,0.044c-0.078,0.106 -0.107,0.228 -0.089,0.368c0.023,0.144 0.11,0.272 0.26,0.384c0.535,0.405 1.072,0.805 1.612,1.201c1.163,0.855 2.424,1.484 3.782,1.886c1.142,0.343 2.324,0.519 3.545,0.528c0.841,0.024 1.607,0.015 2.3,-0.03c1.207,-0.077 2.368,-0.332 3.483,-0.765c1.03,-0.383 1.993,-0.9 2.889,-1.549c0.525,-0.382 1.068,-0.786 1.63,-1.212c0.095,-0.057 0.176,-0.122 0.242,-0.198c0.134,-0.155 0.16,-0.325 0.076,-0.509c-0.053,-0.127 -0.126,-0.217 -0.219,-0.268c-0.017,-0.009 -0.033,-0.021 -0.047,-0.034Zm-3.385,-3.869c0.805,0.423 1.555,0.924 2.249,1.501c0.48,0.4 0.96,0.831 1.442,1.295c0.038,0.037 0.069,0.031 0.092,-0.017c0.266,-0.55 0.547,-1.115 0.843,-1.695c0.014,-0.027 0.01,-0.052 -0.011,-0.074c-0.342,-0.341 -0.687,-0.686 -1.034,-1.033c-0.026,-0.026 -0.058,-0.039 -0.095,-0.039c-1.203,0.002 -2.36,0 -3.469,-0.004c-0.094,-0 -0.099,0.022 -0.017,0.066Zm5.545,1.472c-0.339,0.691 -0.684,1.383 -1.034,2.074c-0.025,0.049 -0.024,0.097 0.001,0.145c0.19,0.366 0.22,0.75 0.088,1.15c-0.026,0.08 -0.004,0.107 0.066,0.081c1.292,-0.478 2.401,-1.215 3.325,-2.212c0.242,-0.262 0.46,-0.529 0.653,-0.801c0.012,-0.015 0.013,-0.032 0.006,-0.05c-0.044,-0.102 -0.104,-0.225 -0.179,-0.369c-0.015,-0.029 -0.04,-0.044 -0.073,-0.044l-2.813,0c-0.019,0 -0.032,0.009 -0.04,0.026Z" style="fill:#d6a57d;fill-rule:nonzero;"/><path d="M8.159,22.515c0.188,0.061 0.295,0.183 0.322,0.366c0.027,0.142 0.031,0.317 0.015,0.524c-0.002,0.051 0.023,0.076 0.073,0.077c0.329,0.002 0.626,0 0.89,-0.004c0.02,0 0.032,-0.01 0.037,-0.029c0.018,-0.074 0.021,-0.171 0.011,-0.29c-0.02,-0.17 0.005,-0.315 0.077,-0.436c0.076,-0.129 0.187,-0.203 0.333,-0.223c0.137,-0.022 0.265,0.011 0.384,0.099c0.082,0.058 0.14,0.137 0.173,0.238c0.042,0.162 0.051,0.361 0.028,0.597c-0.002,0.032 0.013,0.048 0.045,0.048l0.856,-0c0.068,-0 0.1,-0.035 0.096,-0.103c-0.032,-0.228 -0.017,-0.427 0.047,-0.597c0.07,-0.184 0.212,-0.282 0.425,-0.293c0.11,-0.01 0.205,0.014 0.286,0.073c0.164,0.104 0.243,0.254 0.238,0.451c-0.005,0.192 -0.002,0.335 0.008,0.428c0.002,0.02 0.013,0.03 0.033,0.031c0.276,0.012 0.575,0.015 0.898,0.009c0.048,-0.001 0.072,-0.025 0.072,-0.073c-0.001,-0.136 -0.001,-0.273 -0,-0.41c-0.002,-0.159 0.055,-0.287 0.172,-0.384c0.128,-0.109 0.266,-0.147 0.414,-0.114c0.163,0.036 0.279,0.122 0.349,0.256c0.009,0.017 0.016,0.036 0.021,0.055c0.041,0.163 0.054,0.357 0.04,0.583c-0.004,0.058 0.024,0.088 0.083,0.088l0.816,-0c0.069,-0 0.101,-0.035 0.097,-0.103c-0.031,-0.225 -0.017,-0.42 0.044,-0.586c0.059,-0.162 0.178,-0.259 0.356,-0.291c0.083,-0.019 0.165,-0.015 0.246,0.013c0.185,0.056 0.297,0.173 0.335,0.351c0.031,0.144 0.036,0.328 0.015,0.555c-0.002,0.04 0.018,0.061 0.059,0.061c0.132,-0.004 0.264,-0.004 0.395,-0c0.238,0.001 0.403,0.095 0.495,0.281c0.07,0.143 0.075,0.277 0.014,0.404c-0.073,0.192 -0.218,0.295 -0.436,0.311c-0.135,0.009 -0.272,0.009 -0.41,-0c-0.078,-0 -0.117,0.039 -0.117,0.117c-0.002,0.117 -0.002,0.234 0,0.351c0.015,0.173 -0.045,0.314 -0.179,0.422c-0.192,0.156 -0.395,0.161 -0.608,0.014c-0.1,-0.069 -0.16,-0.156 -0.18,-0.26c-0.037,-0.159 -0.047,-0.345 -0.029,-0.556c0.002,-0.049 -0.021,-0.073 -0.069,-0.074c-0.311,-0.003 -0.609,-0.007 -0.894,-0.01c-0.02,-0.001 -0.03,0.009 -0.031,0.028c-0.004,0.114 -0.004,0.25 -0.002,0.407c0.003,0.159 -0.042,0.289 -0.135,0.392c-0.15,0.167 -0.329,0.212 -0.539,0.135c-0.205,-0.074 -0.312,-0.226 -0.322,-0.454c-0.008,-0.15 -0.008,-0.304 -0,-0.461c-0,-0.027 -0.014,-0.041 -0.041,-0.04c-0.312,0.003 -0.602,0.001 -0.867,-0.005c-0.084,-0.002 -0.122,0.038 -0.114,0.121c0.034,0.271 0.017,0.476 -0.051,0.616c-0.058,0.119 -0.149,0.195 -0.271,0.227c-0.135,0.048 -0.264,0.038 -0.388,-0.029c-0.163,-0.091 -0.251,-0.233 -0.264,-0.425c-0.008,-0.119 -0.012,-0.272 -0.012,-0.46c0.001,-0.026 -0.012,-0.04 -0.039,-0.04c-0.344,-0.006 -0.646,-0.01 -0.903,-0.012c-0.04,-0.001 -0.059,0.019 -0.057,0.058c0.011,0.253 0.004,0.446 -0.023,0.579c-0.004,0.019 -0.01,0.038 -0.019,0.055c-0.08,0.169 -0.207,0.267 -0.382,0.296c-0.157,0.026 -0.293,-0.016 -0.411,-0.125c-0.112,-0.108 -0.165,-0.251 -0.157,-0.428c0.006,-0.147 0.005,-0.271 -0.003,-0.373c-0.001,-0.035 -0.02,-0.053 -0.055,-0.052c-0.306,0.004 -0.589,-0.001 -0.85,-0.014c-0.069,-0.004 -0.103,0.029 -0.103,0.097l0,0.371c0.006,0.163 -0.046,0.296 -0.158,0.399c-0.1,0.094 -0.213,0.137 -0.34,0.129c-0.175,-0.003 -0.315,-0.082 -0.42,-0.237c-0.048,-0.071 -0.073,-0.15 -0.074,-0.236c-0.003,-0.168 -0.005,-0.327 -0.008,-0.476c0,-0.019 -0.009,-0.031 -0.028,-0.036c-0.076,-0.017 -0.167,-0.021 -0.276,-0.011c-0.194,0.028 -0.354,-0.003 -0.48,-0.092c-0.181,-0.125 -0.246,-0.295 -0.193,-0.509c0.05,-0.22 0.186,-0.347 0.41,-0.381c0.149,-0.022 0.328,-0.028 0.538,-0.019c0.02,0.001 0.03,-0.009 0.031,-0.028c0.005,-0.109 0.006,-0.24 0.002,-0.392c-0.004,-0.139 0.029,-0.257 0.099,-0.355c0.14,-0.201 0.327,-0.263 0.56,-0.187Z" style="fill:#d6a57d;fill-rule:nonzero;"/></g></svg>