<?xml version="1.0" encoding="UTF-8" standalone="no"?><!DOCTYPE svg PUBLIC "-//W3C//DTD SVG 1.1//EN" "http://www.w3.org/Graphics/SVG/1.1/DTD/svg11.dtd"><svg width="100%" height="100%" viewBox="0 0 30 34" version="1.1" xmlns="http://www.w3.org/2000/svg" xmlns:xlink="http://www.w3.org/1999/xlink" xml:space="preserve" xmlns:serif="http://www.serif.com/" style="fill-rule:evenodd;clip-rule:evenodd;stroke-linejoin:round;stroke-miterlimit:2;"><g><path d="M7.765,0l8.282,0c0.143,0.014 0.268,0.072 0.375,0.175c0.207,0.193 0.265,0.422 0.172,0.685c-0.094,0.268 -0.278,0.415 -0.551,0.441c-0.021,0.002 -0.043,0.003 -0.065,0.003l-7.434,0c-0.044,0 -0.066,0.022 -0.066,0.066l0,10.695c0,0.075 0.037,0.118 0.11,0.132c0.546,0.094 1.057,0.28 1.533,0.557c0.534,0.303 0.988,0.708 1.361,1.215c0.638,0.843 0.942,1.795 0.909,2.857c-0.024,1.106 -0.411,2.072 -1.161,2.898c-0.3,0.33 -0.522,0.723 -0.665,1.178c-0.06,0.208 -0.102,0.438 -0.126,0.689c-0.039,0.727 0.063,1.4 0.306,2.018c0.199,0.507 0.488,0.919 0.868,1.235c0.305,0.236 0.663,0.346 1.072,0.33c0.766,-0.005 1.532,-0.005 2.299,-0c0.199,0.001 0.366,0.073 0.501,0.216c0.118,0.128 0.173,0.285 0.167,0.469c-0.012,1.402 -0.012,2.804 0,4.206c0.002,0.227 -0.072,0.413 -0.224,0.558c-0.135,0.119 -0.3,0.172 -0.493,0.16c-0.392,-0.004 -0.783,-0.004 -1.174,-0c-0.044,-0 -0.065,0.021 -0.065,0.065l-0,1.174c-0,0.043 0.021,0.065 0.065,0.065l14.869,-0c0.044,-0 0.066,-0.022 0.066,-0.065l-0,-30.652c-0,-0.044 -0.022,-0.066 -0.066,-0.066c-2.255,0.006 -4.511,0.006 -6.766,0c-0.156,-0 -0.291,-0.045 -0.404,-0.134c-0.17,-0.118 -0.259,-0.285 -0.264,-0.502c-0.008,-0.232 0.086,-0.416 0.281,-0.55c0.083,-0.057 0.186,-0.096 0.31,-0.118l7.63,-0c0.14,0.017 0.263,0.073 0.367,0.167c0.144,0.136 0.216,0.309 0.216,0.518c-0.023,10.647 -0.023,21.293 -0,31.94c0,0.141 -0.023,0.276 -0.069,0.404c-0.101,0.206 -0.275,0.327 -0.522,0.362l-26.869,0c-0.293,-0.055 -0.479,-0.213 -0.558,-0.474c-0.006,-0.021 -0.009,-0.042 -0.01,-0.064c-0.018,-0.637 -0.023,-1.289 -0.015,-1.956c0,-0.076 -0.037,-0.114 -0.113,-0.114c-0.392,0.001 -0.784,0.001 -1.175,-0c-0.26,-0.001 -0.455,-0.111 -0.584,-0.33c-0.058,-0.123 -0.086,-0.263 -0.085,-0.42c0.012,-1.397 0.012,-2.794 0,-4.191c0,-0.26 0.11,-0.454 0.33,-0.583c0.122,-0.06 0.262,-0.089 0.42,-0.085c0.695,0.015 1.391,0.015 2.087,-0c0.316,-0.001 0.615,-0.094 0.897,-0.277c0.201,-0.118 0.385,-0.277 0.55,-0.477c0.67,-0.809 0.976,-1.748 0.917,-2.817c-0.032,-0.662 -0.238,-1.228 -0.619,-1.699c-0.014,-0.017 -0.028,-0.033 -0.043,-0.049c-0.747,-0.78 -1.167,-1.697 -1.262,-2.752c-0.081,-0.901 0.084,-1.736 0.493,-2.507c0.214,-0.431 0.511,-0.829 0.893,-1.194c0.687,-0.657 1.508,-1.062 2.461,-1.214c0.033,-0.006 0.05,-0.025 0.05,-0.059l-0,-11.314c-0,-0.022 -0.001,-0.043 -0.003,-0.065c-0.024,-0.233 0.049,-0.428 0.219,-0.583c0.103,-0.094 0.228,-0.15 0.375,-0.167Zm2.282,14.328c-0.183,-0.182 -0.386,-0.337 -0.611,-0.465c-0.6,-0.343 -1.235,-0.48 -1.903,-0.412c-0.565,0.052 -1.071,0.232 -1.517,0.538c-0.419,0.283 -0.755,0.637 -1.007,1.064c-0.304,0.495 -0.452,1.048 -0.444,1.659c0.012,0.82 0.279,1.52 0.803,2.099c0.74,0.799 1.124,1.752 1.154,2.857c0.031,1.175 -0.285,2.245 -0.95,3.208c-0.059,0.089 -0.117,0.163 -0.174,0.224c-0.049,0.049 -0.038,0.074 0.031,0.074l4.623,-0c0.042,-0 0.052,-0.018 0.028,-0.053c-0.702,-1.065 -1.013,-2.254 -0.933,-3.567c0.036,-0.598 0.173,-1.157 0.411,-1.675c0.197,-0.379 0.45,-0.746 0.759,-1.1c0.461,-0.53 0.712,-1.138 0.754,-1.823c0.018,-0.266 0.008,-0.511 -0.029,-0.737c-0.12,-0.745 -0.452,-1.375 -0.995,-1.891Zm4.301,12.189c-0,-0.021 -0.018,-0.039 -0.039,-0.039l-12.965,0c-0.022,0 -0.04,0.018 -0.04,0.039l0,2.922c0,0.022 0.018,0.039 0.04,0.039l12.965,0c0.021,0 0.039,-0.017 0.039,-0.039l-0,-2.922Zm-2.002,4.278c-2.97,-0.014 -5.955,-0.019 -8.955,-0.012c-0.087,-0 -0.13,0.043 -0.13,0.13l-0,1.043c-0,0.087 0.043,0.131 0.13,0.131l8.87,-0c0.086,-0 0.129,-0.043 0.13,-0.129c0.006,-0.392 0.003,-0.769 -0.011,-1.13c-0.001,-0.022 -0.012,-0.033 -0.034,-0.033Z" style="fill:#d6a57d;fill-rule:nonzero;"/><path d="M18.852,0l0.13,0c0.224,0.029 0.39,0.139 0.498,0.33c0.164,0.293 0.126,0.556 -0.114,0.791c-0.231,0.229 -0.489,0.262 -0.775,0.098c-0.172,-0.098 -0.276,-0.244 -0.314,-0.436c-0.046,-0.24 0.02,-0.445 0.2,-0.616c0.105,-0.098 0.23,-0.154 0.375,-0.167Z" style="fill:#d6a57d;fill-rule:nonzero;"/><path d="M18.258,4.957c0,-0.36 -0.292,-0.652 -0.651,-0.652l-5.866,-0c-0.359,-0 -0.651,0.292 -0.651,0.652c-0,0.359 0.292,0.651 0.651,0.651l5.866,0c0.359,0 0.651,-0.292 0.651,-0.651Z" style="fill:#d6a57d;"/><path d="M26.084,8.87c0,-0.36 -0.292,-0.652 -0.651,-0.652l-13.692,0c-0.359,0 -0.651,0.292 -0.651,0.652c-0,0.359 0.292,0.651 0.651,0.651l13.692,0c0.359,0 0.651,-0.292 0.651,-0.651Z" style="fill:#d6a57d;"/><path d="M26.084,12.783c0,-0.36 -0.292,-0.652 -0.651,-0.652l-9.779,0c-0.359,0 -0.651,0.292 -0.651,0.652c-0,0.359 0.292,0.651 0.651,0.651l9.779,0c0.359,0 0.651,-0.292 0.651,-0.651Z" style="fill:#d6a57d;"/><path d="M26.084,16.696c0,-0.36 -0.292,-0.652 -0.651,-0.652l-9.779,0c-0.359,0 -0.651,0.292 -0.651,0.652c-0,0.359 0.292,0.651 0.651,0.651l9.779,0c0.359,0 0.651,-0.292 0.651,-0.651Z" style="fill:#d6a57d;"/><path d="M26.082,24.912c-0,2.502 -2.059,4.561 -4.561,4.561c-2.502,-0 -4.561,-2.059 -4.561,-4.561c0,-2.502 2.059,-4.56 4.561,-4.56c2.502,-0 4.561,2.058 4.561,4.56Zm-1.305,0c-0,-1.785 -1.47,-3.255 -3.255,-3.255c-1.786,0 -3.255,1.47 -3.255,3.255c-0,1.786 1.469,3.255 3.255,3.255c1.785,0 3.255,-1.469 3.255,-3.255Z" style="fill:#d6a57d;fill-rule:nonzero;"/><circle cx="21.522" cy="24.912" r="3.255" style="fill:#d6a57d;fill-opacity:0;"/><path d="M14.348,26.928c-0,-0.248 -0.202,-0.45 -0.45,-0.45l-12.144,0c-0.248,0 -0.45,0.202 -0.45,0.45l0,2.1c0,0.249 0.202,0.45 0.45,0.45l12.144,0c0.248,0 0.45,-0.201 0.45,-0.45l-0,-2.1Z" style="fill:#d6a57d;fill-opacity:0;"/></g></svg>