<?xml version="1.0" encoding="UTF-8" standalone="no"?><!DOCTYPE svg PUBLIC "-//W3C//DTD SVG 1.1//EN" "http://www.w3.org/Graphics/SVG/1.1/DTD/svg11.dtd"><svg width="100%" height="100%" viewBox="0 0 30 27" version="1.1" xmlns="http://www.w3.org/2000/svg" xmlns:xlink="http://www.w3.org/1999/xlink" xml:space="preserve" xmlns:serif="http://www.serif.com/" style="fill-rule:evenodd;clip-rule:evenodd;stroke-linejoin:round;stroke-miterlimit:2;"><g><path d="M2.959,0.006c0.029,-0 0.044,0.014 0.044,0.044l-0,5.929c-0,0.019 0.01,0.029 0.029,0.029c0.39,-0.002 0.79,-0 1.2,0.004c0.033,0.001 0.041,-0.013 0.025,-0.042c-0.166,-0.273 -0.251,-0.578 -0.254,-0.918c-0.007,-0.63 0.227,-1.15 0.703,-1.56c0.266,-0.236 0.578,-0.384 0.934,-0.443c0.288,-0.031 0.6,-0.045 0.937,-0.044c0.838,0.004 1.673,0.009 2.505,0.015c0.568,0.017 1.04,0.242 1.417,0.677c0.3,0.339 0.462,0.733 0.487,1.183c0.027,0.387 -0.053,0.747 -0.24,1.079c-0.018,0.033 -0.009,0.049 0.029,0.049l1.193,0c0.019,0 0.029,-0.01 0.029,-0.029l0,-2.93c0,-0.029 0.015,-0.044 0.044,-0.044c3.057,0.003 6.104,0.003 9.141,0c0.52,-0.017 1.038,-0.012 1.552,0.015c0.575,0.03 1.109,0.205 1.601,0.524c0.298,0.181 0.562,0.406 0.791,0.674c0.426,0.5 0.698,1.067 0.816,1.702c0.011,0.058 0.046,0.088 0.106,0.088c0.342,0.002 0.648,0.001 0.916,-0.003c0.02,-0 0.03,-0.01 0.03,-0.03c0.002,-1.97 0.004,-3.942 0.007,-5.916c-0,-0.038 0.019,-0.057 0.056,-0.057c0.956,0.004 1.903,0.004 2.84,0c0.035,0 0.069,0.006 0.103,0.018l-0,25.987c-0.967,0.019 -1.96,0.018 -2.979,-0.005c-0.016,-0.001 -0.024,-0.009 -0.024,-0.025l0,-2.933c0,-0.022 -0.011,-0.033 -0.033,-0.033c-7.916,-0 -15.82,0.001 -23.712,0.004c-0.088,-0 -0.153,-0.002 -0.195,-0.006c-0.036,-0.008 -0.054,0.007 -0.054,0.044l-0,2.877c-0,0.056 -0.028,0.084 -0.084,0.084c-0.799,0.004 -1.601,0.005 -2.406,0.004c-0.176,-0 -0.341,-0.002 -0.495,-0.004c-0.002,0 -0.008,-0.009 -0.018,-0.029l-0,-25.972c0.992,-0.014 1.979,-0.017 2.959,-0.007Zm-0.967,1.038c0,-0.018 -0.014,-0.032 -0.031,-0.032l-0.933,-0c-0.018,-0 -0.032,0.014 -0.032,0.032l0,4.933c0,0.017 0.014,0.032 0.032,0.032l0.933,-0c0.017,-0 0.031,-0.015 0.031,-0.032l0,-4.933Zm27.012,-0.005c-0,-0.014 -0.012,-0.026 -0.026,-0.026l-0.944,0c-0.015,0 -0.026,0.012 -0.026,0.026l-0,4.944c-0,0.014 0.011,0.026 0.026,0.026l0.944,-0c0.014,-0 0.026,-0.012 0.026,-0.026l-0,-4.944Zm-15.963,2.973c-0.022,0 -0.033,0.011 -0.033,0.033c-0.002,1.313 -0.001,2.623 0.003,3.93c0,0.027 0.014,0.04 0.04,0.04l11.888,-0c0.043,-0 0.065,-0.021 0.065,-0.064c0.001,-0.497 -0.004,-0.969 -0.014,-1.415c0.005,-0.301 -0.044,-0.594 -0.146,-0.879c-0.173,-0.496 -0.482,-0.896 -0.927,-1.198c-0.441,-0.296 -0.933,-0.444 -1.476,-0.443c-3.119,0.005 -6.253,0.004 -9.4,-0.004Zm-3.048,0.999c-0,-0.546 -0.45,-0.996 -0.997,-0.996l-2.992,-0c-0.547,-0 -0.997,0.45 -0.997,0.996c0,0.547 0.45,0.997 0.997,0.997l2.992,0c0.547,0 0.997,-0.45 0.997,-0.997Zm2.008,3.957c-0.005,-0.607 -0.006,-1.222 -0.004,-1.846c0,-0.078 -0.039,-0.118 -0.117,-0.118l-10.781,0c-0.069,0 -0.103,0.034 -0.103,0.103l0,2.842c0,0.039 0.02,0.058 0.059,0.058c9.298,-0.002 18.602,-0.001 27.913,0.004c0.024,-0 0.036,-0.012 0.036,-0.036l-0,-2.927c-0,-0.029 -0.015,-0.044 -0.044,-0.044l-2.842,0c-0.078,0 -0.117,0.04 -0.117,0.118c0.002,0.624 0.001,1.241 -0.004,1.85c0,0.026 -0.012,0.039 -0.038,0.039l-13.915,0c-0.029,0 -0.043,-0.014 -0.043,-0.043Zm-10.009,2.072c0,-0.015 -0.013,-0.028 -0.028,-0.028l-0.94,0c-0.015,0 -0.028,0.013 -0.028,0.028l0,6.938c0,0.015 0.013,0.028 0.028,0.028l0.94,-0c0.015,-0 0.028,-0.013 0.028,-0.028l0,-6.938Zm1.061,-0.026c-0.031,0 -0.047,0.016 -0.047,0.047c-0.004,2.277 -0.005,4.573 -0.003,6.887c-0,0.042 0.021,0.062 0.062,0.061c0.397,-0.01 0.781,-0.007 1.154,0.006c0.043,0.002 0.055,-0.017 0.034,-0.055c-0.134,-0.227 -0.214,-0.475 -0.239,-0.746c-0.042,-0.431 0.042,-0.825 0.252,-1.183c0.112,-0.213 0.276,-0.405 0.491,-0.578c0.367,-0.295 0.788,-0.44 1.264,-0.436c0.971,0.008 1.943,0.008 2.915,-0c0.417,-0.004 0.799,0.103 1.146,0.319c0.315,0.206 0.554,0.479 0.717,0.82c0.178,0.37 0.235,0.761 0.173,1.175c-0.035,0.224 -0.11,0.434 -0.225,0.63c-0.02,0.038 -0.009,0.056 0.034,0.054c0.363,-0.012 0.756,-0.015 1.177,-0.009c0.026,0 0.039,-0.012 0.039,-0.038l0,-2.907c0,-0.039 0.02,-0.059 0.059,-0.059c3.427,-0.005 6.855,-0.005 10.283,0c0.57,0.001 1.096,0.11 1.578,0.326c0.414,0.181 0.788,0.447 1.121,0.799c0.479,0.506 0.78,1.109 0.902,1.808c0.009,0.048 0.038,0.072 0.087,0.071c0.332,-0.006 0.639,-0.003 0.92,0.009c0.033,0.002 0.05,-0.014 0.05,-0.047c0.002,-2.36 0.001,-4.665 -0.003,-6.917c-0,-0.02 -0.01,-0.032 -0.029,-0.035c-0.077,0.001 -0.179,0.002 -0.305,0.002c-7.858,0.018 -15.727,0.017 -23.607,-0.004Zm25.951,0.037c-0,-0.022 -0.018,-0.04 -0.039,-0.04l-0.932,0c-0.022,0 -0.039,0.018 -0.039,0.04l-0,6.917c-0,0.022 0.017,0.04 0.039,0.04l0.932,-0c0.021,-0 0.039,-0.018 0.039,-0.04l-0,-6.917Zm-19.011,5.958c-0,-0.547 -0.451,-0.997 -0.998,-0.997l-2.99,-0c-0.547,-0 -0.998,0.45 -0.998,0.997c0,0.547 0.451,0.997 0.998,0.997l2.99,0c0.547,0 0.998,-0.45 0.998,-0.997Zm14.21,-0.311c-0.473,-0.453 -1.051,-0.681 -1.732,-0.685c-3.14,-0.015 -6.279,-0.015 -9.419,0c-0.03,0 -0.044,0.015 -0.044,0.044l-0,3.902c-0,0.033 0.016,0.05 0.049,0.05c3.916,0.004 7.855,0.005 11.816,0.003c0.086,0 0.13,-0.043 0.132,-0.129c0.026,-0.616 0.016,-1.164 -0.029,-1.643c-0.063,-0.609 -0.32,-1.123 -0.773,-1.542Zm4.757,5.31c0.027,-0 0.04,-0.014 0.04,-0.041c0.006,-0.972 0.006,-1.939 0,-2.901c-0,-0.033 -0.017,-0.05 -0.05,-0.05c-0.911,-0.004 -1.806,-0.004 -2.685,-0c-0.084,0 -0.151,-0.003 -0.201,-0.011c-0.042,-0.009 -0.063,0.008 -0.063,0.051l-0,1.894c-0,0.039 -0.02,0.058 -0.059,0.058l-13.828,0c-0.078,0 -0.117,-0.039 -0.117,-0.118c0.002,-0.623 0.001,-1.237 -0.003,-1.841c-0,-0.02 -0.01,-0.03 -0.03,-0.03c-3.615,-0.002 -7.246,-0.004 -10.891,-0.007c-0.051,0 -0.077,0.026 -0.077,0.077l0,2.87c0,0.042 0.021,0.059 0.063,0.05c0.034,-0.003 0.096,-0.005 0.186,-0.005c9.265,0.002 18.504,0.003 27.715,0.004Zm-26.967,1.031c-0,-0.014 -0.012,-0.026 -0.026,-0.026l-0.945,0c-0.014,0 -0.025,0.012 -0.025,0.026l-0,1.943c-0,0.014 0.011,0.026 0.025,0.026l0.945,-0c0.014,-0 0.026,-0.012 0.026,-0.026l-0,-1.943Zm27.01,0.007c0,-0.018 -0.014,-0.033 -0.032,-0.033l-0.931,0c-0.018,0 -0.033,0.015 -0.033,0.033l0,1.93c0,0.018 0.015,0.033 0.033,0.033l0.931,-0c0.018,-0 0.032,-0.015 0.032,-0.033l0,-1.93Z" style="fill:#d6a57d;fill-rule:nonzero;"/><path d="M1.992,1.417c0,-0.224 -0.181,-0.405 -0.405,-0.405l-0.186,-0c-0.223,-0 -0.405,0.181 -0.405,0.405l0,4.187c0,0.223 0.182,0.405 0.405,0.405l0.186,-0c0.224,-0 0.405,-0.182 0.405,-0.405l0,-4.187Z" style="fill:#d6a57d;fill-opacity:0;"/><path d="M29.004,1.343c-0,-0.182 -0.148,-0.33 -0.33,-0.33l-0.336,0c-0.182,0 -0.33,0.148 -0.33,0.33l-0,4.336c-0,0.182 0.148,0.33 0.33,0.33l0.336,-0c0.182,-0 0.33,-0.148 0.33,-0.33l-0,-4.336Z" style="fill:#d6a57d;fill-opacity:0;"/><path d="M9.993,5.011c-0,-0.55 -0.447,-0.996 -0.997,-0.996l-2.992,-0c-0.55,-0 -0.997,0.446 -0.997,0.996c0,0.551 0.447,0.997 0.997,0.997l2.992,0c0.55,0 0.997,-0.446 0.997,-0.997Z" style="fill:#d6a57d;fill-opacity:0;"/><path d="M1.992,11.372c0,-0.199 -0.161,-0.36 -0.36,-0.36l-0.276,0c-0.199,0 -0.36,0.161 -0.36,0.36l0,6.274c0,0.199 0.161,0.36 0.36,0.36l0.276,-0c0.199,-0 0.36,-0.161 0.36,-0.36l0,-6.274Z" style="fill:#d6a57d;fill-opacity:0;"/><path d="M29.004,11.514c-0,-0.277 -0.225,-0.503 -0.503,-0.503l-0.005,0c-0.277,0 -0.502,0.226 -0.502,0.503l-0,5.991c-0,0.277 0.225,0.503 0.502,0.503l0.005,-0c0.278,-0 0.503,-0.226 0.503,-0.503l-0,-5.991Z" style="fill:#d6a57d;fill-opacity:0;"/><path d="M9.993,17.009c-0,-0.55 -0.447,-0.997 -0.998,-0.997l-2.99,-0c-0.551,-0 -0.998,0.447 -0.998,0.997c0,0.551 0.447,0.997 0.998,0.997l2.99,0c0.551,0 0.998,-0.446 0.998,-0.997Z" style="fill:#d6a57d;fill-opacity:0;"/><path d="M1.993,23.343c-0,-0.182 -0.148,-0.33 -0.33,-0.33l-0.336,0c-0.182,0 -0.33,0.148 -0.33,0.33l-0,1.335c-0,0.182 0.148,0.33 0.33,0.33l0.336,-0c0.182,-0 0.33,-0.148 0.33,-0.33l-0,-1.335Z" style="fill:#d6a57d;fill-opacity:0;"/><path d="M29.003,23.433c0,-0.232 -0.188,-0.42 -0.42,-0.42l-0.156,0c-0.232,0 -0.42,0.188 -0.42,0.42l0,1.156c0,0.232 0.188,0.42 0.42,0.42l0.156,-0c0.232,-0 0.42,-0.188 0.42,-0.42l0,-1.156Z" style="fill:#d6a57d;fill-opacity:0;"/></g></svg>