<?xml version="1.0" encoding="UTF-8" standalone="no"?><!DOCTYPE svg PUBLIC "-//W3C//DTD SVG 1.1//EN" "http://www.w3.org/Graphics/SVG/1.1/DTD/svg11.dtd"><svg width="100%" height="100%" viewBox="0 0 30 30" version="1.1" xmlns="http://www.w3.org/2000/svg" xmlns:xlink="http://www.w3.org/1999/xlink" xml:space="preserve" xmlns:serif="http://www.serif.com/" style="fill-rule:evenodd;clip-rule:evenodd;stroke-linejoin:round;stroke-miterlimit:2;"><g><path d="M15.267,0.075c4.86,2.949 9.703,5.906 14.529,8.869c0.016,0.01 0.032,0.022 0.046,0.034c0.079,0.07 0.132,0.176 0.158,0.318l0,0.103c-0.016,0.114 -0.062,0.209 -0.135,0.286c-0.478,0.493 -0.957,0.972 -1.437,1.437c-0.014,0.013 -0.025,0.029 -0.034,0.046c-0.277,0.556 -0.566,1.138 -0.868,1.744c-0.021,0.041 -0.031,0.085 -0.031,0.132c0.02,0.334 0.019,0.645 -0.003,0.933c-0.034,0.453 -0.247,0.817 -0.638,1.091c-0.111,0.077 -0.216,0.132 -0.316,0.164c-0.026,0.008 -0.039,0.026 -0.039,0.054c-0.002,2.566 -0.001,5.103 0.004,7.611c-0,0.02 0.009,0.033 0.027,0.041c0.177,0.071 0.337,0.173 0.478,0.303c0.314,0.287 0.477,0.637 0.487,1.052c0.005,0.195 0.005,0.394 0,0.596c0,0.03 0.014,0.051 0.042,0.063c0.324,0.127 0.575,0.34 0.753,0.641c0.154,0.261 0.222,0.545 0.201,0.853c-0.006,0.136 -0.005,0.251 0.003,0.346c0.001,0.03 0.017,0.046 0.048,0.049c0.454,0.029 0.822,0.206 1.103,0.531c0.217,0.252 0.335,0.555 0.355,0.908l-0,1.128c-0.048,0.201 -0.155,0.333 -0.323,0.397c-0.07,0.026 -0.142,0.039 -0.217,0.039c-9.552,-0.016 -19.099,-0.016 -28.64,0c-0.168,0.001 -0.314,-0.005 -0.436,-0.018c-0.217,-0.051 -0.345,-0.197 -0.384,-0.439l-0,-1.128c0.022,-0.276 0.101,-0.517 0.238,-0.726c0.267,-0.405 0.67,-0.637 1.21,-0.696c0.04,-0.004 0.057,-0.027 0.052,-0.067c-0.016,-0.113 -0.015,-0.222 0.004,-0.325c0.003,-0.019 0.004,-0.038 0.003,-0.058c-0.024,-0.387 0.109,-0.739 0.397,-1.054c0.153,-0.167 0.339,-0.294 0.557,-0.381c0.029,-0.013 0.044,-0.035 0.044,-0.066c0.005,-0.152 0.005,-0.3 -0,-0.447c-0.014,-0.408 0.108,-0.764 0.366,-1.069c0.146,-0.173 0.331,-0.31 0.555,-0.411c0.05,-0.023 0.075,-0.062 0.075,-0.117l-0,-7.551c-0,-0.027 -0.013,-0.045 -0.038,-0.054c-0.194,-0.069 -0.37,-0.187 -0.53,-0.352c-0.299,-0.317 -0.442,-0.687 -0.428,-1.11c0.011,-0.349 0.007,-0.617 -0.012,-0.806c-0.002,-0.019 -0.007,-0.038 -0.016,-0.055c-0.277,-0.556 -0.563,-1.128 -0.86,-1.716c-0.021,-0.043 -0.049,-0.081 -0.082,-0.115c-0.475,-0.458 -0.941,-0.925 -1.4,-1.398c-0.077,-0.081 -0.122,-0.173 -0.135,-0.279l-0,-0.117c0.042,-0.178 0.164,-0.329 0.366,-0.451c4.789,-2.884 9.56,-5.794 14.312,-8.73c0.211,-0.132 0.408,-0.143 0.589,-0.033Zm-13.926,9.393c0.22,0.222 0.452,0.454 0.696,0.696c0.027,0.028 0.057,0.031 0.091,0.011c4.163,-2.559 8.317,-5.115 12.462,-7.668c0.017,-0.01 0.033,-0.021 0.049,-0.032c0.192,-0.143 0.38,-0.173 0.565,-0.09c0.018,0.008 0.035,0.017 0.051,0.027c4.19,2.576 8.399,5.166 12.63,7.769c0.033,0.02 0.062,0.016 0.088,-0.012c0.234,-0.254 0.465,-0.485 0.694,-0.694c0.027,-0.025 0.025,-0.047 -0.006,-0.066c-4.538,-2.761 -9.076,-5.53 -13.616,-8.307c-0.026,-0.017 -0.053,-0.017 -0.08,-0c-4.538,2.77 -9.077,5.539 -13.617,8.308c-0.028,0.017 -0.03,0.036 -0.007,0.058Zm24.812,0.818c-3.683,-2.259 -7.363,-4.523 -11.039,-6.791c-0.073,-0.044 -0.146,-0.044 -0.218,0c-3.689,2.273 -7.372,4.537 -11.049,6.791c-0.062,0.039 -0.057,0.058 0.016,0.058c7.425,0.006 14.849,0.006 22.274,-0c0.073,-0 0.078,-0.019 0.016,-0.058Zm0.569,1.998c0.135,-0.282 0.284,-0.582 0.447,-0.899c0.013,-0.025 0.005,-0.038 -0.023,-0.038c-8.069,-0.004 -16.164,-0.006 -24.284,-0.004c-0.039,0 -0.049,0.018 -0.031,0.052c0.161,0.304 0.315,0.608 0.462,0.913c0.01,0.021 0.027,0.031 0.05,0.031l23.293,0c0.04,0 0.069,-0.018 0.086,-0.055Zm-23.201,1.062c-0.011,0 -0.017,0.006 -0.017,0.017c-0.02,0.159 -0.021,0.335 -0.003,0.529c0.021,0.225 0.144,0.369 0.367,0.432c0.019,0.005 0.038,0.008 0.058,0.008c0.88,0.007 1.773,0.012 2.68,0.014c0.204,0.001 0.379,-0.009 0.524,-0.029c0.02,-0.002 0.039,-0.007 0.057,-0.014c0.198,-0.076 0.302,-0.227 0.313,-0.455c0.009,-0.174 0.008,-0.325 -0.003,-0.455c-0.001,-0.029 -0.015,-0.043 -0.044,-0.043c-1.316,0.002 -2.626,0.001 -3.932,-0.004Zm5.019,0c-0.026,0 -0.04,0.013 -0.041,0.039c-0.025,0.196 -0.021,0.385 0.012,0.566c0.033,0.183 0.14,0.301 0.318,0.355c0.127,0.03 0.274,0.043 0.443,0.04c0.884,-0.014 1.768,-0.014 2.652,0c0.15,0.01 0.276,-0.026 0.377,-0.106c0.141,-0.112 0.205,-0.252 0.194,-0.421c-0.003,-0.137 -0.003,-0.284 0,-0.441c0,-0.026 -0.013,-0.039 -0.039,-0.038c-1.284,0.014 -2.589,0.016 -3.916,0.006Zm12.889,0.74c0.034,-0.053 0.055,-0.112 0.063,-0.175c0.016,-0.134 0.019,-0.304 0.01,-0.51c-0.002,-0.034 -0.02,-0.051 -0.053,-0.051l-3.921,0c-0.024,0 -0.034,0.012 -0.032,0.036c0.016,0.135 0.019,0.279 0.009,0.433c-0.011,0.169 0.054,0.31 0.194,0.421c0.102,0.071 0.228,0.106 0.377,0.106l2.886,0c0.207,-0.001 0.363,-0.088 0.467,-0.26Zm4.971,0.044c0.066,-0.106 0.099,-0.229 0.099,-0.37c-0.005,-0.117 -0.005,-0.239 0,-0.366c0,-0.045 -0.022,-0.064 -0.066,-0.057c-0.093,0.009 -0.207,0.014 -0.344,0.013c-1.202,-0.003 -2.385,-0.004 -3.549,-0.003c-0.019,-0 -0.03,0.009 -0.034,0.028c0.005,0.058 0.003,0.152 -0.006,0.283c-0.014,0.207 0.026,0.377 0.121,0.509c0.068,0.084 0.15,0.136 0.246,0.158c0.019,0.004 0.038,0.007 0.058,0.007c0.871,-0.002 1.754,0.003 2.651,0.014c0.217,0.003 0.407,-0.007 0.571,-0.029c0.112,-0.033 0.196,-0.096 0.253,-0.187Zm-8.945,1.102c-0.201,-0.081 -0.376,-0.2 -0.525,-0.355c-0.252,-0.262 -0.392,-0.571 -0.421,-0.926c-0.013,-0.169 -0.018,-0.354 -0.014,-0.555c0.001,-0.031 -0.014,-0.046 -0.045,-0.046l-2.918,0c-0.019,0 -0.028,0.009 -0.027,0.028c0.007,0.225 0.003,0.426 -0.014,0.602c-0.021,0.247 -0.104,0.476 -0.249,0.689c-0.188,0.275 -0.421,0.462 -0.698,0.558c-0.032,0.012 -0.049,0.035 -0.049,0.07l0,7.6c0,0.025 0.012,0.042 0.035,0.05c0.209,0.078 0.392,0.201 0.548,0.368c0.254,0.272 0.392,0.593 0.413,0.963c0.01,0.175 0.014,0.355 0.015,0.541c-0.001,0.02 0.009,0.03 0.029,0.03l2.929,0c0.032,0 0.046,-0.016 0.041,-0.047c-0.018,-0.139 -0.019,-0.26 -0.001,-0.364c0.003,-0.019 0.004,-0.038 0.003,-0.058c-0.014,-0.264 0.052,-0.522 0.196,-0.772c0.178,-0.309 0.425,-0.525 0.741,-0.647c0.041,-0.015 0.061,-0.045 0.061,-0.089l-0,-7.566c-0,-0.036 -0.017,-0.061 -0.05,-0.074Zm-9.915,7.716c0.164,0.066 0.301,0.149 0.41,0.251c0.024,0.022 0.049,0.023 0.075,0.004c0.161,-0.113 0.308,-0.201 0.441,-0.264c0.018,-0.008 0.027,-0.022 0.027,-0.042c0.004,-2.518 0.005,-5.055 0.003,-7.611c0,-0.03 -0.014,-0.051 -0.043,-0.061c-0.163,-0.058 -0.3,-0.14 -0.412,-0.244c-0.026,-0.024 -0.053,-0.025 -0.08,-0.002c-0.115,0.099 -0.24,0.176 -0.373,0.232c-0.059,0.024 -0.088,0.068 -0.088,0.131l0,7.547c0,0.029 0.013,0.049 0.04,0.059Zm14.004,0c0.153,0.066 0.289,0.149 0.41,0.249c0.028,0.023 0.056,0.024 0.084,0.002c0.151,-0.114 0.295,-0.201 0.432,-0.261c0.018,-0.007 0.026,-0.021 0.026,-0.041c0.005,-2.459 0.006,-4.99 0.004,-7.591c0,-0.044 -0.021,-0.073 -0.063,-0.087c-0.151,-0.052 -0.276,-0.125 -0.375,-0.221c-0.026,-0.025 -0.055,-0.028 -0.086,-0.008c-0.162,0.102 -0.31,0.187 -0.442,0.255c-0.018,0.009 -0.027,0.023 -0.027,0.042c-0.004,2.518 -0.005,5.052 -0.003,7.6c-0,0.03 0.013,0.05 0.04,0.061Zm-15.04,-7.571c0,-0.019 -0.015,-0.035 -0.035,-0.035l-1.937,0c-0.019,0 -0.035,0.016 -0.035,0.035l0,7.43c0,0.019 0.016,0.035 0.035,0.035l1.937,0c0.02,0 0.035,-0.016 0.035,-0.035l0,-7.43Zm4.995,-0.012c0,-0.012 -0.01,-0.023 -0.023,-0.023l-1.946,0c-0.013,0 -0.023,0.011 -0.023,0.023l-0,7.454c-0,0.013 0.01,0.023 0.023,0.023l1.946,0c0.013,0 0.023,-0.01 0.023,-0.023l0,-7.454Zm8.995,0c-0,-0.012 -0.011,-0.023 -0.023,-0.023l-1.947,0c-0.012,0 -0.022,0.011 -0.022,0.023l-0,7.454c-0,0.013 0.01,0.023 0.022,0.023l1.947,0c0.012,0 0.023,-0.01 0.023,-0.023l-0,-7.454Zm5.009,0.015c-0,-0.021 -0.017,-0.038 -0.038,-0.038l-1.931,0c-0.02,0 -0.037,0.017 -0.037,0.038l-0,7.425c-0,0.02 0.017,0.037 0.037,0.037l1.931,0c0.021,0 0.038,-0.017 0.038,-0.037l-0,-7.425Zm-18.205,8.572c-0.095,-0.075 -0.213,-0.113 -0.355,-0.114c-0.975,-0.006 -1.951,-0.005 -2.926,0.004c-0.179,0.001 -0.316,0.065 -0.41,0.19c-0.079,0.105 -0.114,0.221 -0.106,0.348c0.002,0.118 0.002,0.235 -0,0.352c-0,0.078 0.039,0.117 0.117,0.117c1.288,0.002 2.567,0.001 3.835,-0.003c0.019,-0 0.031,-0.01 0.035,-0.029c0.007,-0.075 0.01,-0.197 0.012,-0.363c0.002,-0.225 -0.065,-0.392 -0.202,-0.502Zm4.956,-0.031c-0.059,-0.039 -0.123,-0.063 -0.194,-0.072c-0.095,-0.009 -0.224,-0.012 -0.385,-0.011c-0.786,0.008 -1.572,0.008 -2.359,0c-0.155,-0.016 -0.3,-0.01 -0.436,0.019c-0.207,0.038 -0.33,0.164 -0.369,0.377c-0.028,0.151 -0.032,0.34 -0.013,0.568c0.001,0.032 0.017,0.047 0.048,0.047l3.887,0c0.039,0 0.059,-0.019 0.06,-0.058c-0.001,-0.115 -0,-0.257 0.002,-0.425c0.003,-0.185 -0.077,-0.333 -0.241,-0.445Zm9.063,0.046c-0.095,-0.069 -0.213,-0.107 -0.355,-0.114c-0.063,-0.01 -0.136,-0.015 -0.22,-0.015l-2.578,0c-0.15,-0.013 -0.281,0.008 -0.392,0.063c-0.188,0.093 -0.277,0.248 -0.267,0.465c0.003,0.154 0,0.3 -0.01,0.439c-0.002,0.029 0.011,0.044 0.041,0.044l3.895,0c0.047,0 0.071,-0.023 0.072,-0.071c0.014,-0.212 0.009,-0.388 -0.014,-0.529c-0.025,-0.123 -0.082,-0.217 -0.172,-0.282Zm4.946,-0.038c-0.074,-0.05 -0.156,-0.076 -0.246,-0.078c-1.018,-0.023 -2.048,-0.022 -3.092,0.001c-0.02,0.001 -0.039,0.003 -0.058,0.008c-0.213,0.054 -0.335,0.195 -0.363,0.421c-0.019,0.145 -0.02,0.317 -0.003,0.515c-0,0.036 0.018,0.053 0.052,0.053l3.89,0c0.037,0 0.056,-0.018 0.056,-0.055c0.006,-0.149 0.006,-0.302 0,-0.458c-0.007,-0.176 -0.086,-0.312 -0.236,-0.407Zm2.539,4.022c-0.099,-0.064 -0.222,-0.097 -0.369,-0.099c-0.063,-0.009 -0.136,-0.014 -0.22,-0.015c-3.399,-0.012 -6.797,-0.012 -10.195,0c-0.203,0 -0.353,-0.084 -0.451,-0.252c-0.076,-0.124 -0.091,-0.253 -0.044,-0.389c0.073,-0.21 0.214,-0.328 0.421,-0.351c0.02,-0.002 0.039,-0.004 0.059,-0.004c3.176,0.002 6.324,0.001 9.445,-0.003c0.019,-0 0.031,-0.01 0.035,-0.029c0.006,-0.081 0.01,-0.212 0.012,-0.392c0.002,-0.183 -0.055,-0.331 -0.172,-0.443c-0.097,-0.086 -0.21,-0.129 -0.341,-0.129c-7.968,0.009 -15.937,0.009 -23.906,0c-0.138,-0.012 -0.259,0.019 -0.363,0.092c-0.167,0.118 -0.237,0.298 -0.208,0.538c0.011,0.124 0.007,0.223 -0.011,0.297c-0.008,0.046 0.011,0.069 0.058,0.069c3.152,0.001 6.296,0.001 9.43,0c0.199,0 0.349,0.085 0.451,0.253c0.085,0.136 0.095,0.28 0.029,0.432c-0.08,0.185 -0.21,0.287 -0.392,0.308c-0.019,0.002 -0.039,0.003 -0.058,0.003c-3.428,0.004 -6.866,0.004 -10.313,0c-0.124,-0.013 -0.242,-0.003 -0.351,0.03c-0.191,0.051 -0.303,0.173 -0.337,0.366c-0.028,0.156 -0.032,0.347 -0.015,0.571c0.001,0.03 0.016,0.044 0.045,0.044l27.909,0c0.035,0 0.053,-0.017 0.053,-0.051c0.021,-0.23 0.015,-0.422 -0.017,-0.575c-0.029,-0.121 -0.09,-0.211 -0.184,-0.271Z" style="fill:#d6a57d;fill-rule:nonzero;"/><path d="M16.995,7.092c0,1.094 -0.901,1.995 -1.995,1.995c-1.094,-0 -1.995,-0.901 -1.995,-1.995c-0,-1.095 0.901,-1.995 1.995,-1.995c1.094,-0 1.995,0.9 1.995,1.995Zm-0.998,-0c-0,-0.547 -0.45,-0.997 -0.997,-0.997c-0.547,0 -0.997,0.45 -0.997,0.997c0,0.547 0.45,0.996 0.997,0.996c0.547,0 0.997,-0.449 0.997,-0.996Z" style="fill:#d6a57d;fill-rule:nonzero;"/><circle cx="15" cy="7.092" r="0.997" style="fill:#d6a57d;fill-opacity:0;"/><path d="M6.504,15.792c0,-0.248 -0.201,-0.45 -0.45,-0.45l-1.107,0c-0.248,0 -0.45,0.202 -0.45,0.45l0,6.6c0,0.249 0.202,0.45 0.45,0.45l1.107,0c0.249,0 0.45,-0.201 0.45,-0.45l0,-6.6Z" style="fill:#d6a57d;fill-opacity:0;"/><path d="M11.499,15.635c0,-0.162 -0.131,-0.293 -0.292,-0.293l-1.408,0c-0.161,0 -0.292,0.131 -0.292,0.293l-0,6.915c-0,0.161 0.131,0.292 0.292,0.292l1.408,0c0.161,0 0.292,-0.131 0.292,-0.292l0,-6.915Z" style="fill:#d6a57d;fill-opacity:0;"/><path d="M20.494,15.635c-0,-0.162 -0.131,-0.293 -0.293,-0.293l-1.407,0c-0.161,0 -0.292,0.131 -0.292,0.293l-0,6.915c-0,0.161 0.131,0.292 0.292,0.292l1.407,0c0.162,0 0.293,-0.131 0.293,-0.292l-0,-6.915Z" style="fill:#d6a57d;fill-opacity:0;"/><path d="M25.503,15.822c-0,-0.265 -0.215,-0.48 -0.48,-0.48l-1.046,0c-0.265,0 -0.48,0.215 -0.48,0.48l-0,6.54c-0,0.265 0.215,0.48 0.48,0.48l1.046,0c0.265,0 0.48,-0.215 0.48,-0.48l-0,-6.54Z" style="fill:#d6a57d;fill-opacity:0;"/></g></svg>