<?xml version="1.0" encoding="UTF-8" standalone="no"?><!DOCTYPE svg PUBLIC "-//W3C//DTD SVG 1.1//EN" "http://www.w3.org/Graphics/SVG/1.1/DTD/svg11.dtd"><svg width="100%" height="100%" viewBox="0 0 27 27" version="1.1" xmlns="http://www.w3.org/2000/svg" xmlns:xlink="http://www.w3.org/1999/xlink" xml:space="preserve" xmlns:serif="http://www.serif.com/" style="fill-rule:evenodd;clip-rule:evenodd;stroke-linejoin:round;stroke-miterlimit:2;"><path d="M14.11,7.146c-0.675,0.107 -1.15,0.337 -1.539,0.747c-0.328,0.346 -0.532,0.751 -0.648,1.285c-0.044,0.202 -0.049,0.323 -0.059,1.273l-0.01,1.05l-1.849,-0l-0,2.134l0.92,0.006l0.921,0.006l0.006,2.739l0.006,2.739l2.205,-0l0,-5.49l0.915,0c0.503,0 0.915,-0.002 0.916,-0.005c0.061,-0.428 0.27,-2.1 0.264,-2.112c-0.005,-0.01 -0.48,-0.017 -1.054,-0.017l-1.044,-0l0.008,-0.874c0.008,-0.855 0.009,-0.877 0.063,-1.013c0.11,-0.275 0.341,-0.438 0.687,-0.483c0.094,-0.012 0.454,-0.022 0.8,-0.023l0.627,-0l-0.006,-0.956l-0.006,-0.956l-0.305,-0.028c-0.5,-0.046 -1.584,-0.058 -1.818,-0.022Z" style="fill:#fff;"/><path d="M13.125,0c7.244,0 13.125,5.881 13.125,13.125c-0,7.244 -5.881,13.125 -13.125,13.125c-7.244,0 -13.125,-5.881 -13.125,-13.125c-0,-7.244 5.881,-13.125 13.125,-13.125Zm-0,1.5c6.416,0 11.625,5.209 11.625,11.625c-0,6.416 -5.209,11.625 -11.625,11.625c-6.416,0 -11.625,-5.209 -11.625,-11.625c-0,-6.416 5.209,-11.625 11.625,-11.625Z" style="fill:#fff;"/></svg>