<?xml version="1.0" encoding="UTF-8" standalone="no"?><!DOCTYPE svg PUBLIC "-//W3C//DTD SVG 1.1//EN" "http://www.w3.org/Graphics/SVG/1.1/DTD/svg11.dtd"><svg width="100%" height="100%" viewBox="0 0 27 27" version="1.1" xmlns="http://www.w3.org/2000/svg" xmlns:xlink="http://www.w3.org/1999/xlink" xml:space="preserve" xmlns:serif="http://www.serif.com/" style="fill-rule:evenodd;clip-rule:evenodd;stroke-linejoin:round;stroke-miterlimit:2;"><path d="M15.173,7.914c-1.033,0.186 -1.849,0.939 -2.122,1.959c-0.048,0.175 -0.057,0.28 -0.059,0.627c-0.001,0.229 0.008,0.466 0.018,0.526l0.02,0.109l-0.172,-0.015c-1.115,-0.102 -2.018,-0.357 -2.916,-0.825c-0.83,-0.432 -1.695,-1.11 -2.225,-1.745c-0.079,-0.094 -0.155,-0.168 -0.169,-0.164c-0.014,0.005 -0.069,0.107 -0.122,0.227c-0.364,0.82 -0.296,1.768 0.179,2.504c0.139,0.216 0.366,0.471 0.55,0.618l0.191,0.154l-0.103,-0c-0.223,-0 -0.687,-0.125 -0.937,-0.252c-0.055,-0.028 -0.11,-0.051 -0.121,-0.051c-0.036,-0 0.012,0.463 0.07,0.684c0.23,0.872 0.879,1.561 1.741,1.849c0.143,0.048 0.244,0.094 0.224,0.101c-0.114,0.044 -0.49,0.073 -0.781,0.062l-0.328,-0.014l0.017,0.065c0.028,0.111 0.215,0.465 0.331,0.628c0.448,0.625 1.178,1.055 1.891,1.112c0.108,0.008 0.197,0.024 0.197,0.035c-0,0.042 -0.568,0.393 -0.915,0.565c-0.791,0.391 -1.572,0.561 -2.491,0.54l-0.469,-0.011l0.133,0.084c0.194,0.121 0.781,0.417 1.045,0.526c1.42,0.587 3.078,0.721 4.644,0.374c2.303,-0.51 4.199,-2.105 5.156,-4.339c0.409,-0.956 0.614,-1.894 0.635,-2.905l0.01,-0.455l0.183,-0.147c0.235,-0.188 0.498,-0.438 0.697,-0.662c0.169,-0.191 0.417,-0.521 0.403,-0.535c-0.005,-0.005 -0.082,0.02 -0.171,0.056c-0.335,0.137 -1.113,0.334 -1.23,0.311c-0.029,-0.005 -0.008,-0.03 0.068,-0.079c0.191,-0.127 0.532,-0.475 0.677,-0.693c0.126,-0.189 0.31,-0.559 0.311,-0.625c0,-0.013 -0.155,0.051 -0.345,0.144c-0.343,0.168 -0.791,0.329 -1.142,0.412l-0.184,0.043l-0.153,-0.141c-0.593,-0.548 -1.449,-0.799 -2.236,-0.657Z" style="fill:#fff;"/><path d="M13.125,0c7.244,0 13.125,5.881 13.125,13.125c-0,7.244 -5.881,13.125 -13.125,13.125c-7.244,0 -13.125,-5.881 -13.125,-13.125c-0,-7.244 5.881,-13.125 13.125,-13.125Zm-0,1.5c6.416,0 11.625,5.209 11.625,11.625c-0,6.416 -5.209,11.625 -11.625,11.625c-6.416,0 -11.625,-5.209 -11.625,-11.625c-0,-6.416 5.209,-11.625 11.625,-11.625Z" style="fill:#fff;"/></svg>