<?xml version="1.0" encoding="UTF-8" standalone="no"?><!DOCTYPE svg PUBLIC "-//W3C//DTD SVG 1.1//EN" "http://www.w3.org/Graphics/SVG/1.1/DTD/svg11.dtd"><svg width="100%" height="100%" viewBox="0 0 30 30" version="1.1" xmlns="http://www.w3.org/2000/svg" xmlns:xlink="http://www.w3.org/1999/xlink" xml:space="preserve" xmlns:serif="http://www.serif.com/" style="fill-rule:evenodd;clip-rule:evenodd;stroke-linejoin:round;stroke-miterlimit:2;"><g><path d="M0.941,0l4.863,0c0.166,0.03 0.281,0.12 0.345,0.267c0.049,0.115 0.049,0.225 -0,0.33c-0.064,0.159 -0.185,0.252 -0.363,0.278c-0.02,0.003 -0.039,0.004 -0.058,0.004c-1.567,-0.002 -3.127,-0.001 -4.68,0.003c-0.113,0.001 -0.169,0.057 -0.169,0.17l-0,6.007c-0,0.073 0.035,0.121 0.104,0.143c0.045,0.013 0.103,0.02 0.174,0.02c9.219,0.004 18.438,0.004 27.656,-0c0.072,-0 0.13,-0.005 0.173,-0.015c0.09,-0.007 0.135,-0.056 0.135,-0.146l0,-6.003c0,-0.12 -0.059,-0.179 -0.179,-0.179c-7.072,0.002 -14.126,0.001 -21.16,-0.004c-0.02,0 -0.039,-0.001 -0.058,-0.004c-0.156,-0.022 -0.269,-0.113 -0.338,-0.274c-0.05,-0.116 -0.045,-0.231 0.015,-0.344c0.066,-0.133 0.178,-0.217 0.337,-0.253l21.343,-0c0.277,0.039 0.505,0.162 0.681,0.37c0.136,0.16 0.215,0.355 0.238,0.586l0,6.225c-0.048,0.289 -0.181,0.521 -0.399,0.696c-0.12,0.096 -0.267,0.162 -0.441,0.198c-0.026,0.006 -0.039,0.023 -0.039,0.05l0,19.209c0,0.026 0.013,0.042 0.039,0.047c0.24,0.043 0.441,0.161 0.602,0.352c0.131,0.155 0.21,0.346 0.238,0.571l0,0.777c-0.043,0.237 -0.132,0.43 -0.267,0.579c-0.175,0.191 -0.399,0.304 -0.674,0.34l-28.125,-0c-0.241,-0.038 -0.439,-0.127 -0.594,-0.267c-0.19,-0.174 -0.304,-0.399 -0.34,-0.674l-0,-0.732c0.02,-0.169 0.061,-0.308 0.121,-0.418c0.141,-0.258 0.366,-0.431 0.675,-0.522c0.055,-0.016 0.083,-0.054 0.083,-0.112l-0,-19.101c-0,-0.061 -0.03,-0.099 -0.089,-0.114c-0.251,-0.057 -0.454,-0.196 -0.611,-0.417c-0.101,-0.143 -0.161,-0.314 -0.179,-0.513l-0,-6.211c0.035,-0.219 0.114,-0.402 0.238,-0.549c0.177,-0.212 0.412,-0.335 0.703,-0.37Zm17.988,21.076c-0.112,-0.113 -0.154,-0.258 -0.125,-0.437c0.003,-0.019 0.005,-0.038 0.005,-0.058c-0.008,-1.035 -0.008,-2.08 -0,-3.135c0,-0.081 -0.008,-0.15 -0.026,-0.208c-0.025,-0.057 -0.068,-0.085 -0.129,-0.085l-7.287,0c-0.117,0 -0.176,0.059 -0.176,0.176l0,9.99c0,0.03 0.015,0.044 0.044,0.044l7.53,0c0.029,0 0.044,-0.014 0.044,-0.044c0.007,-1.484 0.007,-2.968 -0,-4.453c-0.005,-0.139 0.035,-0.255 0.12,-0.348c0.099,-0.108 0.22,-0.154 0.363,-0.135c0.16,0.02 0.275,0.102 0.344,0.245c0.034,0.069 0.051,0.142 0.051,0.219c-0.001,1.516 -0,3.008 0.004,4.478c0,0.025 0.013,0.038 0.039,0.038c2.895,0.002 5.72,0.001 8.474,-0.003c0.025,-0 0.038,-0.013 0.038,-0.039l0,-19.171c0,-0.049 -0.024,-0.069 -0.072,-0.058c-0.044,0.006 -0.108,0.009 -0.191,0.009c-8.719,-0.003 -17.445,-0.004 -26.18,-0.004c-0.025,0 -0.038,0.013 -0.038,0.038c-0.004,6.353 -0.005,12.748 -0.003,19.184c-0,0.03 0.014,0.044 0.044,0.044l8.467,0c0.029,0 0.043,-0.014 0.043,-0.044c0.001,-3.34 0.001,-6.67 0,-9.99c0,-0.344 0.129,-0.621 0.385,-0.831c0.223,-0.182 0.475,-0.258 0.758,-0.227c0.02,0.002 0.039,0.003 0.059,0.003c2.363,0.007 4.736,0.007 7.119,0c0.227,-0.005 0.436,0.06 0.626,0.194c0.199,0.141 0.328,0.326 0.385,0.553c0.028,0.115 0.042,0.262 0.043,0.44c0.008,1.094 0.008,2.187 0,3.281c0.002,0.204 -0.082,0.345 -0.252,0.421c-0.195,0.088 -0.364,0.058 -0.506,-0.087Zm10.105,7.183c-0.024,-0.011 -0.048,-0.017 -0.074,-0.017l-27.932,0c-0.083,0 -0.129,0.042 -0.138,0.124c-0.02,0.19 -0.021,0.395 -0.002,0.615c0.008,0.093 0.058,0.14 0.152,0.14l27.905,0c0.117,0 0.176,-0.059 0.176,-0.176c0.002,-0.181 0.002,-0.361 0,-0.542c-0.001,-0.069 -0.03,-0.117 -0.087,-0.144Z" style="fill:#d6a57d;fill-rule:nonzero;"/><path d="M20.918,1.758c0.507,0.005 0.95,0.148 1.329,0.428c0.143,0.104 0.192,0.253 0.147,0.447c-0.027,0.126 -0.094,0.215 -0.202,0.267c-0.127,0.073 -0.254,0.085 -0.379,0.037c-0.018,-0.007 -0.035,-0.016 -0.051,-0.027c-0.339,-0.228 -0.707,-0.313 -1.104,-0.255c-0.303,0.044 -0.564,0.174 -0.784,0.388c-0.33,0.311 -0.485,0.693 -0.465,1.146c0.019,0.42 0.186,0.771 0.502,1.052c0.293,0.264 0.628,0.387 1.007,0.369c0.35,-0.01 0.644,-0.15 0.882,-0.421c0.124,-0.132 0.268,-0.166 0.433,-0.102c0.235,0.075 0.339,0.23 0.311,0.465c-0.019,0.157 -0.115,0.3 -0.29,0.428c-0.44,0.379 -0.959,0.544 -1.556,0.495c-0.331,-0.028 -0.643,-0.122 -0.934,-0.282c-0.336,-0.171 -0.62,-0.429 -0.849,-0.777c-0.339,-0.509 -0.456,-1.073 -0.352,-1.692c0.096,-0.57 0.367,-1.041 0.813,-1.413c0.442,-0.375 0.956,-0.559 1.542,-0.553Z" style="fill:#d6a57d;fill-rule:nonzero;"/><path d="M4.515,1.776c0.37,-0.011 0.749,-0.012 1.139,-0.004c0.399,0.009 0.737,0.14 1.015,0.392c0.364,0.306 0.538,0.703 0.523,1.19c-0.01,0.499 -0.226,0.893 -0.648,1.183c-0.293,0.202 -0.614,0.296 -0.963,0.282c-0.151,-0.003 -0.302,-0.003 -0.454,0c-0.078,0 -0.117,0.039 -0.117,0.118c-0.013,0.347 -0.013,0.693 -0,1.04c0.006,0.159 -0.038,0.291 -0.132,0.395c-0.147,0.15 -0.322,0.174 -0.524,0.07c-0.154,-0.08 -0.228,-0.22 -0.223,-0.421c-0.006,-1.29 -0.006,-2.569 -0,-3.838c-0,-0.02 0.002,-0.039 0.007,-0.058c0.038,-0.159 0.145,-0.272 0.32,-0.338c0.019,-0.008 0.038,-0.011 0.057,-0.011Zm1.582,1.062c-0.127,-0.118 -0.284,-0.18 -0.472,-0.187c-0.205,-0.006 -0.396,-0.003 -0.575,0.009c-0.019,0.002 -0.029,0.012 -0.03,0.032c-0.017,0.408 -0.017,0.815 -0,1.221c0.001,0.022 0.012,0.033 0.034,0.032c0.189,-0.001 0.384,-0.003 0.586,-0.005c0.25,0.003 0.44,-0.1 0.571,-0.307c0.147,-0.233 0.141,-0.467 -0.018,-0.7c-0.035,-0.037 -0.067,-0.068 -0.096,-0.095Z" style="fill:#d6a57d;fill-rule:nonzero;"/><path d="M12.797,4.136c0,1.294 -1.065,2.36 -2.36,2.36c-1.294,-0 -2.36,-1.066 -2.36,-2.36c0,-1.295 1.066,-2.361 2.36,-2.361c1.295,0 2.36,1.066 2.36,2.361Zm-0.877,-0c-0,-0.814 -0.669,-1.483 -1.483,-1.483c-0.813,0 -1.482,0.669 -1.482,1.483c-0,0.813 0.669,1.482 1.482,1.482c0.814,-0 1.483,-0.669 1.483,-1.482Z" style="fill:#d6a57d;fill-rule:nonzero;"/><path d="M14.279,1.805c0.178,0.087 0.267,0.233 0.267,0.436c-0.001,1.094 -0.001,2.208 -0,3.341c-0,0.026 0.013,0.039 0.039,0.039c0.231,0.017 0.487,0.018 0.767,0.004c0.189,-0.01 0.334,0.04 0.436,0.15c0.135,0.159 0.149,0.327 0.043,0.506c-0.065,0.109 -0.152,0.176 -0.261,0.2c-0.019,0.006 -0.038,0.009 -0.057,0.009c-0.489,0.023 -0.977,0.023 -1.465,0c-0.02,-0 -0.039,-0.003 -0.058,-0.008c-0.171,-0.048 -0.276,-0.159 -0.313,-0.334c-0.004,-0.019 -0.006,-0.038 -0.006,-0.058c-0.009,-1.282 -0.011,-2.575 -0.004,-3.878c0.001,-0.176 0.08,-0.307 0.238,-0.392c0.128,-0.071 0.252,-0.076 0.374,-0.015Z" style="fill:#d6a57d;fill-rule:nonzero;"/><path d="M17.651,2.214c-0,-0.242 -0.197,-0.439 -0.439,-0.439c-0.242,0 -0.439,0.197 -0.439,0.439l0,3.837c0,0.242 0.197,0.439 0.439,0.439c0.242,-0 0.439,-0.197 0.439,-0.439l-0,-3.837Z" style="fill:#d6a57d;"/><path d="M24.272,1.801c0.471,-0.006 0.876,-0.001 1.216,0.014c0.02,0.001 0.039,0.004 0.058,0.008c0.17,0.042 0.273,0.152 0.308,0.33c0.043,0.196 -0.017,0.346 -0.179,0.451c-0.097,0.062 -0.218,0.088 -0.363,0.077c-0.312,-0.01 -0.624,-0.01 -0.937,-0c-0.076,-0 -0.115,0.038 -0.117,0.114c-0.009,0.363 -0.004,0.66 0.016,0.893c0.001,0.019 0.012,0.029 0.031,0.029c0.35,0.004 0.701,0.006 1.051,0.004c0.02,-0 0.039,0.002 0.058,0.006c0.175,0.04 0.282,0.151 0.32,0.334c0.028,0.137 -0,0.258 -0.085,0.363c-0.068,0.094 -0.161,0.148 -0.278,0.161c-0.365,0.032 -0.72,0.034 -1.066,0.006c-0.019,-0.002 -0.03,0.007 -0.031,0.027c-0.02,0.235 -0.025,0.542 -0.016,0.921c0.002,0.057 0.031,0.086 0.088,0.086l1.094,0c0.077,0 0.148,0.02 0.213,0.061c0.173,0.103 0.241,0.259 0.201,0.466c-0.032,0.172 -0.13,0.282 -0.294,0.328c-0.018,0.006 -0.038,0.01 -0.057,0.01c-0.47,0.016 -0.944,0.021 -1.421,0.014c-0.02,0 -0.039,0.001 -0.058,0.005c-0.155,0.023 -0.296,0.001 -0.422,-0.067c-0.149,-0.08 -0.223,-0.21 -0.223,-0.392c0.011,-1.197 0.011,-2.393 -0,-3.589c-0.002,-0.152 0.014,-0.287 0.047,-0.407c0.044,-0.114 0.126,-0.189 0.246,-0.223c0.162,-0.046 0.342,-0.057 0.542,-0.033c0.019,0.003 0.039,0.004 0.058,0.003Z" style="fill:#d6a57d;fill-rule:nonzero;"/><circle cx="10.437" cy="4.136" r="1.482" style="fill:#d6a57d;fill-opacity:0;"/><path d="M13.857,8.921l2.286,-0c0.019,-0 0.038,0.002 0.057,0.007c0.171,0.043 0.314,0.162 0.429,0.356c0.167,0.304 0.401,0.538 0.704,0.703c0.235,0.128 0.373,0.281 0.416,0.458c0.003,0.019 0.005,0.038 0.005,0.058c0.001,0.327 0.001,0.664 -0,1.011c-0.001,0.79 -0.2,1.514 -0.597,2.171c-0.231,0.382 -0.519,0.724 -0.864,1.026c-0.346,0.303 -0.718,0.536 -1.117,0.699c-0.131,0.053 -0.262,0.047 -0.392,-0.018c-0.421,-0.195 -0.799,-0.442 -1.135,-0.74c-0.19,-0.168 -0.381,-0.373 -0.571,-0.615c-0.487,-0.639 -0.759,-1.353 -0.817,-2.142c-0.026,-0.354 -0.032,-0.754 -0.015,-1.202c-0,-0.019 -0.001,-0.039 -0.004,-0.058c-0.025,-0.187 0.027,-0.342 0.154,-0.465c0.074,-0.071 0.16,-0.131 0.26,-0.18c0.298,-0.17 0.536,-0.405 0.715,-0.706c0.112,-0.191 0.255,-0.31 0.428,-0.357c0.02,-0.004 0.039,-0.006 0.058,-0.006Zm0.407,5.101c0.214,0.186 0.448,0.347 0.704,0.484c0.021,0.011 0.043,0.011 0.065,-0.001c0.417,-0.206 0.78,-0.496 1.091,-0.871c0.493,-0.593 0.743,-1.276 0.751,-2.047c0.004,-0.254 0.004,-0.509 0,-0.766c0,-0.056 -0.023,-0.1 -0.07,-0.131c-0.319,-0.215 -0.611,-0.501 -0.876,-0.856c-0.011,-0.015 -0.027,-0.023 -0.047,-0.024c-0.554,-0.012 -1.139,-0.015 -1.754,-0.01c-0.031,0.001 -0.054,0.013 -0.071,0.037c-0.251,0.354 -0.542,0.639 -0.873,0.856c-0.038,0.025 -0.058,0.06 -0.058,0.105c-0.016,0.421 -0.011,0.776 0.014,1.067c0.041,0.493 0.189,0.941 0.443,1.344c0.191,0.316 0.418,0.587 0.681,0.813Z" style="fill:#d6a57d;fill-rule:nonzero;"/><path d="M3.589,8.979c1.587,0.003 3.184,0.003 4.79,0c0.269,0 0.499,0.082 0.692,0.246c0.24,0.196 0.361,0.446 0.363,0.751c0.011,2.08 0.011,4.16 -0,6.24c-0.002,0.279 -0.089,0.52 -0.261,0.721c-0.148,0.172 -0.335,0.282 -0.563,0.33c-0.126,0.023 -0.276,0.029 -0.451,0.018c-1.435,-0.005 -2.861,-0.005 -4.277,0c-0.02,0 -0.039,0.001 -0.059,0.004c-0.257,0.029 -0.49,-0.022 -0.699,-0.154c-0.323,-0.195 -0.485,-0.477 -0.487,-0.846c-0.014,-2.051 -0.014,-4.092 -0,-6.123c-0,-0.02 -0.001,-0.039 -0.003,-0.059c-0.022,-0.232 0.029,-0.446 0.153,-0.641c0.185,-0.291 0.433,-0.453 0.743,-0.484c0.02,-0.002 0.039,-0.003 0.059,-0.003Zm-0.063,0.991c-0.007,0.02 -0.01,0.04 -0.01,0.061l-0,2.628c-0,0.025 0.013,0.037 0.038,0.037c0.621,-0.012 1.285,-0.016 1.991,-0.01c0.032,0.001 0.047,-0.015 0.047,-0.046c0.004,-0.903 0.006,-1.815 0.004,-2.738c-0,-0.029 -0.015,-0.044 -0.044,-0.044c-0.645,0 -1.28,0 -1.905,0c-0.054,0 -0.094,0.038 -0.121,0.112Zm4.898,-0.102c-0.607,-0.012 -1.232,-0.015 -1.876,-0.01c-0.049,0.001 -0.073,0.025 -0.073,0.074c-0.006,0.922 -0.002,1.831 0.01,2.728c0.001,0.019 0.011,0.029 0.03,0.029c0.633,-0.004 1.301,-0.005 2.005,-0.003c0.021,-0 0.031,-0.011 0.031,-0.032c0.004,-0.849 0.006,-1.733 0.004,-2.653c-0.001,-0.086 -0.044,-0.131 -0.131,-0.133Zm-4.834,6.515c0.027,0.016 0.056,0.023 0.087,0.023c0.634,0.002 1.261,0.001 1.881,-0.003c0.025,-0.001 0.038,-0.014 0.038,-0.039l-0,-2.757c-0,-0.026 -0.013,-0.039 -0.039,-0.039c-0.649,-0.004 -1.308,-0.006 -1.976,-0.004c-0.044,0 -0.065,0.022 -0.065,0.066c-0.009,0.87 -0.009,1.746 -0,2.63c0,0.06 0.025,0.101 0.074,0.123Zm4.944,-0.058c0.015,-0.05 0.021,-0.116 0.021,-0.197c-0.008,-0.82 -0.008,-1.661 -0,-2.521c-0,-0.026 -0.013,-0.039 -0.039,-0.039c-0.649,-0.004 -1.315,-0.006 -1.997,-0.004c-0.03,0 -0.044,0.015 -0.044,0.044l-0,2.756c-0,0.026 0.013,0.039 0.038,0.039c0.61,0.004 1.242,0.005 1.897,0.003c0.059,-0 0.1,-0.027 0.124,-0.081Z" style="fill:#d6a57d;fill-rule:nonzero;"/><path d="M27.363,16.26c-0,0.562 -0.463,1.025 -1.026,1.025l-4.746,0c-0.562,0 -1.025,-0.463 -1.025,-1.025l-0,-6.256c-0,-0.562 0.463,-1.025 1.025,-1.025l4.746,-0c0.563,-0 1.026,0.463 1.026,1.025l-0,6.256Zm-5.907,-6.274c-0.013,0.843 -0.016,1.733 -0.01,2.668c0,0.029 0.015,0.043 0.043,0.042c0.615,-0.014 1.277,-0.017 1.985,-0.007c0.034,0.001 0.051,-0.016 0.051,-0.05l0,-2.73c0,-0.034 -0.017,-0.051 -0.051,-0.051l-1.889,0c-0.085,0 -0.128,0.043 -0.129,0.128Zm2.945,2.677c-0.001,0.017 0.008,0.026 0.025,0.026c0.646,-0.004 1.317,-0.005 2.013,-0.003c0.028,-0 0.042,-0.014 0.042,-0.041c0.004,-0.872 0.005,-1.749 0.003,-2.629c-0,-0.105 -0.053,-0.158 -0.158,-0.158l-1.892,0c-0.02,0 -0.03,0.01 -0.03,0.03c0.002,0.917 0.001,1.842 -0.003,2.775Zm-2.837,3.733c0.605,0.012 1.22,0.016 1.845,0.01c0.078,-0.001 0.116,-0.04 0.116,-0.117l0,-2.674c0,-0.034 -0.017,-0.051 -0.051,-0.051l-1.912,0c-0.078,0 -0.117,0.04 -0.117,0.118l0,2.592c0,0.08 0.04,0.12 0.119,0.122Zm4.909,-0.109c0.013,-0.868 0.017,-1.742 0.011,-2.621c-0,-0.068 -0.034,-0.102 -0.102,-0.102c-0.654,-0.001 -1.3,-0 -1.939,0.004c-0.026,0 -0.039,0.013 -0.039,0.039l0,2.755c0,0.03 0.015,0.044 0.044,0.044l1.905,0c0.079,0 0.119,-0.039 0.12,-0.119Z" style="fill:#d6a57d;fill-rule:nonzero;"/><path d="M9.434,25.446c-0,0.569 -0.469,1.038 -1.039,1.038l-4.72,-0c-0.57,-0 -1.038,-0.469 -1.038,-1.038l-0,-6.243c-0,-0.57 0.468,-1.038 1.038,-1.038l4.72,-0c0.57,-0 1.039,0.468 1.039,1.038l-0,6.243Zm-5.907,-6.276c-0.013,0.863 -0.017,1.734 -0.011,2.613c0,0.068 0.034,0.102 0.102,0.102c0.654,0.002 1.3,0.001 1.939,-0.004c0.026,-0 0.039,-0.013 0.039,-0.038l-0,-2.756c-0,-0.029 -0.015,-0.044 -0.044,-0.044c-0.644,-0.002 -1.278,-0.001 -1.901,0.003c-0.082,0.001 -0.123,0.042 -0.124,0.124Zm4.88,-0.116c-0.552,-0.013 -1.177,-0.016 -1.875,-0.009c-0.036,0 -0.054,0.018 -0.054,0.054c-0.006,0.91 -0.006,1.826 0,2.747c0.001,0.026 0.013,0.039 0.039,0.039l1.995,-0c0.026,-0 0.039,-0.013 0.039,-0.039c0.004,-0.873 0.006,-1.754 0.004,-2.642c-0.001,-0.098 -0.05,-0.149 -0.148,-0.15Zm-4.818,6.521c0.043,0.02 0.089,0.03 0.136,0.03c0.641,0.002 1.25,0.001 1.828,-0.003c0.031,-0 0.047,-0.016 0.046,-0.047c-0.004,-0.924 -0.005,-1.845 -0.003,-2.762c-0,-0.02 -0.01,-0.029 -0.03,-0.029c-0.663,0.002 -1.333,0 -2.01,-0.004c-0.027,-0 -0.04,0.013 -0.04,0.041c0.012,0.854 0.012,1.711 -0,2.57c-0.002,0.107 0.023,0.175 0.073,0.204Zm2.911,0.019c0.695,0.021 1.332,0.02 1.912,-0.001c0.095,-0.004 0.143,-0.054 0.143,-0.149l-0,-2.636c-0,-0.03 -0.015,-0.044 -0.044,-0.044l-2.015,-0c-0.014,-0 -0.021,0.007 -0.021,0.021l-0,2.783c-0,0.017 0.008,0.026 0.025,0.026Z" style="fill:#d6a57d;fill-rule:nonzero;"/><path d="M27.363,25.446c-0,0.569 -0.469,1.038 -1.039,1.038l-4.72,-0c-0.569,-0 -1.038,-0.469 -1.038,-1.038l-0,-6.243c-0,-0.57 0.469,-1.038 1.038,-1.038l4.72,-0c0.57,-0 1.039,0.468 1.039,1.038l-0,6.243Zm-5.892,-6.333c-0.017,0.028 -0.026,0.058 -0.026,0.091l0,2.639c0,0.025 0.013,0.038 0.039,0.038c0.649,0.005 1.313,0.006 1.992,0.004c0.033,-0 0.049,-0.017 0.049,-0.05l0,-2.75c0,-0.026 -0.013,-0.039 -0.038,-0.039c-0.62,-0.01 -1.247,-0.011 -1.881,-0.003c-0.066,0.001 -0.112,0.024 -0.135,0.07Zm4.895,-0.059c-0.6,-0.013 -1.239,-0.016 -1.917,-0.01c-0.028,0 -0.041,0.014 -0.041,0.041c-0.006,0.919 -0.006,1.84 -0,2.761c0,0.026 0.013,0.039 0.038,0.039l1.996,-0c0.026,-0 0.039,-0.013 0.039,-0.039c0.004,-0.883 0.005,-1.774 0.003,-2.671c0,-0.079 -0.039,-0.119 -0.118,-0.121Zm-4.773,6.541c0.552,0.012 1.177,0.015 1.875,0.009c0.036,-0.001 0.054,-0.019 0.054,-0.054c0.004,-0.911 0.005,-1.831 0.003,-2.759c0,-0.018 -0.009,-0.027 -0.027,-0.027c-0.674,0.002 -1.343,0 -2.005,-0.004c-0.032,-0 -0.048,0.016 -0.048,0.048l0,2.636c0,0.099 0.05,0.149 0.148,0.151Zm2.842,-0.001c0.691,0.021 1.327,0.02 1.907,-0.001c0.095,-0.004 0.142,-0.054 0.142,-0.149l0,-2.638c0,-0.026 -0.013,-0.039 -0.038,-0.039c-0.649,-0.004 -1.315,-0.005 -1.998,-0.003c-0.029,-0 -0.044,0.014 -0.044,0.044l0,2.755c0,0.021 0.01,0.031 0.031,0.031Z" style="fill:#d6a57d;fill-rule:nonzero;"/><path d="M12.44,21.244c0.129,-0.027 0.249,0.007 0.359,0.102c0.101,0.088 0.151,0.194 0.15,0.319c-0.001,0.391 -0.001,0.781 0,1.172c0.001,0.143 -0.059,0.259 -0.179,0.348c-0.162,0.114 -0.328,0.116 -0.498,0.007c-0.129,-0.082 -0.196,-0.211 -0.202,-0.384c0.006,-0.332 0.006,-0.664 0,-0.996c-0.002,-0.145 0.024,-0.27 0.077,-0.378c0.067,-0.107 0.165,-0.171 0.293,-0.19Z" style="fill:#d6a57d;fill-rule:nonzero;"/></g></svg>