<?xml version="1.0" encoding="UTF-8" standalone="no"?><!DOCTYPE svg PUBLIC "-//W3C//DTD SVG 1.1//EN" "http://www.w3.org/Graphics/SVG/1.1/DTD/svg11.dtd"><svg width="100%" height="100%" viewBox="0 0 26 30" version="1.1" xmlns="http://www.w3.org/2000/svg" xmlns:xlink="http://www.w3.org/1999/xlink" xml:space="preserve" xmlns:serif="http://www.serif.com/" style="fill-rule:evenodd;clip-rule:evenodd;stroke-linejoin:round;stroke-miterlimit:2;"><g><path d="M12.788,0l0.086,0c0.071,0.013 0.14,0.038 0.208,0.075c4.076,2.268 8.143,4.538 12.201,6.81c0.017,0.009 0.034,0.017 0.051,0.024c0.215,0.091 0.32,0.24 0.318,0.447c-0.003,0.204 -0.109,0.351 -0.319,0.441c-2.386,1.114 -4.779,2.235 -7.178,3.363c-0.028,0.013 -0.048,0.033 -0.06,0.061c-0.147,0.325 -0.338,0.63 -0.573,0.916c-0.07,0.085 -0.062,0.134 0.025,0.146c0.363,0.047 0.678,0.199 0.945,0.458c0.418,0.398 0.601,0.903 0.547,1.514c-0.047,0.547 -0.292,0.98 -0.733,1.299c-0.3,0.223 -0.642,0.329 -1.027,0.318c-0.036,0 -0.061,0.017 -0.074,0.051c-0.25,0.634 -0.61,1.186 -1.082,1.656c-0.162,0.161 -0.334,0.309 -0.515,0.444c-0.021,0.015 -0.032,0.036 -0.032,0.062c-0.002,0.339 -0.001,0.641 0.003,0.904c0.001,0.034 0.013,0.039 0.037,0.015c0.193,-0.207 0.385,-0.273 0.575,-0.198c0.103,0.041 0.195,0.112 0.276,0.212c0.378,0.384 0.758,0.764 1.141,1.14c0.012,0.013 0.028,0.021 0.047,0.023c0.576,0.068 1.1,0.187 1.57,0.357c0.836,0.304 1.586,0.756 2.251,1.356c0.663,0.593 1.195,1.297 1.596,2.111c0.508,1.018 0.757,2.118 0.748,3.303c-0.004,0.453 -0.004,0.906 -0,1.359c0.003,0.13 -0.008,0.243 -0.032,0.34c-0.06,0.164 -0.184,0.266 -0.373,0.304l-21.182,0c-0.202,-0.049 -0.327,-0.159 -0.375,-0.33c-0.005,-0.018 -0.008,-0.037 -0.009,-0.056c-0.034,-0.69 -0.033,-1.396 0.001,-2.118c0.044,-0.739 0.188,-1.439 0.433,-2.101c0.305,-0.822 0.746,-1.569 1.324,-2.239c0.536,-0.606 1.143,-1.096 1.821,-1.471c0.786,-0.434 1.616,-0.701 2.491,-0.801c0.071,-0.008 0.131,-0.038 0.181,-0.088c0.46,-0.467 0.871,-0.874 1.233,-1.22c0.013,-0.013 0.028,-0.025 0.044,-0.035c0.19,-0.126 0.38,-0.107 0.571,0.058c0.042,0.037 0.073,0.07 0.092,0.101c0.026,0.023 0.04,0.016 0.04,-0.019l-0,-0.858c-0,-0.053 -0.021,-0.096 -0.063,-0.129c-0.732,-0.567 -1.255,-1.261 -1.57,-2.084c-0.013,-0.034 -0.038,-0.051 -0.073,-0.052c-0.422,0.004 -0.783,-0.116 -1.082,-0.358c-0.471,-0.382 -0.696,-0.882 -0.676,-1.499c0.009,-0.483 0.182,-0.897 0.519,-1.242c0.266,-0.269 0.57,-0.428 0.912,-0.476c0.128,-0.02 0.15,-0.08 0.068,-0.18c-0.219,-0.263 -0.397,-0.547 -0.536,-0.854c-0.025,-0.055 -0.065,-0.095 -0.119,-0.12c-1.092,-0.51 -2.181,-1.021 -3.269,-1.534c-0.043,-0.02 -0.064,-0.007 -0.065,0.04c-0.005,0.296 -0.002,0.578 0.01,0.848c0,0.019 0.01,0.03 0.029,0.034c0.061,0.014 0.167,0.016 0.319,0.006c0.22,-0.015 0.381,0.053 0.483,0.204c0.052,0.106 0.077,0.234 0.075,0.383c-0.018,1.297 -0.018,2.585 -0,3.864c-0,0.019 0.001,0.038 0.003,0.057c0.024,0.189 -0.045,0.341 -0.207,0.455c-0.104,0.056 -0.231,0.081 -0.383,0.075c-0.553,-0.024 -1.106,-0.024 -1.66,-0c-0.195,0.002 -0.342,-0.075 -0.44,-0.233c-0.044,-0.099 -0.064,-0.217 -0.061,-0.354c0.029,-1.302 0.029,-2.605 -0,-3.907c-0.013,-0.208 0.055,-0.365 0.204,-0.469c0.12,-0.084 0.314,-0.105 0.58,-0.062c0.08,0.008 0.121,-0.027 0.125,-0.108c0.015,-0.399 0.014,-0.817 -0.003,-1.254c-0.001,-0.019 -0.01,-0.033 -0.027,-0.041c-0.91,-0.431 -1.889,-0.895 -2.937,-1.39c-0.113,-0.048 -0.186,-0.142 -0.218,-0.283c-0.056,-0.228 0.017,-0.398 0.218,-0.512c4.107,-2.307 8.219,-4.602 12.338,-6.884c0.061,-0.034 0.133,-0.059 0.214,-0.075Zm-8.629,8.581c1.039,0.49 2.07,0.972 3.092,1.448c0.026,0.012 0.039,0.003 0.038,-0.025c-0.01,-0.227 -0.006,-0.418 0.014,-0.572c0.02,-0.156 0.029,-0.332 0.029,-0.53c-0.001,-0.763 -0.001,-1.526 -0,-2.29c-0.004,-0.128 0.026,-0.251 0.089,-0.368c0.095,-0.181 0.247,-0.33 0.455,-0.448c0.198,-0.118 0.413,-0.214 0.644,-0.286c0.638,-0.194 1.305,-0.328 2.004,-0.401c0.921,-0.096 1.894,-0.134 2.919,-0.114c0.977,0.024 1.896,0.115 2.759,0.275c0.477,0.089 0.935,0.228 1.374,0.415c0.209,0.089 0.388,0.216 0.536,0.38c0.139,0.147 0.21,0.31 0.212,0.49c0.008,0.887 0.008,1.765 -0,2.633c-0,0.02 0.001,0.038 0.004,0.057c0.038,0.247 0.05,0.497 0.036,0.751c-0.002,0.038 0.014,0.048 0.048,0.032c1.903,-0.889 3.811,-1.785 5.725,-2.685c0.034,-0.016 0.034,-0.033 0.001,-0.052c-3.759,-2.097 -7.519,-4.193 -11.279,-6.289c-0.021,-0.011 -0.042,-0.011 -0.063,0c-2.924,1.634 -5.799,3.237 -8.625,4.808c-0.03,0.016 -0.045,0.042 -0.045,0.076l-0,2.644c-0,0.024 0.011,0.041 0.033,0.051Zm13.211,-1.958c-0.12,-0.078 -0.237,-0.138 -0.352,-0.179c-0.393,-0.144 -0.802,-0.25 -1.228,-0.318c-1.095,-0.177 -2.24,-0.249 -3.435,-0.215c-0.877,0.023 -1.697,0.094 -2.461,0.215c-0.498,0.078 -0.973,0.207 -1.428,0.39c-0.056,0.024 -0.106,0.055 -0.15,0.093c-0.045,0.036 -0.068,0.084 -0.068,0.142l-0,1.503c-0,0.026 0.012,0.035 0.038,0.025c0.342,-0.129 0.698,-0.23 1.067,-0.304c0.629,-0.126 1.305,-0.213 2.029,-0.261c1.468,-0.097 2.894,-0.049 4.28,0.143c0.579,0.081 1.149,0.22 1.711,0.419c0.021,0.007 0.031,-0 0.031,-0.023c0.004,-0.517 0.006,-1.037 0.004,-1.56c-0,-0.03 -0.013,-0.053 -0.038,-0.07Zm-15.843,0.728c0.562,0.259 1.105,0.514 1.63,0.767c0.035,0.017 0.053,0.006 0.053,-0.033l-0,-1.709c-0,-0.021 -0.01,-0.027 -0.029,-0.016c-0.559,0.319 -1.111,0.628 -1.656,0.927c-0.042,0.023 -0.041,0.044 0.002,0.064Zm10.224,1.855c0.191,0.019 0.313,0.119 0.367,0.298c0.006,0.019 0.01,0.037 0.013,0.056c0.096,0.601 0.377,1.087 0.843,1.457c0.416,0.328 0.897,0.491 1.442,0.49c0.787,-0.002 1.584,-0.002 2.389,0c0.027,0 0.049,-0.01 0.066,-0.03c0.303,-0.365 0.487,-0.794 0.551,-1.287c0.036,-0.275 0.037,-0.538 0.002,-0.789c-0.008,-0.055 -0.038,-0.096 -0.088,-0.121c-0.341,-0.176 -0.69,-0.3 -1.048,-0.374c-0.966,-0.195 -1.986,-0.301 -3.059,-0.319c-1.198,-0.019 -2.334,0.057 -3.407,0.229c-0.385,0.064 -0.748,0.155 -1.088,0.272c-0.168,0.057 -0.317,0.13 -0.448,0.22c-0.029,0.018 -0.046,0.045 -0.05,0.079c-0.064,0.432 -0.035,0.847 0.087,1.244c0.104,0.338 0.26,0.622 0.468,0.851c0.012,0.014 0.028,0.022 0.047,0.023c0.252,0.017 0.494,0.013 0.727,-0.012c0.478,-0.046 0.877,-0.253 1.198,-0.619c0.315,-0.36 0.474,-0.783 0.476,-1.27c-0,-0.02 0.003,-0.038 0.008,-0.057c0.07,-0.254 0.238,-0.368 0.504,-0.341Zm1.066,2.813c-0.44,-0.249 -0.786,-0.566 -1.037,-0.952c-0.013,-0.019 -0.026,-0.019 -0.037,0.002c-0.122,0.212 -0.289,0.417 -0.5,0.613c-0.434,0.403 -0.941,0.641 -1.521,0.712c-0.209,0.026 -0.418,0.037 -0.626,0.033c-0.019,-0 -0.029,0.009 -0.029,0.028c0.003,0.557 0.002,1.124 -0.003,1.7c-0.006,0.63 0.124,1.22 0.39,1.771c0.182,0.387 0.434,0.736 0.758,1.045c0.73,0.696 1.597,1.046 2.601,1.048c0.695,0.007 1.338,-0.166 1.929,-0.519c0.391,-0.225 0.732,-0.519 1.023,-0.88c0.533,-0.659 0.808,-1.404 0.827,-2.236c0.016,-0.634 0.016,-1.279 -0,-1.933c-0,-0.021 -0.011,-0.031 -0.032,-0.031c-0.695,-0.002 -1.4,-0 -2.115,0.003c-0.595,0.003 -1.138,-0.132 -1.628,-0.404Zm-8.691,-0.535c-0,-0.019 -0.015,-0.034 -0.034,-0.034l-0.848,-0c-0.019,-0 -0.034,0.015 -0.034,0.034l-0,3.138c-0,0.018 0.015,0.034 0.034,0.034l0.848,-0c0.019,-0 0.034,-0.016 0.034,-0.034l-0,-3.138Zm3.732,3.29c0.087,0.072 0.191,0.127 0.313,0.164c0.012,0.003 0.017,-0.002 0.016,-0.014c-0.039,-0.472 -0.052,-1.019 -0.039,-1.641c0.001,-0.062 -0.026,-0.08 -0.083,-0.055c-0.214,0.093 -0.368,0.244 -0.461,0.455c-0.068,0.145 -0.092,0.302 -0.072,0.472c0.032,0.261 0.14,0.467 0.326,0.619Zm9.646,-0.293c-0.004,0.148 -0.016,0.29 -0.034,0.425c-0.002,0.021 0.008,0.029 0.028,0.023c0.238,-0.067 0.414,-0.209 0.529,-0.427c0.097,-0.169 0.128,-0.365 0.093,-0.587c-0.052,-0.324 -0.228,-0.553 -0.529,-0.686c-0.056,-0.026 -0.083,-0.009 -0.083,0.053c0.011,0.4 0.01,0.8 -0.004,1.199Zm-4.816,4.451c-0.577,-0.018 -1.129,-0.133 -1.655,-0.348c-0.018,-0.007 -0.027,-0.001 -0.027,0.018c-0.012,0.385 -0.015,0.812 -0.009,1.283c0.001,0.05 0.019,0.093 0.054,0.129c0.586,0.586 1.171,1.171 1.757,1.757c0.013,0.013 0.026,0.013 0.04,-0c0.595,-0.595 1.179,-1.179 1.751,-1.752c0.041,-0.04 0.061,-0.089 0.061,-0.147l-0,-1.266c-0,-0.029 -0.013,-0.037 -0.04,-0.026c-0.604,0.255 -1.248,0.372 -1.932,0.352Zm-0.528,3.527c0.009,-0.009 0.009,-0.025 -0,-0.035l-2.521,-2.521c-0.01,-0.009 -0.026,-0.009 -0.035,0l-0.688,0.688c-0.01,0.01 -0.01,0.026 0,0.035l2.521,2.521c0.009,0.009 0.025,0.009 0.035,-0l0.688,-0.688Zm4.576,-1.829c0.011,-0.011 0.011,-0.03 -0,-0.041l-0.685,-0.683c-0.006,-0.006 -0.013,-0.009 -0.021,-0.009c-0.008,0 -0.015,0.003 -0.021,0.009l-2.508,2.517c-0.012,0.012 -0.012,0.03 -0,0.042l0.685,0.683c0.006,0.005 0.013,0.008 0.021,0.008c0.007,0 0.015,-0.003 0.02,-0.008l2.509,-2.518Zm-10.646,6.066c0.135,-0.128 0.286,-0.166 0.451,-0.115c0.215,0.062 0.326,0.204 0.333,0.426c0.014,0.424 0.014,0.849 -0,1.274c-0,0.076 0.038,0.115 0.114,0.115l11.679,-0c0.077,-0 0.115,-0.039 0.115,-0.115c0.012,-0.382 0.012,-0.764 -0,-1.145c-0.005,-0.146 0.023,-0.271 0.082,-0.376c0.07,-0.097 0.161,-0.158 0.275,-0.182c0.124,-0.037 0.242,-0.017 0.355,0.061c0.14,0.102 0.208,0.249 0.204,0.44c-0.009,0.4 -0.009,0.801 -0,1.202c-0,0.076 0.038,0.115 0.114,0.115l2.977,-0c0.076,-0 0.115,-0.039 0.115,-0.115c-0.002,-0.324 -0.002,-0.649 -0,-0.973c0.004,-0.865 -0.15,-1.69 -0.462,-2.473c-0.268,-0.676 -0.647,-1.284 -1.138,-1.824c-0.524,-0.577 -1.125,-1.031 -1.803,-1.36c-0.572,-0.281 -1.179,-0.461 -1.821,-0.54c-0.073,-0.009 -0.135,0.012 -0.186,0.064c-0.946,0.948 -1.887,1.889 -2.823,2.823c-0.068,0.08 -0.144,0.147 -0.229,0.201c-0.169,0.105 -0.333,0.103 -0.492,-0.006c-0.016,-0.011 -0.03,-0.023 -0.044,-0.036c-0.355,-0.349 -0.711,-0.7 -1.067,-1.054c-0.01,-0.009 -0.02,-0.009 -0.03,0.001c-0.287,0.303 -0.578,0.592 -0.873,0.867c-0.014,0.013 -0.026,0.027 -0.038,0.043c-0.1,0.134 -0.215,0.216 -0.344,0.245c-0.157,0.037 -0.29,0.002 -0.397,-0.103c-1.019,-1.004 -2.036,-2.016 -3.05,-3.036c-0.013,-0.013 -0.03,-0.019 -0.049,-0.017c-0.976,0.099 -1.878,0.439 -2.705,1.02c-0.31,0.22 -0.595,0.465 -0.855,0.734c-0.582,0.604 -1.025,1.302 -1.328,2.093c-0.289,0.759 -0.428,1.574 -0.418,2.444c0.003,0.315 0.003,0.629 -0,0.944c-0,0.038 0.019,0.058 0.057,0.058l3.092,-0c0.038,-0 0.057,-0.02 0.057,-0.058c-0.014,-0.457 -0.013,-0.914 0.003,-1.37c-0.002,-0.1 0.041,-0.19 0.129,-0.272Z" style="fill:#d6a57d;fill-rule:nonzero;"/><path d="M4.126,11.892c-0,-0.244 -0.198,-0.442 -0.443,-0.442l-0.031,-0c-0.244,-0 -0.442,0.198 -0.442,0.442l-0,2.321c-0,0.244 0.198,0.443 0.442,0.443l0.031,-0c0.245,-0 0.443,-0.199 0.443,-0.443l-0,-2.321Z" style="fill:#d6a57d;fill-opacity:0;"/><path d="M11.944,22.675c0.129,-0.129 0.129,-0.338 -0,-0.467l-2.089,-2.089c-0.129,-0.129 -0.338,-0.129 -0.467,-0l-0.256,0.256c-0.129,0.129 -0.129,0.338 -0,0.467l2.089,2.089c0.129,0.129 0.338,0.129 0.467,0l0.256,-0.256Z" style="fill:#d6a57d;fill-opacity:0;"/><path d="M16.487,20.88c0.149,-0.149 0.148,-0.392 -0.001,-0.541l-0.185,-0.184c-0.15,-0.149 -0.392,-0.148 -0.541,0.001l-2.01,2.017c-0.149,0.15 -0.149,0.392 0.001,0.541l0.185,0.184c0.149,0.149 0.392,0.149 0.541,-0.001l2.01,-2.017Z" style="fill:#d6a57d;fill-opacity:0;"/></g></svg>