<?xml version="1.0" encoding="UTF-8" standalone="no"?><!DOCTYPE svg PUBLIC "-//W3C//DTD SVG 1.1//EN" "http://www.w3.org/Graphics/SVG/1.1/DTD/svg11.dtd"><svg width="100%" height="100%" viewBox="0 0 7 11" version="1.1" xmlns="http://www.w3.org/2000/svg" xmlns:xlink="http://www.w3.org/1999/xlink" xml:space="preserve" xmlns:serif="http://www.serif.com/" style="fill-rule:evenodd;clip-rule:evenodd;stroke-linejoin:round;stroke-miterlimit:2;"><path d="M0.016,9.742c0.041,0.125 0.105,0.21 0.329,0.433c0.199,0.199 0.258,0.247 0.357,0.282c0.15,0.057 0.269,0.057 0.419,0.002c0.115,-0.041 0.221,-0.146 2.548,-2.47c1.796,-1.795 2.439,-2.45 2.472,-2.517c0.069,-0.144 0.073,-0.3 0.008,-0.446c-0.049,-0.109 -0.279,-0.343 -2.472,-2.525c-1.684,-1.676 -2.445,-2.419 -2.509,-2.454c-0.072,-0.037 -0.125,-0.047 -0.247,-0.047c-0.219,-0 -0.295,0.045 -0.603,0.359c-0.224,0.226 -0.259,0.273 -0.288,0.37c-0.043,0.148 -0.041,0.242 0.011,0.384c0.041,0.113 0.133,0.209 2.049,2.127l2.004,2.006l-2.004,2.008c-1.388,1.39 -2.016,2.03 -2.043,2.088c-0.041,0.088 -0.058,0.316 -0.031,0.4Z" style="fill:#fff;fill-rule:nonzero;"/></svg>