<?xml version="1.0" encoding="UTF-8" standalone="no"?><!DOCTYPE svg PUBLIC "-//W3C//DTD SVG 1.1//EN" "http://www.w3.org/Graphics/SVG/1.1/DTD/svg11.dtd"><svg width="100%" height="100%" viewBox="0 0 39 39" version="1.1" xmlns="http://www.w3.org/2000/svg" xmlns:xlink="http://www.w3.org/1999/xlink" xml:space="preserve" xmlns:serif="http://www.serif.com/" style="fill-rule:evenodd;clip-rule:evenodd;stroke-linejoin:round;stroke-miterlimit:2;"><circle cx="19.492" cy="19.492" r="19.492" style="fill:#d6a57d;"/><path d="M19.492,25.492c-0.83,-0 -1.61,-0.158 -2.34,-0.473c-0.73,-0.315 -1.365,-0.742 -1.905,-1.282c-0.54,-0.54 -0.968,-1.175 -1.283,-1.905c-0.315,-0.73 -0.472,-1.51 -0.472,-2.34c-0,-0.83 0.157,-1.61 0.472,-2.34c0.315,-0.73 0.743,-1.365 1.283,-1.905c0.54,-0.54 1.175,-0.968 1.905,-1.283c0.73,-0.315 1.51,-0.472 2.34,-0.472c0.83,-0 1.61,0.157 2.34,0.472c0.73,0.315 1.365,0.743 1.905,1.283c0.54,0.54 0.967,1.175 1.282,1.905c0.315,0.73 0.473,1.51 0.473,2.34l-0,0.795c-0,0.56 -0.198,1.032 -0.593,1.417c-0.395,0.385 -0.877,0.578 -1.447,0.578c-0.36,-0 -0.7,-0.088 -1.02,-0.263c-0.32,-0.175 -0.565,-0.422 -0.735,-0.742c-0.26,0.34 -0.585,0.592 -0.975,0.757c-0.39,0.165 -0.8,0.248 -1.23,0.248c-0.78,-0 -1.443,-0.27 -1.988,-0.81c-0.545,-0.54 -0.817,-1.2 -0.817,-1.98c-0,-0.78 0.272,-1.445 0.817,-1.995c0.545,-0.55 1.208,-0.825 1.988,-0.825c0.78,-0 1.442,0.275 1.987,0.825c0.545,0.55 0.818,1.215 0.818,1.995l-0,0.795c-0,0.31 0.112,0.57 0.337,0.78c0.225,0.21 0.498,0.315 0.818,0.315c0.31,-0 0.577,-0.105 0.802,-0.315c0.225,-0.21 0.338,-0.47 0.338,-0.78l-0,-0.795c-0,-1.42 -0.495,-2.625 -1.485,-3.615c-0.99,-0.99 -2.195,-1.485 -3.615,-1.485c-1.42,-0 -2.625,0.495 -3.615,1.485c-0.99,0.99 -1.485,2.195 -1.485,3.615c-0,1.42 0.495,2.625 1.485,3.615c0.99,0.99 2.195,1.485 3.615,1.485l3.21,-0l-0,0.9l-3.21,-0Zm-0,-4.11c0.53,-0 0.98,-0.183 1.35,-0.548c0.37,-0.365 0.555,-0.812 0.555,-1.342c-0,-0.54 -0.185,-0.995 -0.555,-1.365c-0.37,-0.37 -0.82,-0.555 -1.35,-0.555c-0.53,-0 -0.98,0.185 -1.35,0.555c-0.37,0.37 -0.555,0.825 -0.555,1.365c-0,0.53 0.185,0.977 0.555,1.342c0.37,0.365 0.82,0.548 1.35,0.548Z" style="fill:#fff;fill-rule:nonzero;"/></svg>