<?xml version="1.0" encoding="UTF-8" standalone="no"?><!DOCTYPE svg PUBLIC "-//W3C//DTD SVG 1.1//EN" "http://www.w3.org/Graphics/SVG/1.1/DTD/svg11.dtd"><svg width="100%" height="100%" viewBox="0 0 30 31" version="1.1" xmlns="http://www.w3.org/2000/svg" xmlns:xlink="http://www.w3.org/1999/xlink" xml:space="preserve" xmlns:serif="http://www.serif.com/" style="fill-rule:evenodd;clip-rule:evenodd;stroke-linejoin:round;stroke-miterlimit:2;"><g><path d="M1.492,0.005c1.915,-0.002 3.83,-0.002 5.744,0c0.384,0.001 0.711,0.122 0.983,0.363c0.331,0.289 0.497,0.657 0.499,1.104c0.005,1.562 0.005,3.113 -0,4.655c-0,0.02 0,0.04 0.001,0.061c0.027,0.475 -0.136,0.872 -0.489,1.19c-0.317,0.285 -0.724,0.407 -1.221,0.365c-0.065,-0.004 -0.089,0.026 -0.071,0.088c0.03,0.171 0.071,0.337 0.12,0.499c0.121,0.351 0.084,0.669 -0.113,0.953c-0.189,0.272 -0.454,0.404 -0.797,0.396c-0.403,0.004 -0.819,0.004 -1.247,0c-0.035,0 -0.053,0.018 -0.053,0.053l0,3.764c0,0.035 0.018,0.053 0.053,0.053l0.96,-0c0.059,-0 0.093,-0.029 0.103,-0.087c0.16,-0.962 0.469,-1.879 0.928,-2.751c0.407,-0.772 0.916,-1.472 1.527,-2.101c0.649,-0.67 1.38,-1.229 2.192,-1.675c0.028,-0.015 0.041,-0.038 0.041,-0.069l0,-2.059c0,-0.039 -0.017,-0.065 -0.053,-0.079c-0.212,-0.078 -0.402,-0.215 -0.57,-0.411c-0.234,-0.263 -0.349,-0.572 -0.344,-0.926c0.003,-0.473 0.19,-0.854 0.563,-1.145c0.209,-0.163 0.439,-0.26 0.691,-0.291c0.308,-0.046 0.609,0.011 0.904,0.17c0.213,0.115 0.384,0.277 0.514,0.484c0.14,0.216 0.216,0.452 0.226,0.71c0.023,0.366 -0.087,0.696 -0.332,0.991c-0.17,0.204 -0.368,0.346 -0.592,0.426c-0.019,0.008 -0.028,0.022 -0.029,0.042c-0.015,0.542 -0.017,1.089 -0.007,1.642c0.001,0.028 0.014,0.037 0.04,0.027c0.926,-0.35 1.868,-0.553 2.824,-0.61c0.023,-0.001 0.035,-0.014 0.035,-0.037l-0,-2.938c-0,-0.035 -0.017,-0.059 -0.049,-0.072c-0.285,-0.106 -0.514,-0.295 -0.688,-0.566c-0.196,-0.299 -0.267,-0.62 -0.215,-0.964c0.06,-0.401 0.246,-0.718 0.559,-0.952c0.348,-0.266 0.736,-0.357 1.164,-0.272c0.346,0.068 0.632,0.245 0.858,0.532c0.141,0.176 0.233,0.376 0.275,0.601c0.089,0.446 -0.011,0.844 -0.302,1.194c-0.168,0.203 -0.366,0.347 -0.593,0.431c-0.028,0.01 -0.042,0.031 -0.042,0.061l0,2.921c0,0.04 0.02,0.061 0.061,0.064c0.615,0.038 1.224,0.135 1.826,0.291c0.019,0.005 0.032,-0.002 0.038,-0.021c0.016,-0.049 0.018,-0.14 0.007,-0.273c-0.006,-0.082 -0.047,-0.14 -0.122,-0.175c-0.251,-0.109 -0.46,-0.293 -0.627,-0.551c-0.145,-0.225 -0.217,-0.465 -0.215,-0.722c-0.012,-0.317 0.075,-0.603 0.26,-0.858c0.289,-0.412 0.681,-0.62 1.175,-0.623c0.503,-0.005 0.905,0.203 1.206,0.623c0.154,0.216 0.24,0.458 0.257,0.725c0.032,0.377 -0.079,0.718 -0.333,1.021c-0.161,0.193 -0.357,0.336 -0.588,0.43c-0.018,0.008 -0.029,0.022 -0.031,0.042c-0.015,0.139 -0.018,0.353 -0.01,0.642c0.002,0.051 0.026,0.086 0.073,0.106c0.649,0.268 1.265,0.611 1.847,1.027c0.056,0.039 0.097,0.028 0.124,-0.034c0.036,-0.086 0.101,-0.191 0.195,-0.316c0.208,-0.276 0.414,-0.552 0.617,-0.828c0.03,-0.04 0.044,-0.085 0.044,-0.135c-0.012,-1.613 -0.012,-3.203 0,-4.77c0.004,-0.472 0.192,-0.848 0.563,-1.13c0.268,-0.209 0.574,-0.311 0.919,-0.306c1.602,-0.007 3.204,-0.007 4.806,0c0.473,0.002 0.854,0.19 1.145,0.563c0.211,0.266 0.313,0.572 0.306,0.919c0.002,1.572 0.002,3.157 0,4.754c0,0.031 0.009,0.059 0.028,0.084c0.194,0.274 0.406,0.557 0.634,0.849c0.203,0.26 0.305,0.541 0.306,0.842c-0.003,0.28 -0.095,0.525 -0.276,0.738c-0.219,0.283 -0.501,0.429 -0.846,0.438c-0.885,0.022 -1.783,0.024 -2.695,0.003c-0.035,0 -0.053,0.018 -0.053,0.052l0,5.216c0,0.035 -0.017,0.053 -0.052,0.053l-1.807,0c-0.066,0 -0.096,0.035 -0.091,0.106c0.023,0.288 0.02,0.56 -0.009,0.814c-0.004,0.031 0.01,0.047 0.043,0.047l1.886,0c0.02,0 0.03,0.01 0.03,0.031l0,3.786c0,0.035 0.018,0.053 0.053,0.053c0.781,-0.006 1.57,-0.006 2.366,-0c0.474,0.003 0.855,0.191 1.145,0.563c0.21,0.266 0.312,0.572 0.306,0.918c-0.006,2.555 -0.006,5.109 -0,7.664c0.001,0.352 -0.101,0.663 -0.306,0.933c-0.269,0.342 -0.612,0.528 -1.028,0.557c-0.02,0.002 -0.04,0.002 -0.061,0.002c-1.62,0.013 -3.251,0.014 -4.893,0.004c-0.475,-0.003 -0.857,-0.191 -1.145,-0.563c-0.21,-0.265 -0.312,-0.571 -0.306,-0.918c0.002,-2.54 0.002,-5.079 -0,-7.618c-0,-0.087 0.005,-0.162 0.015,-0.227c0.014,-0.063 0.004,-0.073 -0.03,-0.03c-0.415,0.535 -0.887,1.02 -1.418,1.454c-0.736,0.604 -1.536,1.08 -2.4,1.428c-0.024,0.01 -0.037,0.028 -0.037,0.055l0,0.6c0,0.067 0.031,0.115 0.092,0.144c0.308,0.143 0.538,0.353 0.691,0.63c0.17,0.308 0.221,0.635 0.154,0.979c-0.053,0.276 -0.178,0.514 -0.374,0.714c-0.345,0.362 -0.764,0.507 -1.258,0.435c-0.342,-0.05 -0.628,-0.203 -0.858,-0.457c-0.17,-0.18 -0.282,-0.385 -0.336,-0.616c-0.123,-0.478 -0.026,-0.905 0.291,-1.282c0.168,-0.2 0.365,-0.341 0.589,-0.423c0.027,-0.011 0.041,-0.031 0.042,-0.06c0.002,-0.142 0.001,-0.258 -0.003,-0.348c-0,-0.02 -0.011,-0.028 -0.03,-0.023c-0.626,0.156 -1.245,0.254 -1.858,0.294c-0.029,0.002 -0.044,0.017 -0.044,0.046l0,2.869c0,0.067 0.031,0.115 0.091,0.144c0.31,0.143 0.54,0.353 0.691,0.63c0.154,0.284 0.211,0.575 0.17,0.873c-0.028,0.226 -0.108,0.438 -0.241,0.635c-0.209,0.307 -0.491,0.504 -0.847,0.59c-0.189,0.045 -0.366,0.055 -0.529,0.03c-0.345,-0.045 -0.641,-0.197 -0.888,-0.457c-0.17,-0.18 -0.282,-0.385 -0.336,-0.616c-0.123,-0.477 -0.026,-0.904 0.291,-1.281c0.168,-0.201 0.364,-0.342 0.588,-0.423c0.028,-0.011 0.043,-0.032 0.043,-0.063l-0,-2.939c-0,-0.026 -0.013,-0.039 -0.039,-0.041c-0.97,-0.054 -1.908,-0.256 -2.814,-0.608c-0.033,-0.013 -0.049,-0.001 -0.049,0.034l-0,1.572c-0,0.058 0.026,0.099 0.078,0.123c0.226,0.096 0.415,0.238 0.568,0.425c0.168,0.193 0.27,0.424 0.306,0.692c0.066,0.463 -0.064,0.867 -0.389,1.212c-0.178,0.189 -0.387,0.318 -0.627,0.386c-0.279,0.083 -0.558,0.083 -0.84,0c-0.253,-0.075 -0.469,-0.211 -0.65,-0.408c-0.266,-0.285 -0.393,-0.622 -0.381,-1.009c0.011,-0.363 0.136,-0.671 0.374,-0.926c0.163,-0.18 0.346,-0.308 0.55,-0.384c0.029,-0.011 0.043,-0.031 0.043,-0.062l0,-1.969c0,-0.099 -0.043,-0.173 -0.129,-0.223c-1.082,-0.616 -1.995,-1.403 -2.737,-2.36c-0.027,-0.035 -0.04,-0.03 -0.039,0.014c-0.003,2.626 -0.002,5.235 0.003,7.83c0.001,0.352 -0.101,0.663 -0.306,0.933c-0.269,0.342 -0.611,0.528 -1.028,0.557c-0.02,0.002 -0.04,0.002 -0.06,0.002c-1.621,0.014 -3.252,0.015 -4.894,0.004c-0.476,-0.003 -0.858,-0.191 -1.145,-0.563c-0.209,-0.265 -0.311,-0.571 -0.306,-0.918c-0.015,-2.575 -0.015,-5.15 0,-7.724c0.003,-0.472 0.191,-0.849 0.563,-1.13c0.199,-0.156 0.415,-0.251 0.647,-0.286c0.02,-0.003 0.04,-0.005 0.06,-0.006c0.792,-0.017 1.639,-0.021 2.54,-0.013c0.038,0 0.056,-0.018 0.056,-0.055c0.004,-1.229 0.006,-2.484 0.004,-3.763c-0,-0.035 0.017,-0.053 0.052,-0.053c0.619,0.002 1.235,0.001 1.848,-0.003c0.039,-0.001 0.058,-0.02 0.054,-0.059c-0.024,-0.296 -0.023,-0.578 0.004,-0.845c0.004,-0.04 -0.014,-0.06 -0.054,-0.06l-1.852,0c-0.035,0 -0.052,-0.018 -0.052,-0.053l-0,-4.731c-0,-0.035 -0.018,-0.053 -0.053,-0.053c-0.393,-0.004 -0.794,-0.004 -1.202,0c-0.372,0.004 -0.663,-0.143 -0.873,-0.442c-0.133,-0.192 -0.183,-0.396 -0.151,-0.612c0.035,-0.26 0.1,-0.528 0.194,-0.804c0.017,-0.057 -0.004,-0.084 -0.064,-0.081c-0.533,0.034 -0.957,-0.099 -1.271,-0.4c-0.303,-0.29 -0.453,-0.644 -0.45,-1.062c0.015,-1.562 0.015,-3.124 0,-4.685c-0.004,-0.454 0.131,-0.833 0.405,-1.138c0.293,-0.304 0.652,-0.454 1.076,-0.45Zm6.035,1.055c-0.109,-0.06 -0.241,-0.089 -0.397,-0.087c-1.854,0.024 -3.708,0.024 -5.562,-0c-0.145,-0.017 -0.27,0.01 -0.374,0.079c-0.175,0.117 -0.248,0.282 -0.22,0.495c0.003,0.02 0.005,0.04 0.005,0.061l-0,3.191c-0,0.026 0.013,0.04 0.039,0.04c2.202,0.004 4.431,0.005 6.689,0.003c0.026,0 0.04,-0.013 0.04,-0.04c0.012,-1.108 0.014,-2.223 0.003,-3.346c-0.001,-0.172 -0.076,-0.304 -0.223,-0.396Zm7.957,0.396c0,-0.262 -0.216,-0.478 -0.479,-0.478c-0.262,-0 -0.478,0.216 -0.478,0.478c-0,0.263 0.216,0.479 0.478,0.479c0.263,0 0.479,-0.216 0.479,-0.479Zm6.864,-0.26c-0.06,0.11 -0.089,0.242 -0.087,0.397c0.012,1.37 0.012,2.761 -0,4.173c-0,0.027 0.013,0.04 0.04,0.04c1.264,-0.006 2.535,-0.005 3.814,0.004c0.642,0.004 1.278,0.003 1.91,-0.003c0.027,-0.001 0.04,-0.015 0.04,-0.041c-0.011,-1.412 -0.011,-2.803 -0,-4.173c0.015,-0.148 -0.006,-0.273 -0.064,-0.375c-0.105,-0.165 -0.27,-0.246 -0.495,-0.245c-1.587,0.009 -3.174,0.009 -4.762,-0c-0.174,0.001 -0.306,0.075 -0.396,0.223Zm-10.733,2.195c-0,-0.262 -0.216,-0.479 -0.479,-0.479c-0.263,0 -0.479,0.217 -0.479,0.479c0,0.263 0.216,0.479 0.479,0.479c0.263,0 0.479,-0.216 0.479,-0.479Zm6.771,0.968c0,-0.263 -0.216,-0.479 -0.478,-0.479c-0.263,-0 -0.479,0.216 -0.479,0.479c-0,0.262 0.216,0.478 0.479,0.478c0.262,0 0.478,-0.216 0.478,-0.478Zm-17.169,2.341c0.082,0.051 0.171,0.077 0.268,0.077l5.797,0c0.069,0 0.135,-0.017 0.195,-0.051c0.194,-0.115 0.285,-0.31 0.273,-0.584c-0.006,-0.137 -0.011,-0.237 -0.016,-0.298c-0.002,-0.021 -0.013,-0.031 -0.033,-0.031c-2.195,-0.004 -4.421,-0.005 -6.678,-0.003c-0.027,-0 -0.041,0.013 -0.041,0.04c-0.008,0.127 -0.009,0.275 -0.003,0.443c0.005,0.178 0.085,0.313 0.238,0.407Zm22.006,8.299c0,-4.508 -3.709,-8.218 -8.218,-8.218c-4.508,0 -8.217,3.71 -8.217,8.218c-0,4.508 3.709,8.218 8.217,8.218c4.509,-0 8.218,-3.71 8.218,-8.218Zm-1.136,-8.151c-0.247,0.329 -0.497,0.662 -0.748,0.998c-0.044,0.06 -0.057,0.126 -0.038,0.199c0.032,0.122 0.12,0.183 0.264,0.183c2.419,0.002 4.827,0.002 7.225,0c0.021,0 0.04,-0.003 0.06,-0.008c0.116,-0.031 0.177,-0.102 0.181,-0.213c0.003,-0.071 -0.018,-0.136 -0.062,-0.192c-0.258,-0.334 -0.507,-0.666 -0.748,-0.997c-0.019,-0.027 -0.046,-0.041 -0.079,-0.041l-5.911,0c-0.06,0 -0.108,0.024 -0.144,0.071Zm-19.294,0.967c-0.08,0.319 -0.154,0.6 -0.221,0.845c-0.01,0.034 0.003,0.052 0.039,0.052l3.476,-0c0.054,-0 0.073,-0.026 0.06,-0.077c-0.07,-0.264 -0.141,-0.546 -0.214,-0.846c-0.006,-0.027 -0.023,-0.041 -0.051,-0.041c-0.992,-0.004 -1.992,-0.006 -2.999,-0.004c-0.048,0 -0.078,0.024 -0.09,0.071Zm19.358,1.414c0.602,0.755 1.071,1.566 1.406,2.434c0.223,0.579 0.391,1.191 0.504,1.837c0.006,0.032 0.026,0.049 0.059,0.049l0.998,-0c0.03,-0 0.045,-0.015 0.045,-0.046l-0,-4.262c-0,-0.03 -0.015,-0.046 -0.045,-0.046c-0.987,-0.002 -1.971,-0 -2.952,0.004c-0.026,0.001 -0.031,0.011 -0.015,0.03Zm-15.78,10.128c0.193,0.006 0.399,0.063 0.617,0.173c0.039,0.018 0.048,0.008 0.026,-0.029c-0.527,-0.916 -0.879,-1.912 -1.054,-2.988c-0.007,-0.041 -0.031,-0.062 -0.073,-0.062l-0.994,-0c-0.03,-0 -0.045,0.015 -0.045,0.045l0,2.812c0,0.03 0.015,0.045 0.045,0.045c0.494,-0.013 0.986,-0.011 1.478,0.004Zm17.686,-2.828c-0.185,1.047 -0.532,2.03 -1.043,2.951c-0.028,0.051 -0.016,0.064 0.036,0.037c0.199,-0.105 0.415,-0.16 0.647,-0.164c0.453,-0.008 0.927,-0.008 1.422,-0c0.027,-0 0.04,-0.013 0.04,-0.04c0.005,-0.911 0.006,-1.851 0.004,-2.819c-0,-0.026 -0.013,-0.039 -0.04,-0.04c-0.294,-0.004 -0.618,-0.005 -0.973,-0.003c-0.053,0 -0.084,0.026 -0.093,0.078Zm-17.274,4.288c-0,-0.273 -0.224,-0.497 -0.497,-0.497l-4.811,0c-0.272,0 -0.496,0.224 -0.496,0.497l-0,7.713c-0,0.273 0.224,0.497 0.496,0.497l4.811,-0c0.273,-0 0.497,-0.224 0.497,-0.497l-0,-7.713Zm22.026,-0.41c-0.112,-0.059 -0.244,-0.088 -0.396,-0.087c-1.532,0.017 -3.064,0.017 -4.595,0c-0.15,-0.017 -0.275,0.009 -0.375,0.079c-0.167,0.118 -0.239,0.308 -0.215,0.571c0.007,0.131 0.012,0.225 0.016,0.284c0.002,0.02 0.013,0.03 0.033,0.03c1.83,0.004 3.734,0.006 5.711,0.004c0.027,-0 0.041,-0.014 0.041,-0.04c0.024,-0.224 0.02,-0.413 -0.012,-0.565c-0.03,-0.119 -0.099,-0.211 -0.208,-0.276Zm0.223,1.884c0,-0.02 -0.016,-0.036 -0.036,-0.036l-5.732,-0c-0.02,-0 -0.036,0.016 -0.036,0.036l0,4.765c0,0.019 0.016,0.036 0.036,0.036l5.732,-0c0.02,-0 0.036,-0.017 0.036,-0.036l0,-4.765Zm-10.646,3.35c0,-0.263 -0.216,-0.479 -0.478,-0.479c-0.263,-0 -0.479,0.216 -0.479,0.479c-0,0.262 0.216,0.479 0.479,0.479c0.262,-0 0.478,-0.217 0.478,-0.479Zm-6.771,0.967c-0,-0.263 -0.216,-0.479 -0.479,-0.479c-0.263,0 -0.479,0.216 -0.479,0.479c0,0.263 0.216,0.479 0.479,0.479c0.263,0 0.479,-0.216 0.479,-0.479Zm3.869,1.935c0,-0.263 -0.216,-0.479 -0.479,-0.479c-0.262,0 -0.478,0.216 -0.478,0.479c-0,0.263 0.216,0.479 0.478,0.479c0.263,-0 0.479,-0.216 0.479,-0.479Zm7.983,0.407c0.082,0.051 0.171,0.077 0.267,0.077l4.83,-0c0.07,-0 0.135,-0.017 0.196,-0.051c0.194,-0.116 0.284,-0.311 0.272,-0.584c-0.006,-0.138 -0.011,-0.237 -0.016,-0.299c-0.002,-0.02 -0.012,-0.03 -0.033,-0.03c-1.83,-0.005 -3.734,-0.006 -5.711,-0.004c-0.026,0 -0.04,0.014 -0.041,0.04c-0.007,0.128 -0.008,0.276 -0.003,0.444c0.006,0.177 0.085,0.313 0.239,0.407Z" style="fill:#d6a57d;fill-rule:nonzero;"/><circle cx="15.005" cy="1.456" r="0.479" style="fill:#d6a57d;fill-opacity:0;"/><path d="M27.098,4.806c-0,0.02 -0.017,0.036 -0.037,0.036l-3.797,0c-0.02,0 -0.036,-0.016 -0.036,-0.036l0,-2.83c0,-0.019 0.016,-0.036 0.036,-0.036l3.797,0c0.02,0 0.037,0.017 0.037,0.036l-0,2.83Zm-0.968,-1.862c0,-0.02 -0.016,-0.036 -0.036,-0.036l-1.862,-0c-0.02,-0 -0.037,0.016 -0.037,0.036l0,0.895c0,0.02 0.017,0.036 0.037,0.036l1.862,-0c0.02,-0 0.036,-0.016 0.036,-0.036l0,-0.895Z" style="fill:#d6a57d;fill-rule:nonzero;"/><circle cx="11.136" cy="3.391" r="0.479" style="fill:#d6a57d;fill-opacity:0;"/><path d="M26.13,3.358c0,-0.249 -0.201,-0.45 -0.45,-0.45l-1.035,-0c-0.248,-0 -0.45,0.201 -0.45,0.45l0,0.067c0,0.248 0.202,0.45 0.45,0.45l1.035,-0c0.249,-0 0.45,-0.202 0.45,-0.45l0,-0.067Z" style="fill:#d6a57d;fill-opacity:0;"/><circle cx="17.908" cy="4.359" r="0.479" style="fill:#d6a57d;fill-opacity:0;"/><path d="M22.256,14.999c-0,3.978 -3.273,7.251 -7.251,7.251c-3.977,-0 -7.25,-3.273 -7.25,-7.251c-0,-3.977 3.273,-7.25 7.25,-7.25c3.978,-0 7.251,3.273 7.251,7.25Zm-0.967,0c-0,-3.447 -2.837,-6.283 -6.284,-6.283c-3.446,0 -6.283,2.836 -6.283,6.283c0,3.447 2.837,6.283 6.283,6.283c3.447,0 6.284,-2.836 6.284,-6.283Z" style="fill:#d6a57d;fill-rule:nonzero;"/><path d="M15.368,9.709c0.488,0.073 0.91,0.275 1.266,0.609c0.465,0.427 0.723,0.95 0.775,1.568c0.017,0.204 0.022,0.421 0.014,0.652c-0,0.028 0.013,0.042 0.041,0.044c0.198,0.003 0.38,0.07 0.546,0.199c0.259,0.218 0.386,0.509 0.381,0.873c-0.035,1.507 -0.035,3.014 0,4.52c0.006,0.237 -0.029,0.449 -0.106,0.635c-0.104,0.214 -0.267,0.369 -0.487,0.465c-0.126,0.054 -0.261,0.081 -0.404,0.079c-1.603,0.008 -3.205,0.008 -4.807,-0c-0.217,-0.001 -0.405,-0.066 -0.563,-0.193c-0.229,-0.173 -0.361,-0.392 -0.396,-0.658c-0.003,-0.02 -0.005,-0.04 -0.005,-0.06c0.001,-1.585 0,-3.181 -0.003,-4.788c-0.001,-0.156 0.019,-0.297 0.06,-0.423c0.093,-0.24 0.244,-0.417 0.454,-0.529c0.123,-0.066 0.253,-0.101 0.391,-0.106c0.039,0.001 0.058,-0.019 0.058,-0.058c-0.008,-0.26 -0.002,-0.493 0.019,-0.697c0.043,-0.396 0.173,-0.755 0.39,-1.077c0.191,-0.286 0.431,-0.52 0.717,-0.703c0.506,-0.323 1.059,-0.44 1.659,-0.352Zm0.578,1.297c-0.278,-0.25 -0.612,-0.37 -1.001,-0.359c-0.485,0.013 -0.862,0.221 -1.13,0.623c-0.192,0.274 -0.279,0.585 -0.261,0.933c0.003,0.096 0.003,0.205 0,0.326c0,0.035 0.018,0.052 0.052,0.052l2.81,0c0.024,0 0.036,-0.012 0.037,-0.035c0.031,-0.304 0.017,-0.575 -0.042,-0.811c-0.087,-0.302 -0.242,-0.545 -0.465,-0.729Zm1.474,2.575c-0,-0.02 -0.017,-0.037 -0.037,-0.037c0,0 0,0 0,0l-4.764,0.009c-0.02,-0 -0.036,0.016 -0.036,0.036c-0,0 -0,0 -0,0l0.008,4.764c0,0.02 0.017,0.037 0.036,0.037c0,-0 0,-0 0.001,-0l4.764,-0.009c0.02,0 0.036,-0.016 0.036,-0.036c0,0 0,0 0,0l-0.008,-4.764Z" style="fill:#d6a57d;fill-rule:nonzero;"/><path d="M15.005,14.032c0.375,-0.002 0.701,0.125 0.979,0.382c0.235,0.217 0.382,0.478 0.442,0.782c0.062,0.294 0.031,0.58 -0.094,0.858c-0.159,0.362 -0.429,0.622 -0.811,0.782c-0.019,0.008 -0.028,0.021 -0.029,0.042c-0.004,0.283 -0.005,0.609 -0.003,0.978c0.001,0.031 -0.015,0.046 -0.045,0.046l-0.877,-0c-0.03,-0 -0.045,-0.015 -0.045,-0.046l-0,-0.967c-0,-0.036 -0.017,-0.06 -0.052,-0.072c-0.137,-0.058 -0.262,-0.133 -0.375,-0.227c-0.351,-0.273 -0.531,-0.637 -0.541,-1.091c-0.01,-0.473 0.178,-0.86 0.563,-1.161c0.263,-0.205 0.56,-0.307 0.888,-0.306Zm0.479,1.451c0,-0.262 -0.216,-0.478 -0.479,-0.478c-0.262,-0 -0.478,0.216 -0.478,0.478c-0,0.263 0.216,0.479 0.478,0.479c0.263,0 0.479,-0.216 0.479,-0.479Z" style="fill:#d6a57d;fill-rule:nonzero;"/><circle cx="15.005" cy="15.483" r="0.479" style="fill:#d6a57d;fill-opacity:0;"/><path d="M5.815,26.091c0,0.018 -0.015,0.033 -0.033,0.033l-3.802,0c-0.019,0 -0.034,-0.015 -0.034,-0.033l-0,-4.767c-0,-0.019 0.015,-0.034 0.034,-0.034l3.802,0c0.018,0 0.033,0.015 0.033,0.034l0,4.767Zm-0.967,-3.8c0,-0.02 -0.016,-0.036 -0.036,-0.036l-1.862,-0c-0.02,-0 -0.037,0.016 -0.037,0.036l0,2.83c0,0.02 0.017,0.036 0.037,0.036l1.862,0c0.02,0 0.036,-0.016 0.036,-0.036l0,-2.83Z" style="fill:#d6a57d;fill-rule:nonzero;"/><path d="M4.848,22.705c0,-0.248 -0.202,-0.45 -0.45,-0.45l-1.035,-0c-0.248,-0 -0.45,0.202 -0.45,0.45l0,2.002c0,0.248 0.202,0.45 0.45,0.45l1.035,0c0.248,0 0.45,-0.202 0.45,-0.45l0,-2.002Z" style="fill:#d6a57d;fill-opacity:0;"/><path d="M29.032,22.705c0,-0.248 -0.201,-0.45 -0.45,-0.45l-4.904,-0c-0.248,-0 -0.45,0.202 -0.45,0.45l0,3.937c0,0.248 0.202,0.45 0.45,0.45l4.904,-0c0.249,-0 0.45,-0.202 0.45,-0.45l0,-3.937Z" style="fill:#d6a57d;fill-opacity:0;"/><circle cx="17.908" cy="25.641" r="0.479" style="fill:#d6a57d;fill-opacity:0;"/><circle cx="11.136" cy="26.608" r="0.479" style="fill:#d6a57d;fill-opacity:0;"/><path d="M4.848,27.542c0,-0.249 -0.202,-0.45 -0.45,-0.45l-1.035,-0c-0.248,-0 -0.45,0.201 -0.45,0.45l0,0.067c0,0.249 0.202,0.45 0.45,0.45l1.035,0c0.248,0 0.45,-0.201 0.45,-0.45l0,-0.067Z" style="fill:#d6a57d;"/><circle cx="15.005" cy="28.543" r="0.479" style="fill:#d6a57d;fill-opacity:0;"/></g></svg>